<svg xmlns="http://www.w3.org/2000/svg" width="200" height="160" fill="none"><path d="M165.032 40.376a5.346 5.346 0 0 0-5.343-5.342 5.347 5.347 0 0 0 5.343-5.343 5.346 5.346 0 0 0 5.342 5.343 5.346 5.346 0 0 0-5.342 5.342zm21.462 17.931a6.415 6.415 0 0 0-6.417-6.417 6.414 6.414 0 0 0 6.417-6.417 6.414 6.414 0 0 0 6.417 6.417c-3.562.03-6.417 2.886-6.417 6.417zm3.285-13.786c0-1.934-1.566-3.5-3.5-3.5 1.934 0 3.5-1.566 3.5-3.5 0 1.934 1.566 3.5 3.501 3.5-1.935-.03-3.501 1.535-3.501 3.5zM34.753 20.234c0-1.934-1.566-3.5-3.5-3.5 1.934 0 3.5-1.566 3.5-3.5 0 1.934 1.566 3.5 3.5 3.5-1.934-.03-3.5 1.535-3.5 3.5zM13.168 63.281a5.346 5.346 0 0 0-5.342-5.342 5.346 5.346 0 0 0 5.342-5.343 5.346 5.346 0 0 0 5.343 5.343 5.327 5.327 0 0 0-5.343 5.343zM170.743 27.85a2.543 2.543 0 0 0-2.549-2.549 2.543 2.543 0 0 0 2.549-2.548 2.542 2.542 0 0 0 2.548 2.548 2.542 2.542 0 0 0-2.548 2.549zM39.973 25.3a2.542 2.542 0 0 0-2.548-2.548 2.542 2.542 0 0 0 2.548-2.549 2.542 2.542 0 0 0 2.549 2.549 2.562 2.562 0 0 0-2.549 2.548z" fill="#F5EBD5"></path><path d="M85.507 97.24l-4.912 57.202-44.214 3.163-4.207-38.687s-3.9-14.585 7.553-22.476a21.24 21.24 0 0 1 2.334-1.382c1.75-.89 3.776-1.658 6.11-2.241.092-.092.154-.154.246-.215.122-.123.245-.246.399-.368.338-.338.706-.676 1.044-1.014 1.934-1.842 3.9-3.653 6.048-5.25 1.198-.89 2.457-1.75 3.777-2.487 1.228-.706 2.518-1.351 3.9-1.689.153-.03.307-.092.49-.123 1.536-.338 3.225-.276 4.668.369 1.689.767 2.978 2.333 3.377 4.145a5.975 5.975 0 0 1-.215 3.285c2.334.4 4.637 1.106 6.847 2.242 2.426 1.228 4.729 3.04 6.755 5.526z" fill="#FFCA64"></path><path d="M44.947 110.996a.438.438 0 0 1-.4-.276 10.107 10.107 0 0 1 .523-7.155c.46-.951 1.044-1.811 1.627-2.671.952-1.382 1.842-2.671 2.119-4.237a.412.412 0 0 1 .46-.338c.215.03.369.246.338.46-.307 1.72-1.29 3.163-2.241 4.545-.553.829-1.136 1.689-1.566 2.548a9.339 9.339 0 0 0-.492 6.571.394.394 0 0 1-.276.491c0 .062-.03.062-.092.062zm10.623.675a.4.4 0 0 1-.368-.245c-.952-2.365-.123-4.913.86-7.554.89-2.333 1.689-4.82.737-6.939-.093-.215 0-.43.215-.522.214-.092.43 0 .521.215 1.075 2.395.185 5.159-.736 7.553-.952 2.457-1.72 4.852-.89 6.94.091.215-.032.43-.216.522 0 .03-.061.03-.122.03z" fill="#FFE0A3"></path><path d="M36.964 108.724c.153-.706.368-1.413.614-2.057.276-.676.583-1.321.952-1.935.368-.614.767-1.228 1.197-1.811.43-.584.921-1.106 1.474-1.597l-1.105 1.842c-.369.614-.737 1.198-1.075 1.812-.368.614-.675 1.228-1.013 1.842-.369.645-.676 1.259-1.044 1.904zm13.264 12.957a27.501 27.501 0 0 0 1.904 2.64 20.12 20.12 0 0 0 2.241 2.334c.798.737 1.658 1.382 2.549 1.996.89.614 1.842 1.136 2.824 1.627-1.074-.276-2.088-.737-3.04-1.259-.951-.552-1.872-1.197-2.67-1.934a14.24 14.24 0 0 1-2.211-2.487c-.676-.921-1.229-1.904-1.597-2.917zm-.89 1.075a19.127 19.127 0 0 0 1.29 3.653 15.961 15.961 0 0 0 2.056 3.224c.799.983 1.75 1.873 2.794 2.641a19.127 19.127 0 0 0 3.347 1.965 12.225 12.225 0 0 1-3.592-1.627 13.46 13.46 0 0 1-2.948-2.641c-.829-1.044-1.535-2.18-2.026-3.408a11.727 11.727 0 0 1-.921-3.807z" fill="#FF9C45"></path><path d="M16.208 97.087l7.461 11.76-12.404 4.728-.308-3.04 5.251-13.448z" fill="#F0DCB2"></path><path d="M12.984 97.332l3.224-.245s-.983 10.47-4.36 14.277c0 0 14.277-6.969 23.734-4.882l.983 3.194-26.16 5.956-1.75-.859v-.522s4.114-12.681 4.329-16.919z" fill="#F0EADD"></path><path d="M8.286 114.619s4.268-12.404 4.452-17.532h.4s0 3.439-4.483 17.716l-.369-.184zm35.71 30.244l-21.002 6.294-.277.092-12.281-36.63c.092-.031.184-.092.276-.123 20.817-9.211 26.006-5.373 26.006-5.373l7.277 35.74z" fill="#02909C"></path><path d="M22.686 151.219c-.061.03-.153.03-.245.061-.952.153-2.58-.061-2.58-.061l-11.575-36.6h2.119l12.281 36.6z" fill="#025E66"></path><path d="M22.963 151.157l-.277.092c-.06.031-.153.031-.245.062L10.159 114.65h.246c.092-.031.184-.092.276-.123l12.282 36.63z" fill="#fff"></path><path d="M34.304 136.771a8.72 8.72 0 1 0-10.975-13.553 8.72 8.72 0 0 0 10.975 13.553z" fill="#FFCA64"></path><path d="M24.682 128.405a.76.76 0 0 1-.767.768.76.76 0 0 1-.768-.768.76.76 0 0 1 .768-.767.76.76 0 0 1 .767.767zm6.602-1.136a.767.767 0 1 0 0-1.534.767.767 0 0 0 0 1.534zm-6.264 2.426c.522.614 1.105 1.167 1.78 1.504.676.338 1.413.492 2.12.307.706-.153 1.32-.614 1.719-1.228.368-.614.522-1.412.399-2.18-.03-.092.03-.153.123-.184.061 0 .153.031.184.092.369.798.338 1.781-.092 2.61-.4.829-1.228 1.443-2.119 1.658-.46.123-.92.123-1.381.031a4.163 4.163 0 0 1-1.26-.491 4.65 4.65 0 0 1-1.688-1.935c-.03-.092 0-.184.061-.215.031-.061.123-.031.154.031z" fill="#02909C"></path><path d="M50.167 144.771s1.873-3.286-.43-7.922c-2.303-4.636-8.843-6.878-8.843-6.878l.952 4.667c.123.676-.43 1.259-1.105 1.136-2.672-.46-5.22-1.781-7.83-2.517-.307-.093-.645-.154-.89.03-.185.154-.246.43-.216.645.062.246.185.43.338.645.737.921 1.781 1.535 2.856 1.996 1.074.46 2.21.798 3.285 1.289.184.062.369.184.4.369.03.245-.246.43-.492.491-.583.123-1.167-.061-1.72-.246-2.057-.675-4.114-1.381-6.202-2.057-.215-.061-.43-.153-.645-.123-.214 0-.46.123-.552.307-.123.246 0 .553.123.799a5.607 5.607 0 0 0 1.32 1.627c1.566 1.32 3.5 1.873 5.373 2.426.276.092.584.184.798.399.308.307.062.829-.368.829-2.088.092-4.114-.645-6.202-.829-.4-.031-.921 0-1.044.43a.688.688 0 0 0 .061.552c.43 1.106 1.505 1.781 2.58 2.211 1.043.399 2.149.645 3.162 1.105.246.123.491.246.675.461a.597.597 0 0 1-.245.921l-.921.338c.03.03 9.303 4.391 15.782-3.101z" fill="#BA6C18"></path><path d="M80.441 92.696s8.106 3.193 10.47 14.769c2.334 11.575 9.365 46.67-8.781 51.368-18.146 4.667-35.003-11.453-35.003-11.453s5.22-5.219 2.026-11.882c0 0 26.652 1.228 26.529.89-.123-.337.706-21.063.583-21.401-.123-.368 4.176-22.29 4.176-22.29z" fill="#FFCA64"></path><path d="M49.184 135.375l7.553.43c2.518.123 5.036.246 7.554.338 2.517.092 5.035.153 7.553.215l7.553.122c-2.518.185-5.035.277-7.553.308a155.497 155.497 0 0 1-15.107-.553c-2.579-.215-5.066-.491-7.553-.86zm-1.811 12.282c1.013.767 2.026 1.504 3.04 2.241a69.486 69.486 0 0 0 3.1 2.119 68.885 68.885 0 0 0 3.194 1.965c1.074.645 2.18 1.228 3.285 1.842-1.197-.399-2.364-.921-3.5-1.474a26.813 26.813 0 0 1-3.286-1.903 37.253 37.253 0 0 1-3.07-2.242 24.008 24.008 0 0 1-2.763-2.548zm28.585-11.391a91.413 91.413 0 0 1-.46-5.773 121.89 121.89 0 0 1-.154-5.803c0-1.934.062-3.869.154-5.803a89.52 89.52 0 0 1 .46-5.772l-.061 5.803c-.03 1.934-.03 3.868-.03 5.772 0 1.934 0 3.869.03 5.772l.061 5.804zm-1.903-36.508c.153-.767.43-1.504.798-2.18a12.05 12.05 0 0 1 1.29-1.965 9.399 9.399 0 0 1 1.688-1.627 8.832 8.832 0 0 1 1.996-1.198c-.614.492-1.197.983-1.72 1.505a15.594 15.594 0 0 0-1.535 1.658c-.49.583-.92 1.197-1.35 1.811-.4.645-.799 1.32-1.167 1.996zm2.364 35.74c.092-.307.245-.553.368-.829.154-.246.307-.491.491-.737.185-.246.369-.461.584-.675.215-.215.43-.4.706-.553-.092.307-.246.583-.368.829-.154.246-.308.491-.492.737a6.2 6.2 0 0 1-.583.675c-.215.215-.43.399-.706.553zm.737.522c.123-.246.276-.43.43-.614.153-.184.337-.338.522-.491.184-.154.399-.277.583-.4a2.46 2.46 0 0 1 .706-.276c-.123.246-.276.43-.43.614a3.927 3.927 0 0 1-.522.491c-.184.154-.399.277-.583.4-.246.092-.46.215-.706.276z" fill="#FF9C45"></path><path d="M47.127 85.48c.553 2.825 1.259 5.62 2.18 8.352 2.855 1.32 5.987 1.443 9.027.645a13.815 13.815 0 0 0 7.645-5.281c-2.057-6.663-4.421-13.326-7.154-19.743-3.93 5.097-8.136 10.654-11.698 16.028z" fill="#BA6C18"></path><path d="M57.382 74.95a24.066 24.066 0 0 1-3.408 9.855c-1.443 2.334-3.316 4.422-5.619 5.895a56.364 56.364 0 0 1-.952-3.93c.246-.092.492-.215.737-.337 2.917-1.413 5.25-3.87 6.97-6.633.952-1.504 1.689-3.132 2.272-4.85z" fill="#87380B"></path><path d="M55.11 79.831c-1.72 2.763-4.053 5.22-6.97 6.632-2.917 1.413-6.51 1.658-9.426.246-3.347-1.627-5.404-5.128-6.816-8.597-1.351-.4-2.794-.921-3.44-2.18-.798-1.597.154-3.47.37-5.25.276-2.365-.8-4.668-1.198-7.032-.154-.921-.215-1.873-.154-2.825.184-3.255 1.535-6.417 3.654-8.904 1.351-1.597 3.009-2.886 4.79-3.93 1.842-1.075 3.869-1.843 5.956-2.334 3.163-.767 6.05 1.198 8.506 3.316 4.268 3.715 7.154 8.966 8.013 14.554.89 5.619-.307 11.483-3.285 16.304z" fill="#BA6C18"></path><path d="M31.99 59.69c.061-.154.184-.308.276-.461.123-.123.246-.246.369-.338.122-.092.276-.184.399-.276.153-.062.307-.123.43-.185.153-.061.307-.092.46-.123l.491-.061c.307-.03.645-.03.952-.03.645.03 1.26.184 1.843.43.583.245 1.105.583 1.504 1.043a.149.149 0 0 1 0 .215c-.03.03-.061.03-.092.03-.584.032-1.136.062-1.627.124a10.02 10.02 0 0 0-1.444.276c-.122.03-.215.061-.337.092-.123.03-.215.061-.338.092l-.338.123c-.092.03-.215.061-.337.092-.123.03-.215.062-.338.062-.123.03-.215.03-.369.03-.123 0-.245.03-.399 0-.123 0-.276 0-.43-.03l-.123-.031c-.43-.092-.706-.492-.614-.921 0-.062.031-.093.062-.154z" fill="#241C19"></path><path d="M41.109 81.428c.123-.184.245-.338.338-.492l.337-.43.338-.398c.123-.154.246-.277.4-.43.06.215.03.43-.031.644-.062.215-.154.4-.307.553a1.562 1.562 0 0 1-.492.4 1.092 1.092 0 0 1-.583.153zm-8.229-4.882c0-.184.061-.338.123-.491.061-.154.154-.277.246-.4.092-.122.215-.215.337-.307.123-.092.277-.184.46-.215 0 .185-.06.338-.122.492a1.737 1.737 0 0 1-.246.399 1.607 1.607 0 0 1-.337.307 2.115 2.115 0 0 1-.46.215z" fill="#87380B"></path><path d="M34.078 68.931c.583-.092.92-.246 1.29-.368a4.35 4.35 0 0 0 .552-.246c.184-.092.338-.215.522-.338.338-.276.645-.614.982-.982.307-.369.645-.799 1.014-1.198a.148.148 0 0 1 .215 0c.03.03.061.062.03.123a5.198 5.198 0 0 1-.368 1.627c-.215.522-.491 1.044-.952 1.474-.215.215-.491.43-.768.584a2.337 2.337 0 0 1-.92.307c-.338.03-.676 0-.983-.093-.307-.122-.614-.337-.768-.614-.03-.092 0-.184.062-.214.061-.062.061-.062.092-.062z" fill="#241C19"></path><path d="M37.793 77.743l4.237-3.53s.768 4.728-1.075 5.465c-1.872.737-3.162-1.935-3.162-1.935z" fill="#fff"></path><path opacity=".5" d="M54.526 61.961c-1.473-.829-3.162-1.259-4.82-1.627-1.658-.369-3.347-.737-4.851-1.505-1.535-.767-2.702-1.934-3.286-3.53-1.044 1.381-2.732 2.271-4.452 2.302-1.72.03-3.316-.645-4.421-1.996a11.692 11.692 0 0 1-4.667 4.944l-.553.276c.184-3.255 1.535-6.417 3.654-8.904 1.35-1.597 3.009-2.886 4.79-3.93 2.825-.338 5.741.245 8.351 1.412 5.159 2.334 8.997 7.093 10.255 12.558z" fill="#87380B"></path><path d="M38.376 39.731c-.092.553-.368 1.075-.706 1.535-.307.4-.645.768-1.013 1.075-1.136.952-1.965 2.242-3.04 3.255-1.136 1.075-2.303 2.118-3.623 2.948-1.29.86-2.764 1.504-4.299 1.75-1.166.184-2.425.092-3.439-.553-1.013-.645-1.627-1.78-1.29-2.917-.767-.215-1.35-.952-1.504-1.72-.153-.798.062-1.627.492-2.302.153-.246.307-.46.521-.614.215-.154.492-.307.737-.246-.521-.829-.49-1.904-.215-2.855.492-1.812 1.781-3.347 3.47-4.176a6.902 6.902 0 0 1 1.75-.584c.123-.03.246-.03.4-.061a6.627 6.627 0 0 1 3.285.4c.399.153.798.368 1.105.675.184.184.276.368.369.583.061.184.061.368.061.553.061-.154.123-.277.215-.43a2.82 2.82 0 0 1 1.996-1.26 2.803 2.803 0 0 1 2.579 1.106c.338.46.522.983.368 1.535.553-.092 1.136.185 1.474.645.307.492.4 1.106.307 1.658z" fill="#0A0807"></path><path d="M27.691 47.438l-.092.246c-1.627-.645-2.917-2.18-3.285-3.9-.338-1.688.184-3.592 1.412-4.82-.46-1.044-.491-2.272-.123-3.347.154-.43.369-.86.645-1.228.123-.03.246-.03.4-.062-.339.4-.615.86-.768 1.382a4.342 4.342 0 0 0 .153 3.224l.03.092-.06.062c-1.198 1.197-1.72 3.009-1.382 4.667.307 1.596 1.535 3.07 3.07 3.684zm5.373-5.189a3.948 3.948 0 0 1-1.381 2.733l-.185-.215c.737-.614 1.198-1.566 1.26-2.549.06-.951-.277-1.965-.953-2.67-.03-.032-.061-.093-.092-.124-.153-.184-.338-.337-.43-.583-.153-.369-.092-.768-.03-1.136l.03-.123c.092-.522.092-1.075.062-1.627.061.184.061.368.061.552.062-.153.123-.276.215-.43.03.523.03 1.014-.061 1.536l-.031.123c-.061.337-.123.706 0 .982.061.184.215.338.368.491.031.031.062.092.123.123.737.83 1.106 1.873 1.044 2.917z" fill="#54413A"></path><path d="M82.253 87.691c-.43 1.935-1.781 3.194-3.562 3.992-2.21-1.136-4.514-1.842-6.847-2.242.368-1.043.46-2.21.215-3.285-.4-1.811-1.689-3.408-3.378-4.145a5.827 5.827 0 0 0-2.18-.522c-.123 0-.245-.03-.368-.03a8.146 8.146 0 0 0-2.119.214c-.153.031-.307.062-.491.123-1.443-4.145-3.009-8.29-4.728-12.312-.093.123-.185.245-.308.368a22.763 22.763 0 0 0-.122-6.294 19.651 19.651 0 0 0-.492-2.334c-.767.83-1.473 1.72-2.026 2.733-1.075 1.996-1.566 4.39-.737 6.51-1.259.122-2.733-.461-3.07-1.69-.246-.89.184-1.811.399-2.732.307-1.413.061-2.948-.645-4.207-.706-1.258-1.873-2.272-3.193-2.855-1.136-.522-2.395-.737-3.5-1.32a5.833 5.833 0 0 1-1.659-1.32 1.97 1.97 0 0 1-.307-.4 5.257 5.257 0 0 1-.276-.43c-.03-.061-.092-.153-.123-.215-.03-.061-.092-.153-.123-.215-.03-.061-.061-.092-.061-.153-.061-.092-.092-.215-.154-.338-.03-.061-.06-.153-.092-.215-.122-.368-.245-.767-.276-1.136v-.153c0-.062 0-.123-.03-.185 0-.092 0-.184-.031-.245-.031.123-.093.245-.123.368-.03.031-.03.092-.062.123 0 .03-.03.062-.03.092-.031.03-.031.092-.062.123-.03.03-.03.092-.061.123a.64.64 0 0 1-.123.184 2.556 2.556 0 0 1-.246.368c-.03.062-.092.123-.122.185-.031.061-.093.123-.154.184-.153.154-.307.338-.46.46-.062.062-.123.093-.185.154-.061.061-.123.092-.184.154-.061.03-.123.092-.184.122-.062.031-.123.093-.184.123-.062.062-.154.092-.246.154-.215.122-.43.245-.675.337-.031.031-.093.031-.123.062-.062.03-.123.061-.215.092-.092.03-.154.061-.246.092-.092.03-.184.061-.307.092-.092.03-.184.03-.276.062-.092.03-.184.03-.277.061-2.057.338-4.36-.86-5.004-2.855-.031.122-.062.215-.093.337-.03.123-.06.215-.092.338-.03.092-.061.215-.123.307-.03.092-.092.215-.122.307-.031.092-.092.215-.123.307a8.517 8.517 0 0 1-.798 1.474l-.185.276c-.122.184-.276.369-.399.522-.03.062-.092.123-.153.184l-.031.031a1.755 1.755 0 0 1-.215.246 2.75 2.75 0 0 0-.276.307c-.43.43-.86.86-1.32 1.228a2.777 2.777 0 0 1-.492.338.92.92 0 0 1-.245.123c-.093.03-.154.092-.246.122a12.57 12.57 0 0 0 .092 3.716c0 .061.03.123.03.184.031.184.062.368.123.522.461 2.088 1.29 4.176 1.045 6.294-.216 1.781-1.167 3.654-.369 5.25.583 1.137 1.873 1.69 3.101 2.088.123.031.215.062.338.093.43 1.013.89 2.057 1.443 3.04 1.29 2.333 3.009 4.39 5.343 5.526 1.78.86 3.776 1.106 5.741.86.092 0 .184-.03.277-.03a10.166 10.166 0 0 0 2.67-.738c.4 1.843.86 3.654 1.413 5.435-.123.123-.245.246-.399.368-.061.062-.153.154-.245.215-1.69.43-3.224.921-4.575 1.535l-.369.185c-.4.184-.767.368-1.136.552-.829.43-1.627.89-2.334 1.382-1.596-.43-3.162-1.013-4.759-.767-.276.03-.552.122-.829.184l-.276.092c-1.535.522-3.04 1.382-4.544.829-1.658-.614-2.272-2.702-3.715-3.685-.062-.061-.154-.092-.246-.153 0 0-.03 0-.03-.03-1.106-.615-2.488-.461-3.747-.646-1.995-.307-3.838-1.566-4.728-3.377-.89-1.812-.737-4.114.46-5.711 1.014-1.382 2.825-2.426 2.887-4.145.092-1.781-1.75-3.163-1.781-4.944-.031-2.149 2.425-3.377 3.561-5.189 1.597-2.517.522-5.803.338-8.812-.092-1.35.03-2.702.338-4.022.061-.276.123-.583.215-.86 0-.03 0-.03.03-.061.093-.307.185-.584.277-.86v-.03c.061-.185.123-.369.215-.553l.184-.46c.03-.093.062-.154.092-.246.123-.277.246-.584.4-.86l.183-.369c.062-.122.123-.215.185-.337.061-.093.092-.185.153-.277.154-.307.338-.583.522-.89.123-.184.246-.369.369-.584.123-.184.245-.368.399-.552.061-.092.123-.184.215-.277.092-.122.215-.276.307-.399s.215-.276.307-.399c.03-.03.061-.092.092-.123.46-.552.921-1.074 1.412-1.566a2.84 2.84 0 0 1 .43-.43c2.426-2.456 5.22-4.544 8.383-5.864a22.048 22.048 0 0 1 3.04-1.013c.122-.03.245-.062.337-.092.46-.123.921-.215 1.382-.277.092-.03.215-.03.307-.061 2.978-.43 5.864-.184 8.781.553 2.825.706 5.465 2.057 7.738 3.838.245.215.522.43.767.644.184.154.338.307.522.461.369.338.706.706 1.044 1.044.092.092.184.184.246.276.03.062.092.092.123.154.092.092.153.184.245.276.215.246.4.491.584.737.092.123.184.246.307.4.123.183.245.337.368.521.092.154.215.307.307.46.092.154.215.308.307.461.062.123.154.246.215.369.03.061.092.153.123.215.061.123.154.245.215.399.092.153.184.338.245.491.031.092.093.154.123.246.031.061.062.092.062.153.245.492.46 1.014.645 1.505 1.473 3.868 1.75 8.167 3.623 11.82 1.535 3.01 4.083 5.436 5.312 8.567 1.074 2.702 1.166 5.865 2.978 8.137.982 1.228 2.333 2.088 3.47 3.163 1.258 1.105 2.18 2.64 1.842 4.175z" fill="#241C19"></path><path opacity=".5" d="M64.29 49.894a20.895 20.895 0 0 0-5.618-6.847c-3.715.799-7.4 1.536-11.115 2.242-5.466 1.044-10.9 2.026-16.458 2.425-1.381.093-2.825.215-4.237.277-.03.03-.061.061-.092.123-2.334 2.794-3.992 6.263-4.33 9.856h.123c.461.03.89.061 1.352.061 1.995.062 3.96.123 5.956.092 1.259-1.32 2.21-2.855 2.61-4.636.675 1.996 2.948 3.193 5.005 2.855 2.057-.337 3.9-1.658 4.513-3.654.031 1.351.584 2.672 1.474 3.685 5.19-1.136 10.317-2.64 15.383-4.237 1.873-.584 3.746-1.198 5.619-1.781-.03-.061-.062-.092-.062-.153a.92.92 0 0 0-.122-.308z" fill="#241C19"></path><path d="M64.444 50.14a11.7 11.7 0 0 1-2.026.154c-1.842 0-3.5-.43-4.82-1.26-2.212-1.38-3.563-3.99-3.44-6.6h.277c-.123 2.486 1.197 5.035 3.285 6.355 1.72 1.075 4.053 1.443 6.602 1.075.03.123.06.215.122.276zm-2.917 9.18c0 .738-.184 1.505-.552 2.273l-.246-.123c.338-.737.522-1.443.522-2.15 0-.767-.246-1.504-.675-2.056-.645-.83-1.659-1.229-2.365-1.413-.706-.184-1.443-.246-2.15-.307-.245-.03-.49-.03-.705-.061-.89-.092-1.935-.246-2.825-.768-.952-.522-1.597-1.351-1.72-2.21-3.653-.123-7.184-2.396-8.75-5.712-1.198-2.517-1.228-5.526-.184-8.106.092-.03.215-.03.307-.061-1.075 2.548-1.075 5.527.122 8.044 1.536 3.255 5.005 5.497 8.628 5.558h.123v.123c.092.829.706 1.627 1.597 2.118.86.492 1.873.645 2.732.737.246.031.492.031.707.062.706.061 1.473.123 2.18.307.767.184 1.842.614 2.517 1.504.492.645.737 1.413.737 2.242zM38.1 52.014c.338 1.32.952 2.487 1.75 3.408-.061.062-.153.092-.245.154-.83-.952-1.444-2.15-1.781-3.5-.369-1.505-.46-3.163-.246-5.067.03-.153.03-.276.061-.43a22.564 22.564 0 0 1 2.457-7.522c.123-.03.245-.062.338-.092-1.29 2.364-2.18 4.974-2.549 7.645-.03.123-.03.246-.03.338-.215 1.934-.123 3.592.245 5.066zm-10.9.246c-.184 1.596-.246 3.746.307 5.864.123.522.307 1.044.522 1.566a.92.92 0 0 1-.246.123 11.339 11.339 0 0 1-.583-1.72c-.553-2.149-.491-4.267-.307-5.895.184-1.443.491-2.886.89-4.268.154-.522.307-1.013.46-1.535.124-.153.277-.307.43-.43-.214.645-.398 1.29-.583 1.965a29.26 29.26 0 0 0-.89 4.33zm-3.992 22.475c-.552 2.395-.184 4.698 1.014 6.295.092.122.184.245.307.368.307.368.614.737.767 1.197.369 1.044-.123 2.15-.706 3.163-.491.86-1.075 1.934-.829 2.948.154.614.553 1.105.983 1.627.49.583.982 1.167 1.044 1.934.03.307 0 .614-.123.89-.062-.06-.154-.091-.246-.153.092-.245.123-.491.092-.706-.061-.675-.522-1.228-.982-1.78-.43-.523-.86-1.045-1.044-1.72-.277-1.136.368-2.242.86-3.132.552-.983 1.013-1.996.675-2.948-.154-.43-.43-.767-.706-1.136-.092-.123-.215-.245-.307-.368-1.229-1.658-1.628-4.022-1.075-6.51.46-2.118 1.505-4.053 2.518-5.925l.123-.246c.86-1.597 1.627-3.101 2.087-4.667a2.6 2.6 0 0 0 .123.522c-.491 1.412-1.197 2.794-1.965 4.268l-.123.245c-1.013 1.843-2.026 3.746-2.487 5.834zm12.16 17.87c-.247.307-.492.614-.676.921a3.976 3.976 0 0 0-.553 2.364l-.276.093a4.223 4.223 0 0 1 .583-2.58c.215-.337.46-.644.706-.951.584-.737 1.106-1.413 1.014-2.242-.062-.798-.707-1.382-1.351-1.965-.584-.522-1.167-1.044-1.413-1.75-.246-.676-.123-1.382-.03-2.088.06-.338.092-.675.122-.983.062-1.443-.583-2.701-1.29-4.083-.214-.43-.46-.86-.644-1.32.123.03.215.06.338.092l.552 1.105c.307.645.645 1.29.89 1.934.277.737.43 1.474.4 2.242 0 .338-.062.675-.123 1.013-.092.675-.215 1.32 0 1.934.215.645.798 1.167 1.32 1.658.676.614 1.351 1.229 1.443 2.15.154.952-.46 1.72-1.013 2.456zm9.057-.03c-.184.49-.43.982-.676 1.442a1.134 1.134 0 0 0-.153.338l-.369.184c.092-.214.215-.43.307-.614.246-.46.492-.951.676-1.443a8.01 8.01 0 0 0 .276-4.943c.092 0 .184-.03.277-.03.368 1.657.306 3.438-.338 5.065zM65.519 79.37c.123.798.522 1.473 1.013 2.088-.123 0-.245-.031-.368-.031-.46-.584-.799-1.26-.921-2.027-.185-1.166.215-2.302.614-3.377.123-.338.245-.676.337-1.013.676-2.18.553-4.453-.337-6.233-.983-1.996-2.948-3.347-4.974-3.44v-.276c2.149.093 4.175 1.505 5.22 3.593.92 1.842 1.043 4.206.337 6.448-.092.337-.246.675-.338 1.013-.368 1.044-.767 2.15-.583 3.255z" fill="#54413A"></path><path d="M64.567 42.495c.03 1.197-.768 2.364-1.904 2.763-.46.184-.982.215-1.474.123h-.061c-.675-.123-1.29-.43-1.689-.983-.368.921-1.259 1.628-2.241 1.873a1.74 1.74 0 0 1-.553.092h-.03c-1.198.123-2.426-.368-3.317-1.166-.736-.645-1.32-1.536-1.35-2.518-.185.276-.43.46-.737.583-.093.031-.154.062-.246.092a1.56 1.56 0 0 1-.522.093c-.584.06-1.167-.123-1.689-.338a4.712 4.712 0 0 1-1.688-1.198 3.091 3.091 0 0 1-.768-1.903c0-.553.153-1.106.491-1.536l.061-.061a.933.933 0 0 1 .246-.246c-.675-.89-.798-2.087-.276-3.04.553-.982 1.689-1.565 2.794-1.442.184.03.4.061.583.092.277-.706.89-1.382 1.566-1.75.553-.307 1.198-.461 1.812-.553.123-.03.276-.03.43-.03h.307c1.136-.032 2.272.214 3.224.828 1.044.645 1.78 1.781 1.842 3.01.092-.032.153-.062.245-.093.093-.03.185-.03.246-.061.46-.062.983 0 1.413.123a3.809 3.809 0 0 1 1.535.951c.491.492.86 1.075.982 1.75.123.645.031 1.382-.399 1.935.614.675 1.167 1.72 1.167 2.61z" fill="#241C19"></path><path d="M54.28 31.441a3.634 3.634 0 0 0-1.565 1.198c-.676.86-1.075 1.995-1.228 3.53l-.03.277c-.062.553-.093 1.136-.339 1.658-.092.215-.215.4-.337.583a4.622 4.622 0 0 0-.307.522c-.369.737-.369 1.72 0 2.672.184.46.399.89.675 1.32.03.03.03.061.062.092.03.03.03.061.06.092-.091.03-.153.062-.245.092-.03-.03-.061-.061-.061-.092-.03-.03-.062-.061-.062-.092a7.66 7.66 0 0 1-.675-1.32c-.369-1.044-.369-2.088.03-2.886.093-.185.216-.369.308-.522.122-.185.245-.369.307-.553.215-.491.276-1.044.338-1.597l.03-.276c.154-1.566.584-2.794 1.26-3.685.306-.399.675-.736 1.074-.982.122-.03.276-.03.43-.03h.276zm4.177 7.523c1.044 1.074 1.535 2.671 1.228 4.145-.246 1.197-1.013 2.272-2.027 2.917a3.356 3.356 0 0 1-.46.245c-.154.062-.276.123-.43.185l-.092-.093-.092-.061c.03-.03.092-.03.123-.061 1.32-.522 2.456-1.812 2.732-3.224.307-1.443-.184-3.01-1.259-3.992l-.123-.123.123-.092a3.964 3.964 0 0 0 1.474-2.61c.03-.337.03-.706-.03-1.044.092-.03.184-.03.245-.061.062.368.092.768.03 1.136a4.208 4.208 0 0 1-1.442 2.733z" fill="#54413A"></path><path d="M61.19 45.38c-.645-.091-1.29-.398-1.72-.89-.338.768-.983 1.382-1.75 1.72-.798.368-1.72.368-2.549.153a5.261 5.261 0 0 1-2.21-1.32c-.307-.307-.584-.645-.768-1.044a3.454 3.454 0 0 1-.307-.952 1.744 1.744 0 0 1-.553.369c-.092.03-.153.061-.245.092-.4.123-.799.153-1.198.092a3.973 3.973 0 0 1-1.167-.368 4.252 4.252 0 0 1-1.013-.614c-.645-.492-1.136-1.167-1.32-1.966-.184-.767 0-1.658.522-2.241a2.493 2.493 0 0 0-.43 2.21c.215.738.706 1.382 1.32 1.843.307.215.645.4 1.014.553.368.153.706.276 1.105.307.338.061.706.03 1.044-.062.03 0 .03 0 .061-.03.062-.031.123-.031.184-.093.277-.122.522-.307.676-.552l.215-.307v.399c.03.829.46 1.566 1.044 2.15.583.583 1.32 1.043 2.088 1.258.491.123.982.184 1.504.154.307-.031.645-.093.921-.215 0 0 .031 0 .031-.031.768-.307 1.413-.89 1.75-1.627l.03-.093.062.062c.369.583.983.921 1.658 1.044z" fill="#54413A"></path><path d="M57.229 70.067c.92.737 2.302.645 3.254 0 .983-.645 1.597-1.689 1.996-2.794a9.903 9.903 0 0 0 .522-4.728c-.123-1.106-.583-2.334-1.627-2.702-1.044-.4-2.18.245-3.01.982-1.166 1.013-2.057 2.303-2.67 3.746.43 1.78 1.105 3.685 1.535 5.496z" fill="#BA6C18"></path><path d="M57.29 65.83a6.198 6.198 0 0 1 .645-1.78c.153-.277.338-.553.522-.83.215-.245.43-.491.675-.706.246-.215.522-.4.83-.553.306-.153.613-.276.92-.337.308-.062.676-.123 1.014 0 .153.06.337.184.399.337a.47.47 0 0 1 0 .492.454.454 0 0 0-.123-.4.7.7 0 0 0-.368-.184c-.277-.03-.553.062-.83.154a4.162 4.162 0 0 0-1.504.89c-.46.369-.829.83-1.197 1.351-.338.491-.645 1.013-.983 1.566z" fill="#87380B"></path><path d="M59.47 62.575c.553-.061 1.167.307 1.474.83.338.521.399 1.166.307 1.75a3.13 3.13 0 0 1-.83 1.535c-.398.43-.89.737-1.411.92.399-.398.767-.767 1.074-1.197.307-.43.522-.89.614-1.381a2.567 2.567 0 0 0-.123-1.443 1.899 1.899 0 0 0-1.105-1.014z" fill="#87380B"></path><path d="M61.926 75.84a4.193 4.193 0 0 1-4.206-4.207c0-.276.03-.553.061-.798a.37.37 0 0 1 .46-.307.37.37 0 0 1 .308.46c-.031.215-.062.43-.062.645a3.42 3.42 0 0 0 3.408 3.408 3.42 3.42 0 0 0 3.409-3.408 3.42 3.42 0 0 0-3.409-3.408c-.306 0-.644.03-.951.123a.394.394 0 0 1-.492-.277.394.394 0 0 1 .277-.49c.368-.124.767-.154 1.166-.154a4.193 4.193 0 0 1 4.207 4.206 4.148 4.148 0 0 1-4.176 4.207z" fill="#fff"></path><path d="M137.95 97.24l-4.912 58.185H88.823l-.521-4.452-.031-.276-3.685-31.779s-3.346-12.466 5.22-20.603c.061-.061.123-.123.215-.184 1.228-1.136 2.702-2.18 4.452-3.101.921-.492 1.934-.921 3.04-1.32.092-.031.153-.062.245-.093 1.167-.399 2.395-.767 3.746-1.074.369-.093.707-.154 1.075-.215 0 0 10.225-4.483 20.664-3.07.092 0 .184.03.276.03 2.518.368 5.036 1.075 7.431 2.272.092.03.153.092.245.123 2.487 1.32 4.79 3.101 6.755 5.557z" fill="#FF500D"></path><path d="M101.351 91.407s-2.272.307-2.457 2.333c-.184 2.027-.153 6.816 4.575 7.461 4.729.614 17.84-6.847 18.116-12.097.276-5.25-6.141-1.013-6.141-1.013l-14.093 3.316z" fill="#FF6B4D"></path><path d="M98.004 96.596c-.184 1.842-1.198 3.439-2.61 4.022-.46.184-.952.276-1.474.276a4.269 4.269 0 0 1-2.302-.675c-.707-.43-1.32-1.106-1.812-1.904a1.34 1.34 0 0 1 .215-.184c.46.767 1.044 1.412 1.75 1.842 1.105.676 2.426.829 3.5.369 1.32-.553 2.272-2.058 2.426-3.808.092-.952 0-1.873-.184-2.825.092-.03.153-.061.245-.092.215 1.014.338 1.996.246 2.979zm-1.78 21.032c-.124 0-.246 0-.37-.031-1.934-.215-3.53-2.149-3.438-4.206.061-2.088 1.75-3.992 3.347-4.79.614-.307 1.381-.338 2.149-.031 1.075.399 2.119 1.382 2.548 2.395.707 1.658.307 3.746-1.013 5.158-.89.952-2.088 1.505-3.224 1.505zm.583-9.027c-.307 0-.615.061-.952.215-1.535.767-3.163 2.579-3.224 4.575-.062 1.934 1.412 3.746 3.224 3.93 1.167.123 2.456-.43 3.377-1.412 1.228-1.351 1.628-3.316.952-4.882-.4-.952-1.382-1.873-2.395-2.242a2.95 2.95 0 0 0-.982-.184zm34.45-16.857c-.246 1.167-.737 2.18-1.474 2.917-.798.799-1.904 1.26-2.948 1.26-.245 0-.491-.032-.737-.093-1.443-.338-2.671-1.658-3.009-3.285-.245-1.167-.061-2.303.246-3.255.092 0 .184.03.276.03-.307.922-.491 2.027-.245 3.163.337 1.535 1.474 2.764 2.825 3.07 1.166.246 2.517-.184 3.438-1.105.707-.706 1.198-1.72 1.413-2.855a.549.549 0 0 0 .215.153zm-8.536 13.142c-.89 0-1.75-.307-2.395-.891-.982-.89-1.382-2.425-1.013-3.807.368-1.351 1.504-2.671 2.763-3.193.891-.4 1.812-.369 2.579.061.768.43 1.413 1.198 1.72 2.18.583 1.72.061 3.685-1.228 4.759a3.755 3.755 0 0 1-2.426.891zm.614-7.891c-.368 0-.768.092-1.167.245-1.197.522-2.272 1.75-2.61 3.009-.337 1.29.031 2.702.922 3.531 1.166 1.075 3.193 1.075 4.482 0 1.229-1.013 1.689-2.855 1.167-4.482-.307-.89-.89-1.628-1.596-2.027a2.644 2.644 0 0 0-1.198-.276zm-7.922 19.712c-2.118 0-4.298-1.29-5.618-3.378-1.075-1.688-1.505-3.684-1.136-5.496.368-1.903 1.965-4.114 3.93-4.483 2.18-.399 4.882.891 6.325 2.273 1.781 1.75 2.579 4.329 1.996 6.601-.615 2.426-2.764 4.268-5.128 4.452-.123.031-.246.031-.369.031zm-1.995-13.142a6.43 6.43 0 0 0-.799.062c-1.842.338-3.346 2.425-3.715 4.268-.338 1.719.062 3.654 1.106 5.281 1.351 2.118 3.592 3.377 5.711 3.255 2.241-.154 4.329-1.935 4.882-4.238.552-2.18-.215-4.667-1.935-6.355-1.167-1.167-3.316-2.273-5.25-2.273zm-5.865 32.7c-1.873 0-3.715-.951-4.882-2.517-1.136-1.535-1.566-3.623-1.167-5.588.369-1.873 1.474-3.593 3.04-4.882 2.211-1.781 5.619-1.597 7.584.399 1.29 1.32 1.996 3.285 1.934 5.404-.061 1.842-.675 3.561-1.75 4.851-1.167 1.412-2.855 2.272-4.544 2.333h-.215zm-2.825-12.803c-1.535 1.228-2.579 2.917-2.947 4.728-.4 1.904.03 3.9 1.105 5.374 1.136 1.565 3.009 2.487 4.851 2.425 1.628-.061 3.255-.89 4.36-2.241 1.044-1.259 1.628-2.917 1.689-4.698.061-2.057-.614-3.961-1.873-5.22-1.842-1.903-5.097-2.057-7.185-.368zm-16.703 12.282c-.89 0-1.78-.154-2.64-.43-2.395-.829-4.207-2.856-4.667-5.159-.369-1.873.153-3.991 1.412-5.864.583-.86 1.35-1.689 2.272-2.518.123-.092.246-.215.368-.338.553-.522 1.167-1.074 1.874-1.258.86-.215 1.811.153 2.64.46.184.061.338.123.491.184 1.32.461 2.395.891 3.44 1.474 1.043.614 2.394 1.658 3.1 3.285.707 1.597.645 3.562-.184 5.251-.737 1.535-2.057 2.855-3.746 3.746a8.69 8.69 0 0 1-4.36 1.167zm-.86-15.322c-.153 0-.307.031-.46.062-.614.153-1.228.706-1.75 1.197-.123.123-.246.215-.369.338a13.654 13.654 0 0 0-2.241 2.456c-1.228 1.812-1.72 3.869-1.382 5.65.43 2.21 2.18 4.175 4.483 4.943 2.119.706 4.667.461 6.816-.675 1.628-.86 2.917-2.15 3.623-3.624.768-1.627.86-3.5.185-5.035-.676-1.535-1.996-2.548-3.01-3.163-.982-.583-2.056-1.013-3.377-1.473-.153-.062-.338-.123-.522-.185-.614-.215-1.35-.491-1.996-.491zm12.558 34.819c-.122-1.29-.89-2.518-2.087-3.408-.952-.707-2.18-1.198-3.716-1.474-2.057-.369-3.899-.277-5.465.307-.061.031-.092.031-.153.061l.03.277c.062-.031.154-.062.215-.093.921-.337 1.934-.491 3.04-.491.737 0 1.504.062 2.303.215 1.504.276 2.702.737 3.623 1.443 1.136.829 1.842 1.996 1.965 3.224v.184h.276c-.03-.092-.03-.184-.03-.245zm17.748-16.458l-.277-.03c.246-3.194 1.935-6.264 4.514-8.168 2.579-1.903 5.987-2.61 9.119-1.903l-.061.276c-3.071-.706-6.387 0-8.905 1.873-2.517 1.842-4.175 4.82-4.39 7.952z" fill="#FF866E"></path><path d="M104.513 117.167a32.76 32.76 0 0 0 5.742 6.602 33.534 33.534 0 0 0 3.47 2.671 42.615 42.615 0 0 0 3.807 2.211c-1.382-.461-2.733-1.106-4.022-1.842a21.515 21.515 0 0 1-3.593-2.61c-2.241-1.996-4.114-4.36-5.404-7.032zm.154 2.457c1.32 2.947 3.04 5.68 5.189 8.075a27.324 27.324 0 0 0 3.47 3.316 30.384 30.384 0 0 0 3.96 2.763 22.954 22.954 0 0 1-4.206-2.425c-1.32-.952-2.518-2.088-3.592-3.286-1.075-1.228-2.058-2.548-2.856-3.96a20.117 20.117 0 0 1-1.965-4.483zm-15.045-9.734c.061-.798.184-1.565.338-2.333.184-.768.399-1.535.644-2.272.277-.737.553-1.474.921-2.18.338-.706.737-1.382 1.198-2.027a63.796 63.796 0 0 1-.798 2.211c-.277.737-.553 1.443-.799 2.18-.276.737-.49 1.474-.767 2.211a30.85 30.85 0 0 1-.737 2.21z" fill="#9E3208"></path><path d="M68.62 97.148l7.461 11.76-12.404 4.728-.307-3.039 5.25-13.449z" fill="#F0DCB2"></path><path d="M65.396 97.394l3.224-.246s-.983 10.47-4.36 14.278c0 0 14.277-6.97 23.734-4.882l.983 3.193-26.16 5.957-1.75-.86v-.522s4.114-12.681 4.329-16.918z" fill="#F0EADD"></path><path d="M60.698 114.68s4.268-12.404 4.452-17.532h.4s0 3.439-4.483 17.717l-.369-.185zm35.71 30.244l-21.002 6.294-.277.092-12.281-36.63c.092-.03.184-.092.276-.123 20.818-9.211 26.006-5.373 26.006-5.373l7.277 35.74z" fill="#02909C"></path><path d="M75.099 151.28c-.062.031-.154.031-.246.061-.952.154-2.58-.061-2.58-.061l-11.575-36.6h2.119l12.282 36.6z" fill="#025E66"></path><path d="M75.375 151.188l-.276.092c-.062.031-.154.031-.246.061L62.571 114.68h.246c.092-.03.184-.092.276-.123l12.282 36.631z" fill="#fff"></path><path d="M85.249 137.807a8.72 8.72 0 1 0-8.018-15.489 8.72 8.72 0 0 0 8.018 15.489z" fill="#FFCA64"></path><path d="M77.094 128.466a.76.76 0 0 1-.767.768.76.76 0 0 1-.768-.768.76.76 0 0 1 .768-.767.76.76 0 0 1 .767.767zm7.37-1.903a.76.76 0 0 1-.768.768.76.76 0 0 1-.768-.768.76.76 0 0 1 .768-.768.76.76 0 0 1 .767.768zm-7.032 3.193c.522.614 1.105 1.167 1.78 1.505.676.337 1.413.491 2.12.307.706-.154 1.32-.614 1.719-1.229.368-.614.522-1.412.4-2.18-.032-.092.03-.153.122-.184.061 0 .153.031.184.092.369.799.338 1.781-.092 2.61-.4.829-1.228 1.443-2.119 1.658-.46.123-.92.123-1.381.031a4.136 4.136 0 0 1-1.26-.491 4.649 4.649 0 0 1-1.688-1.935c-.03-.092 0-.184.061-.215.031-.061.123-.03.154.031z" fill="#02909C"></path><path d="M102.64 144.771s1.873-3.286-.43-7.922c-2.302-4.637-8.842-6.878-8.842-6.878l.952 4.667c.122.676-.43 1.259-1.106 1.136-2.671-.46-5.22-1.781-7.83-2.518-.306-.092-.644-.153-.89.031-.184.154-.245.43-.215.645.062.246.184.43.338.645.737.921 1.78 1.535 2.855 1.995 1.075.461 2.211.799 3.286 1.29.184.061.368.184.399.369.03.245-.246.429-.491.491-.584.123-1.167-.062-1.72-.246-2.057-.675-4.114-1.382-6.202-2.057-.215-.061-.43-.154-.645-.123-.215 0-.46.123-.553.307-.122.246 0 .553.123.799a5.606 5.606 0 0 0 1.32 1.627c1.566 1.32 3.5 1.873 5.374 2.425.276.093.583.185.798.4.307.307.062.829-.368.829-2.088.092-4.115-.645-6.203-.829-.399-.031-.92 0-1.044.429a.69.69 0 0 0 .062.553c.43 1.106 1.504 1.781 2.579 2.211 1.044.399 2.15.645 3.163 1.105.245.123.49.246.675.461a.597.597 0 0 1-.246.921l-.92.338c0 .03 9.272 4.39 15.781-3.101z" fill="#FFCDA1"></path><path d="M146.455 139.305c0 .092-.03.184-.03.307-.492 5.742-1.873 10.992-4.79 14.646a.949.949 0 0 0-.154.215c-1.75 2.088-3.991 3.623-6.908 4.391-18.146 4.667-32.823-9.672-32.823-9.672s3.746-3.5 4.636-13.479c0 0 21.862 1.044 21.739.675-.123-.337.706-21.063.583-21.401-.122-.337 4.176-22.26 4.176-22.26s4.022 1.566 7.216 6.54c.061.061.092.153.153.246 1.29 2.057 2.426 4.697 3.101 8.013.154.768.338 1.658.522 2.61.031.092.031.184.062.276 1.351 7.032 3.316 18.73 2.517 28.893z" fill="#FF500D"></path><path d="M99.232 147.718s1.382 1.72 2.917 1.873c0 0 4.329-5.527 4.237-13.909l-4.667-.215s1.535 2.794-2.487 12.251z" fill="#FF6B4D"></path><path d="M146.456 139.305c0 .092-.031.184-.031.307a10.127 10.127 0 0 0-4.851 3.838c-1.628 2.395-2.119 5.527-1.382 8.321.184.706.614 1.812 1.412 2.487a.943.943 0 0 0-.153.215c-.891-.737-1.321-1.904-1.505-2.64-.767-2.856-.245-6.049 1.413-8.536 1.228-1.843 3.039-3.224 5.097-3.992zm-29.661 12.927c-.614 0-1.289-.123-1.965-.338-2.518-.86-5.189-3.439-5.128-6.571.031-.952.43-1.75 1.229-2.272 1.381-.952 3.5-.921 4.851-.43 1.811.676 3.347 2.211 4.206 4.207.369.921.737 2.241.215 3.408-.399.921-1.289 1.596-2.364 1.873a5.435 5.435 0 0 1-1.044.123zm-1.873-.614c1.013.337 2.027.429 2.886.214 1.014-.245 1.812-.89 2.18-1.719.461-1.075.154-2.333-.215-3.193-.829-1.935-2.302-3.439-4.053-4.053-1.289-.461-3.346-.491-4.636.399-.706.491-1.105 1.197-1.105 2.057-.031 2.978 2.518 5.496 4.943 6.295zm22.906-19.406c-.891 0-1.812-.184-2.61-.614-2.027-1.044-3.501-3.316-3.716-5.772-.184-2.149.43-5.772 2.426-6.724 2.119-.983 4.882-.645 6.694.829 1.78 1.443 2.794 3.807 2.732 6.356-.03 1.688-.583 3.223-1.504 4.237-.983 1.105-2.487 1.688-4.022 1.688zm-6.049-6.417c.215 2.395 1.627 4.575 3.592 5.558 2.119 1.074 4.821.645 6.325-1.014.891-.982 1.413-2.425 1.443-4.083.062-2.457-.921-4.759-2.64-6.141-1.75-1.412-4.391-1.75-6.417-.798-1.965.951-2.487 4.697-2.303 6.478zm12.128-15.444a6.176 6.176 0 0 1-1.658.246c-1.167 0-2.334-.338-3.285-.983-2.18-1.474-3.132-4.452-2.242-6.939a6.006 6.006 0 0 1 3.378-3.439c.061.061.092.154.153.246-1.474.583-2.733 1.781-3.285 3.316-.86 2.364.061 5.189 2.149 6.601 1.382.952 3.163 1.167 4.759.706 0 .062.031.154.031.246z" fill="#FF866E"></path><path d="M106.386 135.682c2.088-.031 4.176-.061 6.264-.031 2.088.031 4.176.062 6.264.123 2.087.062 4.175.154 6.263.277 2.088.122 4.176.245 6.264.46h-3.132l-3.132-.031c-2.088-.03-4.176-.092-6.263-.153-4.176-.123-8.352-.307-12.528-.645z" fill="#9E3208"></path><path d="M128.739 115.356c.061 1.75.061 3.5.061 5.25s-.03 3.501-.092 5.251c-.061 1.75-.123 3.5-.215 5.25s-.215 3.5-.368 5.251c-.062-1.751-.062-3.501-.062-5.251 0-1.75.031-3.5.093-5.25.061-1.75.122-3.501.215-5.251.092-1.75.214-3.5.368-5.25zm2.088 18.238c-.092.092-.123.246-.215.338a1.258 1.258 0 0 1-.215.338l-.461.645c-.184.214-.368.399-.552.583a3.79 3.79 0 0 1-.676.491c.092-.276.215-.522.338-.737.154-.215.307-.46.461-.645.184-.214.368-.399.583-.583.092-.092.215-.153.338-.246l.184-.092c.092-.061.153-.092.215-.092zm-28.371 16.55c.676.307 1.351.675 1.996 1.044.645.368 1.289.767 1.904 1.167.614.399 1.258.829 1.842 1.258.614.43 1.197.891 1.781 1.382a24.416 24.416 0 0 1-1.996-1.044 38.238 38.238 0 0 1-1.904-1.167 38.52 38.52 0 0 1-1.842-1.259 19.617 19.617 0 0 1-1.781-1.381zm26.713-49.833a9.589 9.589 0 0 1 1.105-1.781c.43-.553.89-1.075 1.382-1.566.522-.491 1.044-.952 1.627-1.351.583-.4 1.167-.768 1.842-1.044l-1.566 1.382c-.522.46-1.013.92-1.504 1.412-.491.46-.983.952-1.443 1.474l-1.443 1.474z" fill="#9E3208"></path><path d="M118.422 89.196c-.399-1.29-.798-2.58-1.228-3.869l-.123-.399c-1.719-5.22-3.623-10.409-5.772-15.475-3.961 5.097-8.167 10.654-11.698 16.028.276 1.412.829 3.653 1.228 5.127a6.29 6.29 0 0 1 .092 2.825c-.276 1.535-.553 3.96.307 4.606 1.259.951 7.768 2.671 16.365-7.738l.829-1.105z" fill="#FFCDA1"></path><path d="M109.825 74.95a24.068 24.068 0 0 1-3.408 9.855c-1.443 2.334-3.316 4.422-5.619 5.895a56.878 56.878 0 0 1-.952-3.93c.246-.092.491-.215.737-.337 2.917-1.413 5.251-3.87 6.97-6.633a21.225 21.225 0 0 0 2.272-4.85z" fill="#FFA880"></path><path d="M94.35 45.657c-4.083.983-8.014 3.07-10.746 6.264-2.733 3.193-4.207 7.584-3.5 11.729.399 2.364 1.473 4.667 1.197 7.031-.215 1.781-1.167 3.654-.338 5.25.645 1.26 2.088 1.781 3.439 2.18 1.382 3.44 3.47 6.97 6.786 8.598 2.917 1.412 6.478 1.167 9.426-.246 2.917-1.412 5.25-3.869 6.97-6.632 2.978-4.82 4.176-10.685 3.316-16.273-.86-5.588-3.746-10.839-8.014-14.554-2.487-2.15-5.373-4.084-8.536-3.347z" fill="#FFCDA1"></path><path d="M89.806 66.444c.184 1.32-.338 2.456-1.167 2.548-.798.093-1.596-.86-1.78-2.18-.185-1.32.337-2.456 1.166-2.548.798-.092 1.597.86 1.78 2.18z" fill="#132762"></path><path d="M84.433 59.382c.061-.154.184-.307.276-.46.123-.123.246-.246.368-.338.123-.092.277-.184.4-.277.153-.061.307-.123.43-.184a2.56 2.56 0 0 1 .46-.123l.491-.061c.307-.03.645-.03.952-.03.645.03 1.259.183 1.842.43.584.245 1.106.582 1.505 1.043a.148.148 0 0 1 0 .215c-.03.03-.061.03-.092.03-.584.031-1.136.062-1.628.123-.522.062-.982.154-1.443.277-.123.03-.215.061-.337.092-.123.03-.215.061-.338.092l-.338.123c-.092.03-.215.061-.338.092-.123.03-.215.061-.337.061-.123.031-.215.031-.369.031-.123 0-.245.03-.399 0-.123 0-.276 0-.43-.03l-.123-.031c-.43-.093-.706-.492-.614-.922 0-.03.03-.092.062-.153z" fill="#486EC2"></path><path d="M89.253 78.326c.491-.245.952-.49 1.382-.798.43-.307.798-.675 1.136-1.044a7.25 7.25 0 0 0 1.443-2.794c.061.553 0 1.106-.184 1.658a4.67 4.67 0 0 1-.83 1.474c-.368.43-.828.798-1.32 1.075-.552.215-1.074.399-1.627.43zm3.286.922c.122-.184.245-.338.337-.492l.338-.43.338-.399c.123-.153.245-.276.399-.43.061.216.03.43-.03.645-.062.215-.154.4-.308.553a1.562 1.562 0 0 1-.491.4c-.154.091-.368.183-.583.153zm-7.216-3.01c0-.183.061-.337.123-.49.061-.154.153-.277.245-.4.093-.123.215-.215.338-.307.123-.092.276-.184.46-.215 0 .184-.06.338-.122.492-.062.153-.154.276-.246.399a1.61 1.61 0 0 1-.337.307c-.154.092-.277.184-.461.215z" fill="#FF9666"></path><path opacity=".5" d="M79.55 56.65c.707.89 1.874 1.32 3.01 1.32 1.136 0 2.241-.4 3.193-.983.983-.583 1.811-1.32 2.671-2.088 1.535.277 2.64 1.535 3.408 2.886.799 1.351 1.29 2.856 2.088 4.207.799 1.35 2.058 2.548 3.623 2.733 1.106.122 2.242-.307 3.132-.983.891-.675 1.566-1.597 2.18-2.548-1.842-1.904-3.868-3.87-5.987-5.497-2.119-1.596-4.514-2.916-7.123-3.47-2.61-.552-5.435-.337-7.769.922-.706.368-1.381.86-1.842 1.505-.46.614-.675 1.197-.583 1.995z" fill="#FFA880"></path><path d="M116.426 53.241c-1.258-3.562-3.838-6.878-7.43-8.014-.553-3.868-3.961-7.154-7.86-7.614-2.334-.277-4.698.399-6.909 1.259-2.21.86-4.329 1.903-6.632 2.425-1.136.277-2.425.4-3.47-.184-.86-.46-1.473-1.382-2.456-1.597-.675-.153-1.412.123-1.934.584-.522.46-.89 1.074-1.228 1.688-1.382 2.764-1.812 5.926-1.351 8.966-.092-.46-.676-.706-1.136-.553-.46.154-.768.645-.83 1.136-.06.492.062.983.185 1.474 1.013 3.685 2.825 7.124 4.606 10.501h.03c-.337-2.303-.03-4.698.83-6.878 0 0 1.842 1.69 7.338-2.272 1.811-.092 3.592.768 4.605 2.242.276.399.491.86.676 1.32.184.4.337.829.491 1.259.154.46.338.89.553 1.32.614 1.29 1.811 2.487 3.224 2.395.43-.03.829-.184 1.228-.338.092-.03.215-.092.307-.123.03 0 .061-.03.092-.03.03-.03.092-.03.123-.062l.276-.092c.03 0 .03 0 .061-.03.093-.031.185-.062.308-.093h.061c.092-.03.184-.03.276-.06h.031c1.167-.124 2.211.613 2.948 1.534v.031c.03.061.092.123.122.184v.03c.093.154.185.277.277.43 1.197 1.935 1.443 4.36 1.013 6.602-.491 2.426-1.719 4.606-3.132 6.602-1.013 1.412-2.18 2.763-3.684 3.623-1.505.86-3.44 1.136-5.005.337-.43-.215-.799-.49-1.259-.614-.46-.122-1.013.031-1.198.46-.184.43.031.922-.06 1.352-.154.675-.984.983-1.628.798-.645-.184-1.136-.706-1.597-1.228-.46-.491-1.075-1.35-1.75-1.35 0 0 3.347 10.193 12.927 6.907 9.579-3.285 11.821-10.285 12.189-17.44.092-.122 2.487 3.87 3.347 6.203.215-.184.43-.369.614-.584.921-1.074 1.259-2.517 1.535-3.899a61.2 61.2 0 0 0 1.106-7.492c.429-3.654.429-7.553-.83-11.115z" fill="#6186D6"></path><path opacity=".35" d="M106.294 40.13c-2.18.492-4.36.921-6.54 1.32-4.606.86-9.242 1.597-13.909 2.15-.706.092-1.382.184-2.088.246-.153.03-.338.03-.491.061-.03 0-.062 0-.092.03-1.013.154-2.027.308-3.04.43-.89.093-1.75.123-2.58.031a15.235 15.235 0 0 0-.368 6.448c-.092-.46-.675-.706-1.136-.552-.46.153-.767.644-.829 1.136-.061.49.062.982.185 1.473.245.89.552 1.781.89 2.672.154.03.246.061.184.061.4.03.768.061 1.167.061.46 0 .89-.03 1.351-.061.215-.03.43-.03.645-.061h.03c1.075-.185 2.18-.338 3.255-.553 4.82-.952 9.58-2.518 14.063-4.514 4.114-1.811 7.86-4.175 11.79-6.294-.43-1.566-1.32-2.978-2.487-4.084z" fill="#6186D6"></path><path d="M78.292 48.943c.307.89.43 1.842.706 2.732.246.89.706 1.75 1.474 2.272.737.522 1.78.492 2.518 0 .736-.49 1.136-1.473.951-2.333 0-.061.031-.123.092-.154.062 0 .123.031.154.093.154.552.768.92 1.351.92.583.031 1.167-.306 1.535-.767.4-.491.584-1.075.676-1.689.092-.614.061-1.259.03-1.873.062.614.123 1.26.062 1.904-.062.645-.246 1.259-.645 1.78-.184.246-.43.492-.737.646-.276.153-.614.276-.952.245-.338 0-.675-.123-.952-.276-.276-.184-.522-.46-.614-.798l.246-.062c.215.983-.215 2.057-1.044 2.61-.829.553-1.996.553-2.794-.03-.4-.277-.706-.676-.952-1.075-.246-.43-.4-.86-.522-1.32-.246-.983-.338-1.904-.583-2.825zm21.155 1.228c.246.89.184 1.842.276 2.763.031.46.154.89.369 1.32.215.4.491.768.86.983a1.57 1.57 0 0 0 1.228.154c.399-.154.767-.43 1.013-.799.246-.368.399-.798.491-1.228.092-.43.123-.89.154-1.351 0-.061.061-.123.153-.123.062 0 .123.062.123.123.061.737.829 1.351 1.597 1.351.767 0 1.504-.522 1.873-1.197.399-.676.491-1.536.399-2.334-.092-.798-.338-1.597-.584-2.364.307.767.584 1.535.707 2.364.122.798.061 1.689-.338 2.426-.399.736-1.167 1.32-2.057 1.35-.43 0-.86-.153-1.198-.43a1.78 1.78 0 0 1-.645-1.135h.277c-.031.46-.062.92-.154 1.381-.092.46-.245.922-.552 1.32-.277.4-.676.707-1.136.891a1.722 1.722 0 0 1-1.444-.184c-.429-.276-.706-.676-.92-1.105-.216-.43-.308-.89-.338-1.382-.062-.952.03-1.904-.154-2.794zm12.65 6.724c.215.4.399.798.676 1.136.276.338.675.553 1.074.583.215 0 .399-.03.584-.122.153-.092.276-.277.368-.46.154-.37.123-.83.062-1.26 0-.061.03-.153.122-.153a.17.17 0 0 1 .154.092c.153.368.399.737.767.829.185.061.369 0 .492-.092.153-.123.245-.307.307-.492.123-.399.153-.829.153-1.228 0-.43-.061-.829-.153-1.259.153.4.245.83.276 1.26.031.214.031.43 0 .644 0 .215-.031.43-.092.645-.061.215-.153.43-.338.614-.184.153-.46.245-.706.184a1.375 1.375 0 0 1-.614-.368 2.208 2.208 0 0 1-.338-.584l.246-.061c.061.46.092.921-.092 1.382a1.07 1.07 0 0 1-.491.552c-.215.123-.461.154-.707.123-.491-.061-.89-.338-1.166-.706-.277-.4-.43-.83-.584-1.259z" fill="#3F65B5"></path><path d="M109.671 70.067c.922.737 2.303.645 3.255 0 .983-.645 1.597-1.689 1.996-2.794a9.898 9.898 0 0 0 .522-4.728c-.123-1.106-.584-2.334-1.627-2.702-1.044-.4-2.18.245-3.009.982-1.167 1.013-2.058 2.303-2.672 3.746.43 1.78 1.106 3.685 1.535 5.496z" fill="#FFCDA1"></path><path d="M109.733 65.523a6.203 6.203 0 0 1 .645-1.781c.153-.276.337-.553.522-.829.215-.246.43-.491.675-.706.246-.215.522-.4.829-.553.307-.153.614-.276.921-.338.307-.061.676-.122 1.014 0 .153.062.337.185.399.338a.472.472 0 0 1 0 .491.456.456 0 0 0-.123-.399.7.7 0 0 0-.369-.184c-.276-.03-.552.061-.829.154a4.168 4.168 0 0 0-1.504.89c-.461.368-.829.829-1.198 1.351-.337.491-.644 1.044-.982 1.566z" fill="#FF9666"></path><path d="M111.913 62.299c.553-.062 1.167.307 1.474.829.338.522.399 1.167.307 1.75a3.133 3.133 0 0 1-.829 1.535c-.399.43-.891.737-1.413.921.4-.399.768-.767 1.075-1.197.307-.43.522-.89.614-1.382a2.562 2.562 0 0 0-.123-1.443c-.215-.46-.583-.86-1.105-1.013z" fill="#FF9666"></path><path d="M183.024 97.271l-4.912 49.311-44.215-3.899-4.206-23.704s-4.421-16.488 9.887-23.857c1.965-1.013 4.298-1.873 7.031-2.457.368-.092.706-.153 1.075-.215 0-.06 23.181-10.193 35.34 4.821z" fill="#132762"></path><path d="M170.589 122.295c-.43 4.698.154 8.843 1.719 12.343l-.245.123c-1.597-3.531-2.18-7.737-1.75-12.466.368-4.206 1.473-8.259 2.64-12.404 1.658-5.773 3.408-11.33 6.724-15.905.062.061.154.123.215.184-3.285 4.544-5.066 10.071-6.693 15.813-1.136 4.114-2.242 8.136-2.61 12.312z" fill="#1C398F"></path><path d="M169.33 134.423l-.245.062c-4.391-14.431-2.365-30.643 5.403-43.57l.246.092c-7.768 12.896-9.795 29.016-5.404 43.416zm-16.058.154l-.276.03c-1.812-15.536 1.197-31.656 8.474-45.472.092 0 .215-.031.307-.031-7.308 13.847-10.347 29.967-8.505 45.473zm-5.865-1.044h-.276c-.553-14.83 2.211-29.814 8.045-43.447.092-.03.214-.061.307-.061-5.834 13.633-8.628 28.647-8.076 43.508zm-2.364-5.158h-.276a154.699 154.699 0 0 1 3.07-36.078c.062-.03.184-.061.307-.123a154.233 154.233 0 0 0-3.101 36.201zm-11.115 6.693l-.276.031c-1.627-13.172-.154-26.559 4.237-39.056.123-.092.246-.154.369-.215-4.483 12.527-5.957 26.007-4.33 39.24zm1.228-36.937c-1.811 4.084-3.07 8.751-3.838 14.124-.522 3.684-.767 7.43-.89 11.023l-.215-1.229c.153-3.408.368-6.601.829-9.856.706-5.158 1.904-9.641 3.592-13.632.185-.123.338-.277.522-.43z" fill="#1C398F"></path><path d="M163.343 111.027c.123-.369.246-.768.338-1.228 1.535-7.185 9.457-19.375 9.457-19.375s-2.549-1.535-6.111-1.382c0 0-9.456 12.651-9.917 20.235-3.746-.154-8.474-.369-12.159-.522 0-.215-.031-.461-.061-.707-.43-4.237.675-10.715 1.688-15.444-2.732.614-5.066 1.443-7.031 2.456-1.136 4.852-2.088 10.87-1.013 14.677-2.702 9.918-1.689 43.416-1.474 43.6 10.839 10.133 42.833-4.759 42.833-4.759v-17.379c-17.809 9.181-17.041-14.093-16.55-20.172z" fill="#F0EADD"></path><path d="M141.359 109.522c.89 0 1.627-.737 1.627-1.627 0-.891-.737-1.628-1.627-1.628-.891 0-1.628.737-1.628 1.628.031.89.737 1.627 1.628 1.627zm0-2.702c.583 0 1.074.491 1.074 1.075 0 .583-.491 1.074-1.074 1.074a1.087 1.087 0 0 1-1.075-1.074c0-.584.491-1.075 1.075-1.075zm18.729 3.746c.891 0 1.628-.737 1.628-1.627 0-.891-.737-1.628-1.628-1.628-.89 0-1.627.737-1.627 1.628 0 .89.737 1.627 1.627 1.627zm0-2.702c.584 0 1.075.491 1.075 1.075 0 .583-.491 1.074-1.075 1.074a1.087 1.087 0 0 1-1.074-1.074c0-.584.46-1.075 1.074-1.075z" fill="#132762"></path><path d="M140.96 113.821c.429.276.982.43 1.565.43.492 0 .983-.123 1.382-.461.768-.583 1.013-1.597 1.198-2.548l.46-2.457c-.184 0-.368 0-.553-.03l-.061.307c-1.197-5.343-1.105-10.962.246-16.09-.215.062-.399.093-.584.154-1.412 5.496-1.381 11.576.092 17.225l-.153.768c-.154.921-.369 1.75-.983 2.241-.706.522-1.719.369-2.364-.031-.798-.46-1.32-1.258-1.75-1.995a17.652 17.652 0 0 1-.952-1.843c.031.093.031.185.062.246-.062.215-.123.461-.185.737.185.399.4.768.614 1.136.461.798 1.075 1.658 1.966 2.211zm34.02 20.694a9.977 9.977 0 0 1-6.571-1.074c-2.886-1.566-5.127-4.729-6.171-8.69-.921-3.5-.891-7.154-.829-10.715.061 0 .122-.031.184-.062.706-.245 1.228-1.074 1.689-1.873.03-.43.061-.798.092-1.105.123-.307.215-.645.276-1.013-.153-3.255.614-6.817 2.303-10.378 1.658-3.531 3.991-6.725 6.264-9.672-.154-.062-.338-.123-.522-.215-2.242 2.947-4.545 6.11-6.203 9.641-1.903 4.053-2.671 8.106-2.241 11.76-.092.123-.154.276-.246.43-.43.767-.952 1.688-1.535 1.903-.89.307-1.996-.03-2.763-.829-.645-.675-1.075-1.596-1.321-2.886a14.736 14.736 0 0 1-.153-1.136c-.031.215-.031.399-.062.614-.153 0-.276 0-.429-.031l.092.645c.276 1.382.737 2.395 1.443 3.132.675.706 1.596 1.105 2.487 1.105h.123c-.062 3.562-.062 7.247.859 10.778 1.075 4.083 3.409 7.369 6.418 9.027a10.45 10.45 0 0 0 5.066 1.289c.614 0 1.228-.061 1.842-.153.092-.031.215-.031.307-.062v15.537c.184-.062.369-.154.522-.215v-15.445a10.752 10.752 0 0 0 3.992-2.057v-.706a9.953 9.953 0 0 1-4.913 2.456zm-35.218-4.083c0 5.189 4.237 9.426 9.426 9.426s9.426-4.237 9.426-9.426V116.86h-18.821v13.572h-.031zm9.395 8.873c-4.882 0-8.873-3.991-8.873-8.873v-10.317h17.747v10.317c0 4.882-3.961 8.873-8.874 8.873zm8.874-21.923v2.18h-17.747v-2.18h17.747z" fill="#132762"></path><path d="M113.694 97.271l7.461 11.791-12.404 4.697-.307-3.039 5.25-13.449z" fill="#F0DCB2"></path><path d="M110.47 97.517l3.224-.246s-.983 10.47-4.36 14.278c0 0 14.277-6.97 23.734-4.882l.983 3.193-26.16 5.957-1.75-.86v-.522c.03.031 4.145-12.681 4.329-16.918z" fill="#F0EADD"></path><path d="M105.803 114.803s4.268-12.404 4.452-17.532h.399s0 3.439-4.483 17.716l-.368-.184zm35.678 30.244l-21.001 6.294-.277.092-12.281-36.63c.092-.03.184-.092.276-.123 20.817-9.211 26.006-5.373 26.006-5.373l7.277 35.74z" fill="#02909C"></path><path d="M120.203 151.433c-.061.031-.153.031-.245.062-.952.153-2.58-.062-2.58-.062l-11.575-36.63h2.119l12.281 36.63z" fill="#025E66"></path><path d="M120.48 151.341l-.277.092c-.061.031-.153.031-.245.062l-12.282-36.661h.246c.092-.031.184-.092.276-.123l12.282 36.63z" fill="#fff"></path><path d="M133.521 135.099a8.72 8.72 0 1 0-14.421-9.807 8.72 8.72 0 0 0 14.421 9.807z" fill="#FFCA64"></path><path d="M122.169 128.589a.76.76 0 0 1-.768.768.76.76 0 0 1-.768-.768.76.76 0 0 1 .768-.767.78.78 0 0 1 .768.767zm7.399-1.903a.76.76 0 0 1-.767.767.76.76 0 0 1-.768-.767.76.76 0 0 1 .768-.768.76.76 0 0 1 .767.768zm-7.031 3.193c.522.614 1.105 1.167 1.781 1.504.675.338 1.412.492 2.118.308.706-.154 1.321-.615 1.72-1.229.368-.614.522-1.412.399-2.18-.031-.092.031-.153.123-.184.061 0 .153.031.184.092.368.799.338 1.781-.092 2.61-.399.829-1.228 1.443-2.119 1.658-.46.123-.921.123-1.382.031a4.132 4.132 0 0 1-1.258-.491 4.644 4.644 0 0 1-1.689-1.935c-.031-.092 0-.184.061-.215.031-.03.092-.03.154.031z" fill="#02909C"></path><path d="M147.684 144.771s1.872-3.286-.43-7.922c-2.303-4.636-8.843-6.878-8.843-6.878l.952 4.667c.122.676-.43 1.259-1.106 1.136-2.671-.46-5.219-1.781-7.829-2.517-.307-.093-.645-.154-.891.03-.184.154-.245.43-.215.645.062.246.185.43.338.645.737.921 1.781 1.535 2.856 1.996 1.074.46 2.21.798 3.285 1.289.184.062.368.184.399.369.031.245-.246.43-.491.491-.584.123-1.167-.061-1.72-.246-2.057-.675-4.114-1.381-6.202-2.057-.215-.061-.43-.153-.645-.123-.215 0-.46.123-.552.307-.123.246 0 .553.123.799a5.589 5.589 0 0 0 1.32 1.627c1.566 1.32 3.5 1.873 5.373 2.426.276.092.583.184.798.399.307.307.062.829-.368.829-2.088.092-4.114-.645-6.202-.829-.4-.031-.921 0-1.044.43a.686.686 0 0 0 .061.552c.43 1.106 1.505 1.781 2.579 2.211 1.044.399 2.15.645 3.163 1.105.245.123.491.246.675.461a.597.597 0 0 1-.245.921l-.921.338c.03.03 9.303 4.391 15.782-3.101z" fill="#FFAB9C"></path><path d="M155.636 136.419l-9.764-.829-2.057 11.422 11.145 5.005c.031 0 1.505-12.466.676-15.598z" fill="#FFAB9C"></path><path d="M153.916 141.055c-.829 1.628-1.688 3.255-2.487 4.913a26.47 26.47 0 0 1-2.057 3.531l5.281 2.364.369-.276c.245-2.119 1.259-11.514.706-14.769-.553 1.259-1.167 2.979-1.812 4.237zm-9.272 6.325s4.237-3.5 3.254-9.671c0 0 2.119 5.526-2.609 9.948l-.645-.277z" fill="#D16552"></path><path d="M148.942 152.324s-1.166-1.075 0-3.009l3.531 1.596s-.706 1.904-3.531 1.413z" fill="#0F1E4D"></path><path d="M177.927 92.696s8.106 3.193 10.47 14.769c2.334 11.575 9.365 46.67-8.781 51.368-18.146 4.667-30.704-6.509-30.704-6.509s6.632.184 5.987-15.966c0 0 18.392.368 18.269.03-.123-.337.706-21.063.583-21.401-.092-.245 7.277-8.842 8.536-15.352.676-3.408-4.36-6.939-4.36-6.939z" fill="#132762"></path><path d="M188.182 134.73c-.368 5.251-1.412 12.804-6.478 17.563-3.163 2.979-7.768 4.606-12.743 4.606-1.074 0-2.149-.062-3.224-.215-4.421-.614-8.873-2.334-14.246-5.558.061-.061.123-.122.215-.184 5.311 3.163 9.702 4.851 14.062 5.466 6.08.859 11.975-.768 15.721-4.299 5.005-4.698 6.049-12.19 6.417-17.379.86-12.404-1.32-23.918-6.141-33.068.031-.123.092-.246.123-.338 4.913 9.211 7.154 20.848 6.294 33.406z" fill="#1C398F"></path><path d="M182.625 132.704c-.522 4.084-1.535 9.211-4.851 12.773-2.58 2.763-6.571 4.513-10.962 4.728-.368.031-.767.031-1.136.031-3.255 0-6.786-.737-10.746-2.211-.369-.153-.799-.307-1.198-.522.031-.092.062-.184.092-.245.399.215.829.368 1.198.522 4.39 1.658 8.259 2.364 11.79 2.18 4.329-.246 8.229-1.935 10.777-4.667 3.255-3.501 4.268-8.598 4.79-12.651a79.196 79.196 0 0 0 .277-17.47c-.246-2.457-.614-5.374-1.658-8.106a25.304 25.304 0 0 0-.799-1.842c.062-.093.092-.185.154-.307.338.644.645 1.32.921 2.026 1.044 2.794 1.412 5.711 1.658 8.198a81.87 81.87 0 0 1-.307 17.563z" fill="#1C398F"></path><path d="M176.975 133.195c-1.074 3.807-3.224 6.878-6.018 8.659-2.364 1.504-5.373 2.241-9.15 2.241-.522 0-1.044 0-1.566-.031-1.658-.092-3.653-.276-5.496-1.013 0-.092.031-.184.031-.276 1.842.737 3.838.921 5.496 1.013 4.483.215 7.953-.491 10.562-2.149 2.764-1.75 4.852-4.759 5.926-8.475 1.044-3.684.983-7.584.799-10.562-.185-3.04-.614-6.693-2.18-9.764.061-.092.122-.153.184-.245 1.627 3.162 2.088 6.877 2.272 10.009.154 2.948.215 6.878-.86 10.593z" fill="#1C398F"></path><path d="M133.161 80.445c2.087 3.132 4.421 6.141 7.369 8.475 2.947 2.333 6.632 1.412 10.378 1.596 4.298.215 8.443-1.474 12.558-2.825 4.114-1.32 8.658-2.303 12.65-.706-6.141-9.242-16.335-13.295-27.327-14.922-4.145-.614-8.536-.553-12.251 1.382-1.259.644-2.456 1.535-3.193 2.732-.768 1.228-.983 3.07-.184 4.268z" fill="#FFA857"></path><path d="M130.059 44.43c-3.101 3.192-5.434 7.276-6.447 11.605-.461 1.935-.645 3.992-.215 5.926.429 1.965 1.565 3.808 3.285 4.79a28.911 28.911 0 0 1 2.548-14.185c.737-1.658 1.658-3.255 2.211-4.974.184-.584.338-1.229.215-1.843-.123-.614-.983-1.228-1.597-1.32z" fill="#FFCA64"></path><path d="M152.903 79.831c-1.719 2.763-4.053 5.22-6.97 6.632-2.916 1.413-6.509 1.658-9.426.246-3.347-1.627-5.404-5.128-6.816-8.597-1.351-.4-2.794-.921-3.439-2.18-.798-1.597.154-3.47.368-5.25.277-2.365-.798-4.668-1.197-7.032-.522-3.04.123-6.172 1.597-8.904a16.156 16.156 0 0 1 1.842-2.702.424.424 0 0 0 .092-.123c2.733-3.193 6.632-5.281 10.746-6.264 3.163-.767 6.049 1.198 8.506 3.316 4.267 3.715 7.154 8.966 8.013 14.554.86 5.619-.337 11.514-3.316 16.304z" fill="#FFAB9C"></path><path opacity=".19" d="M150.815 74.95c-2.517-.738-4.697-2.334-6.448-4.269-1.75-1.934-2.916-4.145-4.022-6.51-3.224.37-6.509-.859-8.965-2.977-1.966-1.72-3.409-3.961-4.36-6.418a16.155 16.155 0 0 1 1.842-2.702c2.456.492 4.759 1.69 6.755 3.255 2.026 1.566 3.776 3.5 5.404 5.465 3.684 4.36 6.97 9.15 9.794 14.155z" fill="#D16552"></path><path d="M144.92 85.511c.553 2.825 1.259 5.62 2.18 8.352 2.856 1.32 5.988 1.443 9.027.645 3.04-.799 5.803-2.702 7.646-5.281-2.058-6.663-4.422-13.326-7.155-19.743-3.93 5.097-8.136 10.623-11.698 16.027z" fill="#FFAB9C"></path><path d="M155.175 74.98a24.054 24.054 0 0 1-3.408 9.856c-1.443 2.334-3.316 4.421-5.619 5.895a56.416 56.416 0 0 1-.951-3.93c.245-.092.491-.215.736-.338 2.917-1.412 5.251-3.868 6.97-6.632a21.182 21.182 0 0 0 2.272-4.851z" fill="#D16552"></path><path d="M187.507 74.704c0 .092-.031.184-.031.307-.03.49-.092.951-.153 1.443a121.458 121.458 0 0 1-6.54 4.728c-.123.061-.215.154-.338.215.399.03.829.061 1.228.092.584.062 1.167.123 1.75.215.799.092 1.566.215 2.365.246.184 0 .337.03.491.03 0 .062-.031.154-.031.215-.276 1.413-.553 2.825-1.013 4.176a3.885 3.885 0 0 0-.092.307 8.723 8.723 0 0 1-.676 1.443 8.075 8.075 0 0 1-2.272 2.61c-.061.062-.153.092-.245.154a5.403 5.403 0 0 1-2.457.89c-1.934.184-3.838-.798-5.373-1.996-1.535-1.197-2.886-2.671-4.544-3.715-3.224-2.057-7.246-2.303-10.87-3.592-4.237-1.535-7.86-4.483-10.807-7.922-2.027-2.364-3.777-5.005-5.435-7.645-.553-.89-1.044-1.996-1.72-2.825-.46-.553-1.074-.522-1.75-.737-1.719-.522-3.377-1.382-4.882-2.395-3.009-2.057-5.404-5.005-6.724-8.413-.737-1.904-.368-3.96.645-5.711.031-.061.092-.154.123-.215 0 0 0-.03.03-.03.185-.308.43-.615.645-.922.062-.092.123-.153.184-.215 1.044-1.228 2.395-2.21 3.869-2.947a16.361 16.361 0 0 1 4.759-1.566c.123-.03.246-.03.369-.062 2.702-.399 5.527-.184 8.136.584.154.03.307.092.43.123.215.061.43.153.645.215 3.93 1.381 7.4 3.93 10.163 7.061 3.163 3.593 5.619 8.076 9.795 10.379 2.702 1.504 5.895 1.934 8.996 1.75 3.101-.184 6.325-.89 9.304-1.658-2.549 2.425-5.834 3.9-9.304 4.452-.092.061-.153.123-.245.184 3.592.4 7.369.46 10.93-.154.277 1.597.461 3.225.584 4.852v.276c.245 1.965.215 3.869.061 5.773z" fill="#FFCA64"></path><path d="M155.022 70.098c.921.737 2.303.645 3.255 0 .982-.645 1.596-1.689 1.995-2.794a9.898 9.898 0 0 0 .522-4.729c-.122-1.105-.583-2.333-1.627-2.702-1.044-.399-2.18.246-3.009.983-1.167 1.013-2.057 2.303-2.671 3.746.43 1.78 1.105 3.684 1.535 5.496z" fill="#FFAB9C"></path><path d="M155.022 66.29a6.203 6.203 0 0 1 .645-1.78c.153-.277.338-.553.522-.83.215-.245.43-.49.675-.706.246-.214.522-.399.829-.552.307-.154.614-.276.921-.338.307-.061.676-.123 1.014 0 .153.061.337.184.399.338a.472.472 0 0 1 0 .491.456.456 0 0 0-.123-.399.7.7 0 0 0-.368-.184c-.277-.031-.553.061-.83.153a4.168 4.168 0 0 0-1.504.89c-.461.37-.829.83-1.197 1.352-.338.49-.645 1.044-.983 1.566z" fill="#D16552"></path><path d="M157.202 63.067c.553-.062 1.167.307 1.474.829.338.522.399 1.166.307 1.75a3.133 3.133 0 0 1-.829 1.535c-.399.43-.891.737-1.413.921.4-.399.768-.767 1.075-1.197.307-.43.522-.89.614-1.382a2.562 2.562 0 0 0-.123-1.443 1.899 1.899 0 0 0-1.105-1.013z" fill="#D16552"></path><path d="M157.908 69.361c0 .553-.46 1.013-1.013 1.013-.553 0-1.013-.46-1.013-1.013 0-.553.46-1.013 1.013-1.013.553 0 1.013.46 1.013 1.013z" fill="#F0EADD"></path><path d="M182.164 90.7c-.061.062-.153.093-.245.154-1.013-2.856-3.746-4.974-6.233-6.08-1.996-.89-4.145-1.412-6.233-1.934-1.351-.338-2.763-.675-4.084-1.136-5.527-1.811-10.838-5.404-15.812-10.654-4.453-4.698-8.076-10.102-11.576-15.322-1.412-2.088-2.855-4.237-4.698-5.956-1.197-1.106-2.978-2.426-5.189-2.948.031-.061.092-.154.123-.215 0 0 0-.03.031-.03 2.21.552 4.022 1.872 5.219 3.008 1.873 1.75 3.347 3.93 4.729 6.018 3.5 5.22 7.123 10.624 11.545 15.291 4.943 5.22 10.224 8.782 15.72 10.593 1.321.43 2.733.798 4.084 1.136 2.088.522 4.268 1.075 6.264 1.965 3.193 1.382 5.434 3.593 6.355 6.11z" fill="#FFE3AD"></path><path d="M185.235 86.371a3.868 3.868 0 0 0-.092.307c-1.842-2.395-4.851-4.33-8.628-5.527-2.027-.644-4.145-1.074-6.172-1.474-2.487-.521-5.066-1.043-7.522-1.934-9.15-3.377-15.444-11.637-19.927-18.422a20.06 20.06 0 0 1-.86-1.351c-1.658-2.549-3.347-5.159-5.465-7.4-1.72-1.812-4.33-3.992-7.646-4.913.062-.092.123-.153.185-.215 3.316.952 5.925 3.132 7.645 4.944 2.119 2.241 3.838 4.882 5.496 7.43.276.46.583.89.86 1.351 4.452 6.786 10.716 14.984 19.804 18.33 2.426.891 4.974 1.413 7.461 1.935 2.057.43 4.176.86 6.202 1.474 3.777 1.166 6.786 3.1 8.659 5.465z" fill="#FFE3AD"></path><path d="M186.31 81.98c0 .062-.031.154-.031.215-.215 0-.43.031-.614.031-.277 0-.522 0-.768-.03-1.074-.093-2.149-.37-3.193-.707-.307-.092-.614-.215-.921-.307-.706-.246-1.382-.553-2.057-.829l-.522-.215c-4.606-1.873-9.365-3.47-14.155-4.698l-.276-.061c-2.733-.706-5.589-1.443-7.462-3.531-1.627-1.78-2.18-4.237-2.701-6.601-.093-.369-.154-.737-.246-1.106-2.242-9.303-7.86-17.655-15.598-23.243.123-.03.246-.03.369-.061 7.676 5.619 13.264 13.97 15.475 23.243.092.368.184.737.245 1.105.522 2.334 1.075 4.729 2.641 6.479 1.842 2.026 4.636 2.733 7.338 3.439l.276.061a105.637 105.637 0 0 1 14.216 4.728l.522.215c.737.308 1.474.615 2.242.89.798.277 1.596.523 2.395.707.491.092.952.184 1.443.215.276.03.583.03.921.03.123.031.276.031.461.031z" fill="#FFE3AD"></path><path d="M187.507 74.704c0 .092-.031.184-.031.306-1.473.553-3.101.83-4.759.83-1.596 0-3.254-.277-4.851-.799-3.838-1.29-7.523-4.084-10.931-8.29-.153-.184-.307-.4-.491-.614-.031 0-.031-.03-.061-.03v-.031c-1.659-2.119-3.132-4.36-4.575-6.571-.891-1.351-1.812-2.764-2.764-4.145a76.941 76.941 0 0 0-12.404-13.817c.215.061.43.153.644.215a78.96 78.96 0 0 1 11.975 13.417 120.566 120.566 0 0 1 2.763 4.146c1.444 2.21 2.917 4.452 4.575 6.57 3.562 1.996 7.676 2.764 11.637 3.286 2.487.337 5.128.614 7.646 0a11.506 11.506 0 0 0 1.658-.522v.276c-.522.215-1.044.368-1.597.522-1.105.276-2.241.368-3.377.368-1.474 0-2.948-.184-4.36-.368-3.777-.491-7.707-1.228-11.177-3.04.031.031.062.062.092.123 3.378 4.145 7.001 6.909 10.808 8.198 3.286 1.136 6.725 1.075 9.58-.03z" fill="#FFE3AD"></path><path opacity=".25" d="M148.052 47.131c-3.777.983-7.308 1.904-10.562 3.593-2.979 1.535-5.65 3.377-7.983 5.588a18.581 18.581 0 0 0 4.667 4.636 19.2 19.2 0 0 0 3.193 1.78 18.486 18.486 0 0 0 3.408-2.363c3.101-2.61 5.895-5.589 8.628-8.598 1.75-1.903 3.408-3.868 5.189-5.741-.276-.215-.553-.46-.829-.676a72.46 72.46 0 0 1-5.711 1.781z" fill="#FFCA64"></path><path d="M135.095 67.212c.184 1.32-.338 2.456-1.167 2.548-.798.092-1.596-.86-1.781-2.18-.184-1.32.338-2.456 1.167-2.548.798-.092 1.597.86 1.781 2.18z" fill="#132762"></path><path d="M129.722 60.18c.061-.153.184-.307.276-.46.123-.123.246-.246.368-.338.123-.092.277-.184.4-.276.153-.062.307-.123.429-.184.154-.062.307-.093.461-.123l.491-.062c.307-.03.645-.03.952-.03a5.38 5.38 0 0 1 1.842.43c.584.245 1.106.583 1.505 1.043a.15.15 0 0 1 0 .215c-.031.031-.062.031-.092.031a23.64 23.64 0 0 0-1.628.123c-.522.061-.982.153-1.443.276-.122.03-.215.061-.337.092-.123.031-.215.062-.338.092l-.369.093c-.092.03-.215.06-.337.092-.123.03-.215.061-.338.061-.123.03-.215.03-.369.03-.122 0-.245.031-.399 0-.123 0-.276 0-.43-.03l-.122-.03c-.43-.093-.707-.492-.614-.922.03-.03.061-.092.092-.123z" fill="#FFA857"></path><path d="M134.542 79.094c.492-.245.952-.491 1.382-.798.43-.307.798-.676 1.136-1.044a7.262 7.262 0 0 0 1.443-2.794c.061.553 0 1.105-.184 1.658a4.675 4.675 0 0 1-.829 1.474c-.369.43-.829.798-1.32 1.074-.553.215-1.106.4-1.628.43zm3.286.921c.122-.184.245-.337.337-.49l.338-.43.338-.4c.123-.153.246-.276.399-.43.061.215.031.43-.031.645a1.22 1.22 0 0 1-.307.553 1.566 1.566 0 0 1-.491.399c-.154.092-.368.184-.583.153zm-7.216-3.009c0-.184.061-.338.123-.491a1.7 1.7 0 0 1 .246-.4c.092-.122.214-.214.337-.306.123-.092.277-.184.461-.215 0 .184-.062.338-.123.491-.061.154-.154.277-.246.4-.092.122-.215.214-.337.306-.154.093-.277.185-.461.215z" fill="#D16552"></path><path d="M130.305 75.379c-.061-.215.031-.46.153-.645.123-.184.338-.368.553-.46.246-.093.522-.123.768-.031.245.061.491.215.645.399.184.184.307.4.368.675.061.246.061.523 0 .737a1.37 1.37 0 0 1-.921.952c.245-.338.368-.706.368-1.044 0-.337-.123-.614-.307-.829-.215-.215-.491-.337-.767-.307a.992.992 0 0 0-.86.553z" fill="#FFCA64"></path><path d="M16.423 118.641h-.154c-.03 0-.092 0-.153-.03-.061-.031-.123-.031-.184-.092a.375.375 0 0 1-.154-.154c-.061-.061-.123-.215-.184-.461-.061-.184-.123-.429-.215-.706 0-.061-.03-.153-.061-.276h-.031a.194.194 0 0 1-.184 0 .243.243 0 0 1-.123-.123.195.195 0 0 1 0-.184.239.239 0 0 1 .123-.123l.092-.031c-.031-.153-.092-.307-.123-.491 0-.061 0-.123.03-.184a.168.168 0 0 1 .154-.092c.062 0 .123 0 .184.03a.17.17 0 0 1 .093.154l.092.43.153-.062a.2.2 0 0 1 .184 0 .243.243 0 0 1 .123.123c.03.062.03.123 0 .184a.235.235 0 0 1-.123.123l-.184.062c.03.153.061.245.092.307.062.276.154.522.185.675.06.184.092.277.122.307.031.031.031.031.031.062l.03.03h.369c.062 0 .123.031.154.062.03.061.061.092.061.153 0 .062-.03.123-.061.154-.062.031-.092.061-.185.061-.061.092-.092.092-.153.092zm2.58-.767a.17.17 0 0 1-.154.092c-.062.031-.123 0-.185-.031-.061-.031-.092-.092-.122-.153 0 0-.031-.154-.093-.43a4.465 4.465 0 0 0-.184-.706c-.123-.369-.338-.522-.583-.461a.717.717 0 0 0-.307.154c-.062.061-.123.184-.184.337 0 0 0 .031-.031.062.215.644.338 1.074.4 1.32.03.061 0 .123-.032.184-.03.062-.092.092-.153.123-.062.031-.123 0-.184-.031-.062-.03-.092-.092-.123-.153a44.61 44.61 0 0 0-.43-1.382c-.184-.583-.338-1.075-.4-1.412 0-.062 0-.123.032-.185a.17.17 0 0 1 .153-.092c.061 0 .123 0 .184.031a.17.17 0 0 1 .092.154c.031.092.092.399.277.951a.842.842 0 0 1 .583-.491c.522-.092.89.154 1.105.768.062.184.092.307.123.46.03.123.062.277.092.43.031.154.062.246.062.277.123.092.092.153.061.184zm1.166-.369a1.033 1.033 0 0 1-.46-.184 1.17 1.17 0 0 1-.277-.276c-.061-.092-.123-.184-.154-.277a3.145 3.145 0 0 1-.092-.368c0-.123 0-.276.031-.399a.95.95 0 0 1 .184-.399c.092-.123.184-.246.338-.338.153-.092.307-.154.491-.184.184-.031.338-.031.491.03a.958.958 0 0 1 .4.185.513.513 0 0 1 .184.184c.03.061.061.092.092.123.03.03.061.061.061.092.031.031.031.061.062.092.03.031.03.061.061.092.03.061.03.123 0 .154 0 .061-.03.092-.061.153-.03.031-.062.031-.123.062l-.768.245c-.552.154-.798.246-.798.246.092.153.184.245.338.276.153.062.338.062.552 0 .123-.031.215-.061.277-.092.092-.061.123-.092.184-.123l.123-.123c.061-.03.123-.061.184-.03.061 0 .123.03.154.092.03.061.061.092.03.153a.17.17 0 0 1-.092.154l-.123.123a.66.66 0 0 1-.214.122 1.147 1.147 0 0 1-.43.154c-.246.061-.461.092-.645.061zm.86-1.627a.726.726 0 0 0-.215-.215.786.786 0 0 0-.522-.123.846.846 0 0 0-.46.246.752.752 0 0 0-.185.491c.215-.061.645-.184 1.382-.399zm3.285 1.504a.752.752 0 0 1-.491-.184c-.062-.03-.093-.092-.154-.153-.061-.062-.061-.123-.061-.185 0-.061.061-.122.092-.153.061-.031.123-.031.184-.031s.123.062.154.092c0 .031.03.062.061.092.03.031.061.062.123.093.153 0 .307 0 .46-.062a.887.887 0 0 0 .307-.184c.062-.092.092-.154.092-.246 0-.122-.03-.276-.06-.491-.093.154-.247.276-.462.369-.184.061-.368.092-.552.061-.184-.031-.338-.061-.46-.184a1.603 1.603 0 0 1-.308-.338c-.092-.123-.153-.307-.184-.522-.061-.338 0-.645.154-.89.215-.277.49-.43.89-.492.154 0 .276.031.368.062-.03-.123 0-.215.123-.277a.2.2 0 0 1 .184 0 .243.243 0 0 1 .123.123c.123.369.277.798.43 1.32.092.308.154.553.184.768.062.307.062.553-.03.737-.092.184-.154.307-.277.368a2.271 2.271 0 0 1-.399.215 1.16 1.16 0 0 1-.491.092zm.368-1.627c.154-.092.215-.276.185-.522a2.293 2.293 0 0 0-.154-.491.568.568 0 0 0-.246-.215c-.061-.031-.153-.031-.245-.031-.246.031-.43.123-.522.277-.092.122-.123.307-.092.491.061.245.153.43.307.553a.677.677 0 0 0 .552.061.493.493 0 0 0 .215-.123zm1.689-.184a1.42 1.42 0 0 1-.553-.645 1.9 1.9 0 0 1-.122-.706c.03-.307.153-.553.337-.768.031-.03.092-.092.154-.122 0 0 .03 0 .061-.031 0 0 .03 0 .03-.031.032-.031.093-.031.155-.031 0 0 .03 0 .092-.03.03 0 .061-.031.092-.031h.276c.03 0 .092 0 .123.031.03 0 .092.03.123.03a.87.87 0 0 1 .552.43c.154.215.215.399.215.553.031.184 0 .338-.03.491a1.45 1.45 0 0 1-.185.461c-.092.153-.215.245-.337.338-.338.245-.676.245-.983.061zm1.013-.737c.062-.153.092-.276.062-.43 0-.123-.062-.276-.154-.43-.092-.153-.215-.215-.338-.276-.03 0-.061-.031-.092-.031h-.153c-.03 0-.062 0-.092.031-.062 0-.092.031-.154.031h-.03c-.031 0-.062.03-.062.03l-.03.031a.723.723 0 0 0-.216.43c-.03.184 0 .338.093.491.092.184.215.338.337.399.154.093.338.062.522 0 .154-.03.246-.153.307-.276zm1.536.031a1.425 1.425 0 0 1-.553-.645 1.905 1.905 0 0 1-.123-.706c.03-.307.154-.553.338-.768a.67.67 0 0 1 .153-.123s.031 0 .062-.03c0 0 .03 0 .03-.031.031-.031.093-.031.154-.031 0 0 .03 0 .092-.03.03 0 .062-.031.092-.031h.277c.03 0 .092 0 .122.031.031 0 .093.03.123.03.246.092.43.215.553.43.153.215.215.399.215.553.03.184 0 .338-.03.491a1.45 1.45 0 0 1-.185.461c-.092.153-.215.245-.338.337-.338.246-.675.246-.982.062zm1.013-.768c.061-.153.092-.276.061-.43 0-.122-.061-.276-.153-.43-.092-.153-.215-.214-.338-.276-.03 0-.061-.031-.092-.031h-.154c-.03 0-.061 0-.092.031-.061 0-.092.031-.153.031h-.031c-.03 0-.061.031-.061.031l-.031.03a.723.723 0 0 0-.215.43c-.03.184 0 .338.092.491.092.185.215.338.338.4.153.092.338.061.522 0 .153-.031.245-.123.307-.277zm2.978-.123a.237.237 0 0 1-.123-.122 1.254 1.254 0 0 1-.368.307 1.204 1.204 0 0 1-.553.122.928.928 0 0 1-.491-.153 1.36 1.36 0 0 1-.553-.798c-.092-.338-.061-.645.092-.922.185-.337.461-.552.89-.583h.339l-.215-.706c-.031-.062 0-.123.03-.184.031-.062.062-.093.154-.123.061-.031.123 0 .184.03a.243.243 0 0 1 .123.123c.4 1.351.675 2.272.829 2.764.03.061 0 .123-.03.184-.032.061-.093.092-.154.123-.062-.031-.123-.031-.154-.062zm-.522-.368l.123-.123c.03-.031.03-.061.03-.061s.031-.031.031-.062c0-.03.031-.061.031-.092-.123-.368-.184-.675-.276-.921a1.418 1.418 0 0 1-.246-.123h-.215c-.245.031-.43.123-.522.338a.764.764 0 0 0-.061.583c.061.246.184.43.368.553.184.123.369.123.584.031.03-.031.092-.062.153-.123zm-11.453 7.522a.168.168 0 0 1-.092-.153c-.03-.123-.061-.246-.092-.338-.03-.092-.061-.215-.092-.338a3.956 3.956 0 0 0-.092-.307c-.03-.092-.061-.184-.092-.307a1.409 1.409 0 0 0-.092-.276 1.609 1.609 0 0 1-.092-.338 1.304 1.304 0 0 1-.092-.307.902.902 0 0 0-.092-.276c-.031-.154-.062-.246-.093-.277-.03-.061 0-.122.031-.184.03-.061.062-.092.154-.123.092-.03.122 0 .184.031.061.031.092.062.123.154.122.399.184.644.215.737.03-.031.061-.093.122-.123.185-.123.369-.215.522-.215.185 0 .338.031.522.123.154.061.277.184.4.307.122.122.215.276.276.368.153.369.184.706.061 1.013a.791.791 0 0 1-.337.43c-.154.123-.338.184-.553.215-.154.031-.307 0-.46-.031 0 .062-.031.093-.062.123-.03.031-.062.062-.123.062-.061.092-.123.061-.154.03zm1.26-.951a.89.89 0 0 0-.062-.676.9.9 0 0 0-.43-.46c-.184-.093-.368-.062-.553.061-.03 0-.03.031-.06.031 0 0-.032.03-.032.061l-.03.061c0 .031-.031.062-.031.093-.03.03-.03.061-.062.092.093.307.185.614.246.921.154.123.307.153.522.153.246-.03.4-.123.491-.337zm1.412-.031a1.425 1.425 0 0 1-.553-.645 1.903 1.903 0 0 1-.123-.706c.031-.307.154-.553.338-.768.03-.03.092-.061.154-.123 0 0 .03 0 .061-.03 0 0 .03 0 .03-.031.032-.031.093-.031.154-.031 0 0 .031 0 .092-.03.031 0 .062-.031.093-.031h.276c.03 0 .092 0 .123.031.03 0 .092.03.122.03a.87.87 0 0 1 .553.43c.154.215.215.399.215.553.03.184 0 .338-.03.491a1.45 1.45 0 0 1-.185.461c-.092.153-.215.245-.338.338-.307.245-.675.276-.982.061zm1.044-.737c.061-.154.092-.276.061-.43 0-.123-.061-.276-.153-.43-.092-.153-.215-.215-.338-.276-.03 0-.062-.031-.092-.031h-.154c-.03 0-.061 0-.092.031-.061 0-.092.031-.153.031H23.7c-.03 0-.061.03-.061.03l-.031.031a.722.722 0 0 0-.215.43c-.03.184 0 .338.092.491.092.184.215.338.338.399.153.092.337.062.522 0 .153-.03.245-.122.307-.276zm1.535.031a1.425 1.425 0 0 1-.553-.645 1.906 1.906 0 0 1-.122-.706c.03-.307.153-.553.337-.768a.67.67 0 0 1 .154-.123s.03 0 .061-.031c0 0 .03 0 .03-.03.032-.031.093-.031.154-.031 0 0 .031 0 .092-.031.031 0 .062-.03.093-.03h.276c.03 0 .092 0 .123.03.03 0 .092.031.123.031.245.092.43.215.552.43.154.215.215.399.215.553.03.184 0 .337-.03.491-.031.153-.093.307-.185.46-.092.154-.215.246-.338.338-.337.246-.675.246-.982.062zm1.013-.737c.062-.154.092-.277.062-.43 0-.123-.062-.276-.154-.43-.092-.154-.215-.215-.338-.276-.03 0-.061-.031-.092-.031h-.153c-.031 0-.062 0-.092.031-.062 0-.093.03-.154.03h-.03c-.031 0-.062.031-.062.031l-.03.031a.72.72 0 0 0-.216.43c-.03.184 0 .337.092.491.093.184.215.338.338.399.154.092.338.061.522 0a.547.547 0 0 0 .307-.276zm1.75-.983l-.184.277v.03l.184.737c0 .062 0 .123-.03.184a.169.169 0 0 1-.154.093c-.061 0-.123 0-.184-.031a.17.17 0 0 1-.092-.154c-.154-.706-.4-1.627-.737-2.794-.03-.061 0-.123.03-.184.031-.061.093-.092.154-.123.062-.031.123 0 .184.031.062.031.093.092.123.153.154.584.307 1.075.4 1.474.337-.491.552-.829.675-1.044a.243.243 0 0 1 .123-.123.2.2 0 0 1 .184 0 .243.243 0 0 1 .123.123c.03.062.03.123 0 .184-.123.185-.277.43-.491.768.276.276.644.553 1.074.86.061.03.092.092.092.153 0 .062 0 .123-.03.185a.17.17 0 0 1-.154.092c-.061 0-.123 0-.184-.031-.46-.307-.83-.583-1.106-.86zm39.885.983h-.153c-.031 0-.093 0-.154-.031s-.123-.031-.184-.092a.37.37 0 0 1-.154-.154c-.061-.061-.123-.215-.184-.46-.061-.184-.123-.43-.215-.706 0-.062-.03-.154-.061-.277h-.031a.194.194 0 0 1-.184 0 .235.235 0 0 1-.123-.123.195.195 0 0 1 0-.184.243.243 0 0 1 .123-.123l.092-.03c-.03-.154-.092-.307-.123-.492 0-.061 0-.122.03-.184a.17.17 0 0 1 .154-.092c.062 0 .123 0 .184.031a.169.169 0 0 1 .093.153l.092.43.153-.061a.194.194 0 0 1 .184 0 .239.239 0 0 1 .123.123c.031.061.031.122 0 .184a.243.243 0 0 1-.123.123l-.184.061c.03.154.062.246.092.307.062.276.154.522.185.676.061.184.092.276.122.307.031.03.031.03.031.061s.03.031.03.031h.369c.062 0 .123.03.154.061.03.062.061.092.061.154 0 .061-.03.123-.061.153-.03.031-.092.062-.184.062-.062.061-.093.092-.154.092zm2.58-.768a.168.168 0 0 1-.154.092c-.062.031-.123 0-.184-.03-.062-.031-.093-.093-.123-.154 0 0-.031-.153-.092-.43a4.465 4.465 0 0 0-.185-.706c-.123-.368-.337-.522-.583-.461a.728.728 0 0 0-.307.154c-.062.061-.123.184-.184.338 0 0 0 .03-.031.061.215.645.338 1.075.4 1.32.03.062 0 .123-.031.185-.031.061-.093.092-.154.122-.062.031-.123 0-.184-.03-.062-.031-.092-.092-.123-.154a44.61 44.61 0 0 0-.43-1.382c-.184-.583-.338-1.074-.4-1.412 0-.061 0-.123.032-.184a.168.168 0 0 1 .153-.092c.062 0 .123 0 .184.03a.17.17 0 0 1 .092.154c.031.092.093.399.246.952a.837.837 0 0 1 .584-.491c.521-.093.89.153 1.105.767.061.184.092.307.123.461.03.123.061.276.092.43.03.153.061.245.061.276.154.092.123.153.092.184zm1.166-.368a1.044 1.044 0 0 1-.46-.184 1.191 1.191 0 0 1-.277-.277c-.061-.092-.123-.184-.153-.276a3.169 3.169 0 0 1-.093-.369c0-.122 0-.276.031-.399a.955.955 0 0 1 .184-.399 1.75 1.75 0 0 1 .338-.338c.154-.092.307-.153.491-.184.185-.031.338-.031.492.031a.957.957 0 0 1 .399.184.521.521 0 0 1 .184.184c.03.031.061.092.092.123.03.031.062.062.062.092.03.031.03.062.06.092.032.031.032.062.062.092.031.062.031.123 0 .154 0 .061-.03.092-.061.153-.03.031-.061.031-.123.062l-.767.246c-.553.153-.799.245-.799.245.092.154.184.246.338.277.153.061.338.061.553 0 .122-.031.215-.062.276-.093.092-.061.123-.092.184-.122l.123-.123c.061-.031.123-.062.184-.031a.17.17 0 0 1 .154.092c.03.062.061.092.03.154 0 .061-.03.123-.092.153l-.122.123a.659.659 0 0 1-.215.123 1.149 1.149 0 0 1-.43.153c-.246.062-.46.092-.645.062zm.86-1.628a.774.774 0 0 0-.737-.337.844.844 0 0 0-.46.245.754.754 0 0 0-.185.492c.215-.062.645-.185 1.382-.4zm3.285 1.505a.757.757 0 0 1-.491-.184c-.062-.031-.092-.092-.154-.154-.061-.061-.061-.123-.061-.184 0-.062.061-.123.092-.154.061-.03.123-.03.184-.03.062 0 .123.061.154.092 0 .03.03.061.061.092.03.031.062.061.123.092.153 0 .307 0 .46-.061a.886.886 0 0 0 .308-.185c.06-.092.092-.153.092-.245 0-.123-.031-.277-.062-.492-.092.154-.245.277-.46.369-.185.061-.369.092-.553.061a1.032 1.032 0 0 1-.46-.184c-.123-.092-.216-.215-.308-.338-.092-.122-.153-.307-.184-.522-.061-.337 0-.644.154-.89.215-.276.49-.43.89-.491.154 0 .276.03.368.061-.03-.123 0-.215.123-.276a.194.194 0 0 1 .185 0c.061.03.092.061.122.123.123.368.277.798.43 1.32.092.307.154.553.184.767.062.308.062.553-.03.737-.062.185-.154.307-.277.369a2.411 2.411 0 0 1-.399.215 1.176 1.176 0 0 1-.491.092zm.368-1.627c.154-.093.215-.277.185-.522-.031-.185-.092-.338-.154-.492a.574.574 0 0 0-.246-.215c-.06-.03-.153-.03-.245-.03-.246.03-.43.122-.522.276-.092.123-.123.307-.092.491.061.246.153.43.307.553a.673.673 0 0 0 .552.061.491.491 0 0 0 .215-.122zm1.69-.185a1.417 1.417 0 0 1-.553-.644 1.908 1.908 0 0 1-.123-.707c.03-.307.153-.552.337-.767a.67.67 0 0 1 .154-.123s.03 0 .061-.031c0 0 .031 0 .031-.03.03-.031.092-.031.154-.031 0 0 .03 0 .092-.031.03 0 .061-.031.092-.031h.276c.03 0 .092 0 .123.031.03 0 .092.031.123.031.245.061.43.215.552.43.154.215.215.399.215.552.031.185 0 .338-.03.492-.031.153-.092.307-.185.46-.092.154-.215.246-.337.338-.338.246-.676.246-.983.061zm1.012-.737c.062-.153.092-.276.062-.429 0-.123-.062-.277-.154-.43-.092-.154-.215-.215-.337-.277-.031 0-.062-.03-.093-.03h-.153c-.03 0-.061 0-.092.03-.062 0-.092.031-.154.031h-.03c-.031 0-.062.031-.062.031l-.03.031a.717.717 0 0 0-.216.429c-.03.185 0 .338.093.492.092.184.215.337.337.399.154.092.338.061.522 0 .154-.031.246-.154.307-.277zm1.536.031a1.415 1.415 0 0 1-.553-.645 1.9 1.9 0 0 1-.123-.706c.031-.307.154-.552.338-.767a.644.644 0 0 1 .153-.123s.031 0 .062-.031c0 0 .03 0 .03-.031.031-.03.093-.03.154-.03 0 0 .03 0 .092-.031.031 0 .062-.031.092-.031h.277c.03 0 .092 0 .123.031.03 0 .092.031.122.031.246.092.43.215.553.43.123.214.215.399.215.552.03.184 0 .338-.03.491-.031.154-.093.308-.185.461-.092.154-.215.246-.338.338-.337.245-.675.245-.982.061zm1.013-.767c.061-.154.092-.277.061-.43 0-.123-.061-.277-.153-.43-.092-.154-.215-.215-.338-.276-.03 0-.061-.031-.092-.031h-.153c-.031 0-.062 0-.093.031-.061 0-.092.03-.153.03h-.03c-.032 0-.062.031-.062.031l-.031.031a.717.717 0 0 0-.215.429c-.03.185 0 .338.092.492.092.184.215.338.338.399.153.092.338.061.522 0 .154-.031.246-.123.307-.276zm2.978-.123a.243.243 0 0 1-.122-.123 1.223 1.223 0 0 1-.369.307 1.206 1.206 0 0 1-.553.123.93.93 0 0 1-.49-.154 1.358 1.358 0 0 1-.554-.798c-.092-.338-.061-.645.093-.921.184-.338.46-.553.89-.584h.338l-.215-.706c-.03-.061 0-.123.03-.184.031-.061.093-.092.154-.123s.123 0 .184.031a.239.239 0 0 1 .123.123c.4 1.351.675 2.272.829 2.763.03.062 0 .123-.03.184-.031.062-.093.092-.154.123-.062-.031-.123-.031-.154-.061zm-.522-.369l.123-.123c.03-.03.03-.061.03-.061 0-.031.032-.031.032-.061 0-.031.03-.062.03-.092a8.7 8.7 0 0 0-.276-.922c-.154-.061-.246-.122-.246-.122h-.215c-.245.03-.43.122-.522.337a.767.767 0 0 0-.061.584c.061.245.184.43.368.552.185.123.369.123.584.031.03-.031.092-.061.153-.123zM73.35 121.19a.17.17 0 0 1-.093-.154 4.96 4.96 0 0 0-.092-.337 5.168 5.168 0 0 1-.092-.338 3.827 3.827 0 0 0-.092-.307c-.03-.092-.061-.184-.092-.307a1.447 1.447 0 0 0-.092-.277 1.621 1.621 0 0 1-.092-.337 1.33 1.33 0 0 1-.092-.307.905.905 0 0 0-.092-.277c-.031-.153-.062-.245-.093-.276-.03-.062 0-.123.031-.184.03-.062.062-.092.154-.123.061-.031.123 0 .184.031.061.03.092.061.123.122.123.4.184.645.215.768.03-.031.061-.092.123-.123.184-.123.368-.215.521-.215.185 0 .338.031.522.123.154.061.277.184.4.307.122.123.215.276.276.369.153.368.184.706.061 1.013a.795.795 0 0 1-.337.43 1.114 1.114 0 0 1-.553.215c-.154.03-.307 0-.46-.031 0 .061-.031.092-.062.123-.03.03-.061.061-.123.061-.061.061-.123.061-.153.031zm1.258-.952a.891.891 0 0 0-.06-.676.904.904 0 0 0-.43-.46c-.185-.092-.37-.062-.553.061-.031 0-.031.031-.062.031 0 0-.03.031-.03.061l-.031.062c0 .031-.031.061-.031.092-.03.031-.03.061-.061.092.092.307.184.614.245.921.154.123.307.154.522.154a.595.595 0 0 0 .492-.338zm1.413-.031a1.417 1.417 0 0 1-.553-.644 1.908 1.908 0 0 1-.123-.707c.031-.307.154-.552.338-.767a.668.668 0 0 1 .154-.123s.03 0 .061-.031c0 0 .03 0 .03-.031.032-.03.093-.03.154-.03 0 0 .031 0 .093-.031.03 0 .06-.031.092-.031h.276c.03 0 .092 0 .123.031.03 0 .092.031.123.031.245.092.43.215.552.43.154.215.215.399.215.552.03.185 0 .338-.03.492-.031.153-.093.307-.185.46-.092.154-.215.246-.338.338-.337.246-.675.276-.982.061zm1.044-.737c.061-.153.092-.276.061-.429 0-.123-.061-.277-.153-.43-.092-.154-.215-.215-.338-.277-.03 0-.061-.03-.092-.03h-.154c-.03 0-.061 0-.092.03-.061 0-.092.031-.153.031h-.03c-.032 0-.062.031-.062.031l-.031.03a.723.723 0 0 0-.215.43c-.03.185 0 .338.092.492.092.184.215.337.338.399.153.092.338.061.522 0 .153-.031.245-.123.307-.277zm1.535.031a1.42 1.42 0 0 1-.553-.645 1.9 1.9 0 0 1-.122-.706c.03-.307.153-.553.337-.768.031-.03.092-.061.154-.122 0 0 .03 0 .061-.031 0 0 .031 0 .031-.031.03-.031.092-.031.153-.031 0 0 .031 0 .093-.03.03 0 .061-.031.092-.031h.276c.03 0 .092 0 .123.031.03 0 .092.03.123.03a.87.87 0 0 1 .552.43c.154.215.215.4.215.553.031.184 0 .338-.03.491a1.45 1.45 0 0 1-.185.461c-.092.153-.215.245-.337.338-.338.245-.676.245-.983.061zm1.013-.768c.062-.153.092-.276.062-.429 0-.123-.062-.277-.154-.43-.092-.154-.215-.215-.337-.277-.031 0-.062-.03-.093-.03h-.153c-.03 0-.062 0-.092.03-.062 0-.092.031-.154.031h-.03c-.031 0-.062.031-.062.031l-.03.03a.723.723 0 0 0-.216.43c-.03.185 0 .338.093.492.092.184.215.337.337.399.154.092.338.061.522 0 .154-.031.246-.123.307-.277zm1.75-.951l-.184.276v.031l.184.737c0 .061 0 .122-.03.184a.17.17 0 0 1-.154.092c-.061 0-.123 0-.184-.031a.169.169 0 0 1-.092-.153c-.154-.707-.4-1.628-.737-2.794-.03-.062 0-.123.03-.185.032-.061.093-.092.154-.122.062-.031.123 0 .184.03.062.031.093.092.123.154.154.583.307 1.074.4 1.474.337-.492.552-.829.675-1.044a.239.239 0 0 1 .123-.123.194.194 0 0 1 .184 0 .239.239 0 0 1 .123.123c.03.061.03.122 0 .184-.123.184-.276.43-.491.767.276.277.644.553 1.074.86a.17.17 0 0 1 .092.154c0 .061 0 .123-.03.184a.17.17 0 0 1-.154.092c-.061 0-.123 0-.184-.031-.46-.307-.83-.583-1.106-.859zm32.578 1.043h-.154c-.031 0-.092 0-.154-.03-.061 0-.122-.031-.184-.062a.364.364 0 0 1-.153-.153c-.062-.062-.123-.215-.184-.461-.062-.184-.123-.43-.215-.706 0-.061-.031-.153-.062-.276h-.031a.2.2 0 0 1-.184 0 .246.246 0 0 1-.123-.123.2.2 0 0 1 0-.184.242.242 0 0 1 .123-.123l.092-.031c-.03-.153-.092-.307-.122-.491 0-.062 0-.123.03-.184a.168.168 0 0 1 .154-.092c.061 0 .123 0 .184.03a.17.17 0 0 1 .092.154l.092.43.154-.062a.2.2 0 0 1 .184 0 .246.246 0 0 1 .123.123.2.2 0 0 1 0 .184.242.242 0 0 1-.123.123l-.184.062c.03.153.061.245.092.307.061.276.153.522.184.675.061.184.092.276.123.307.031.031.031.031.031.061l.03.031h.369c.061 0 .123.031.153.062.031.061.062.092.062.153a.234.234 0 0 1-.062.154c-.061.03-.092.061-.184.061-.061.061-.092.061-.153.061zm2.579-.736a.17.17 0 0 1-.154.092c-.061.03-.123 0-.184-.031s-.092-.092-.123-.154c0 0-.031-.153-.092-.429a4.517 4.517 0 0 0-.184-.707c-.123-.368-.338-.522-.584-.46a.736.736 0 0 0-.307.153c-.061.062-.122.185-.184.338 0 0 0 .031-.031.062.215.644.338 1.074.4 1.32.03.061 0 .123-.031.184s-.092.092-.154.123c-.061.031-.122 0-.184-.031-.061-.031-.092-.092-.123-.153-.03-.123-.184-.614-.429-1.382-.185-.583-.338-1.075-.4-1.412 0-.062 0-.123.031-.185a.17.17 0 0 1 .154-.092c.061 0 .122 0 .184.031a.17.17 0 0 1 .092.153c.031.093.092.4.276.952a.84.84 0 0 1 .584-.491c.522-.092.89.154 1.105.768.061.184.092.307.123.46.031.154.061.276.092.43.031.154.061.246.061.276.092.062.092.123.062.185zm1.166-.4a1.032 1.032 0 0 1-.46-.184 1.158 1.158 0 0 1-.276-.276 1.234 1.234 0 0 1-.154-.276 3.225 3.225 0 0 1-.092-.369c0-.123 0-.276.031-.399a.942.942 0 0 1 .184-.399c.092-.123.184-.246.338-.338a1.36 1.36 0 0 1 .491-.184c.184-.031.338-.031.491.031.154.03.276.092.399.184a.515.515 0 0 1 .184.184c.031.031.062.092.093.123.03.031.061.061.061.092.031.031.031.061.061.092.031.031.031.061.062.092.031.062.031.123 0 .154 0 .061-.031.092-.062.153-.03.031-.061.031-.122.062l-.799.245c-.552.154-.798.246-.798.246.092.153.184.245.338.276.153.062.337.062.552 0 .123-.031.215-.061.277-.092.092-.061.123-.092.184-.123l.123-.123c.061-.03.123-.061.184-.03a.17.17 0 0 1 .154.092c.03.061.061.092.03.153-.03.062-.03.123-.092.154l-.123.123a.671.671 0 0 1-.215.123 1.162 1.162 0 0 1-.429.153c-.246.092-.43.092-.615.061zm.829-1.627a.72.72 0 0 0-.214-.215.787.787 0 0 0-.522-.123.845.845 0 0 0-.461.246.752.752 0 0 0-.184.491c.215-.03.675-.184 1.381-.399zm3.317 1.505a.754.754 0 0 1-.492-.185c-.061-.03-.092-.092-.153-.153-.062-.061-.062-.123-.062-.184 0-.062.062-.123.092-.154.031-.031.123-.031.185-.031.061 0 .122.062.153.093 0 .03.031.061.062.092.03.03.061.061.122.092.154 0 .307 0 .461-.062a.872.872 0 0 0 .307-.184c.061-.092.092-.153.092-.245 0-.123-.031-.277-.061-.492-.092.154-.246.277-.461.369-.184.061-.368.092-.553.061a1.044 1.044 0 0 1-.46-.184 1.595 1.595 0 0 1-.307-.338c-.092-.123-.154-.307-.184-.522-.062-.338 0-.645.153-.89.215-.277.491-.43.891-.492.153 0 .276.031.368.062-.031-.123 0-.215.123-.276a.194.194 0 0 1 .184 0 .24.24 0 0 1 .123.122c.123.369.276.799.43 1.321.092.307.153.552.184.767.061.307.061.553-.031.737-.061.184-.153.307-.276.369-.123.061-.246.153-.399.215-.154.092-.338.122-.491.092zm.337-1.597c.154-.092.215-.276.184-.522-.03-.184-.092-.338-.153-.491a.565.565 0 0 0-.246-.215c-.061-.031-.153-.031-.245-.031-.246.031-.43.123-.522.277-.092.122-.123.307-.092.491.061.245.153.43.307.552a.67.67 0 0 0 .552.062c.092-.062.185-.092.215-.123zm1.689-.184a1.425 1.425 0 0 1-.553-.645 1.909 1.909 0 0 1-.123-.706c.031-.307.154-.553.338-.768.031-.03.092-.092.154-.123 0 0 .03 0 .061-.03 0 0 .031 0 .031-.031.03-.031.092-.031.153-.031 0 0 .031 0 .092-.03.031 0 .062-.031.093-.031h.276c.031 0 .092 0 .123.031.03 0 .092.03.123.03.245.092.429.215.552.43.154.215.215.399.215.553.031.184 0 .338-.031.491-.03.154-.092.307-.184.461-.092.153-.215.245-.338.337-.337.215-.675.246-.982.062zm1.013-.768c.062-.153.092-.276.062-.43 0-.122-.062-.276-.154-.43-.092-.153-.215-.214-.338-.276-.03 0-.061-.031-.092-.031h-.153c-.031 0-.062 0-.092.031-.062 0-.093.031-.154.031h-.031c-.03 0-.061.031-.061.031l-.031.03a.723.723 0 0 0-.215.43c-.03.184 0 .338.092.491.092.185.215.338.338.4.154.092.338.061.522 0 .154-.031.246-.123.307-.277zm1.535.031a1.429 1.429 0 0 1-.552-.645 1.905 1.905 0 0 1-.123-.706c.031-.307.154-.553.338-.768.03-.03.092-.061.153-.123 0 0 .031 0 .062-.03 0 0 .03 0 .03-.031.031-.031.092-.031.154-.031 0 0 .031 0 .092-.03.031 0 .061-.031.092-.031h.276c.031 0 .093 0 .123.031.031 0 .092.03.123.03a.87.87 0 0 1 .553.43c.153.215.215.399.215.553.03.184 0 .338-.031.491a1.459 1.459 0 0 1-.184.461c-.092.153-.215.245-.338.337-.338.246-.675.246-.983.062zm1.044-.737c.062-.154.093-.276.062-.43 0-.123-.062-.276-.154-.43-.092-.153-.215-.215-.337-.276-.031 0-.062-.031-.093-.031h-.153c-.031 0-.061 0-.092.031-.062 0-.092.031-.154.031h-.03c-.031 0-.062.03-.062.03l-.031.031a.722.722 0 0 0-.214.43.875.875 0 0 0 .061.491c.092.184.215.338.338.399.153.092.337.062.522 0 .184-.03.276-.153.337-.276zm2.948-.123a.242.242 0 0 1-.123-.123 1.227 1.227 0 0 1-.368.307 1.195 1.195 0 0 1-.553.123.927.927 0 0 1-.491-.153 1.36 1.36 0 0 1-.553-.799c-.092-.337-.061-.644.092-.921.184-.337.461-.552.891-.583h.337l-.215-.706c-.03-.062 0-.123.031-.185.031-.061.062-.092.154-.122.061-.031.123 0 .184.03a.246.246 0 0 1 .123.123c.399 1.351.675 2.272.829 2.764.03.061 0 .122-.031.184-.031.061-.092.092-.153.123-.062-.062-.093-.062-.154-.062zm-.522-.368l.123-.123c.031-.031.031-.062.031-.062 0-.03.03-.03.03-.061s.031-.061.031-.092c-.123-.368-.184-.676-.276-.921-.154-.062-.246-.123-.246-.123h-.215c-.246.031-.43.123-.522.338a.761.761 0 0 0-.061.583c.061.246.184.43.368.553.184.123.369.123.584.031a.517.517 0 0 1 .153-.123zm-11.453 7.492a.171.171 0 0 1-.092-.154 4.475 4.475 0 0 0-.092-.338c-.031-.092-.061-.215-.092-.337a3.83 3.83 0 0 0-.092-.307 3.995 3.995 0 0 1-.092-.308 1.535 1.535 0 0 0-.092-.276 1.557 1.557 0 0 1-.092-.338 1.295 1.295 0 0 1-.093-.307c0-.03-.03-.153-.092-.276-.061-.123-.061-.246-.092-.276-.03-.062 0-.123.031-.185.031-.061.061-.092.153-.122.062-.031.123 0 .185.03.061.031.092.062.123.154.122.399.184.645.214.767.031-.03.062-.092.123-.122.184-.123.369-.215.522-.215.184 0 .338.03.522.123.154.061.277.184.399.307.123.122.215.276.277.368.153.368.184.706.061 1.013a.788.788 0 0 1-.338.43c-.153.123-.337.184-.552.215-.154.031-.307 0-.461-.031 0 .062-.031.092-.061.123-.031.031-.062.062-.123.062-.031.061-.092.061-.154 0zm1.259-.922a.885.885 0 0 0-.061-.675.908.908 0 0 0-.43-.461c-.184-.092-.368-.061-.553.062-.03 0-.03.031-.061.031 0 0-.031.03-.031.061l-.031.061c0 .031-.03.062-.03.092-.031.031-.031.062-.062.093.092.307.185.614.246.921.154.123.307.153.522.153.246-.03.43-.153.491-.338zm1.443-.03a1.429 1.429 0 0 1-.552-.645 1.909 1.909 0 0 1-.123-.706c.031-.307.153-.553.338-.768a.66.66 0 0 1 .153-.123s.031 0 .062-.03c0 0 .03 0 .03-.031.031-.031.092-.031.154-.031 0 0 .031 0 .092-.03.031 0 .061-.031.092-.031h.276c.031 0 .093 0 .123.031.031 0 .092.03.123.03.246.092.43.215.553.43.153.215.215.399.215.553.03.184 0 .338-.031.491a1.459 1.459 0 0 1-.184.461c-.092.153-.215.245-.338.337-.338.246-.675.246-.983.062zm1.014-.768c.061-.153.092-.276.061-.43 0-.123-.061-.276-.153-.43-.093-.153-.215-.215-.338-.276-.031 0-.062-.031-.092-.031h-.154c-.03 0-.061 0-.092.031-.061 0-.092.031-.153.031h-.031c-.031 0-.062.03-.062.03l-.03.031a.723.723 0 0 0-.215.43.68.68 0 0 0 .092.491c.092.185.215.338.338.399.153.093.337.062.522 0 .153-.03.245-.122.307-.276zm1.535.031a1.425 1.425 0 0 1-.553-.645 1.909 1.909 0 0 1-.123-.706c.031-.307.154-.553.338-.768.031-.03.092-.092.154-.123 0 0 .03 0 .061-.03 0 0 .031 0 .031-.031.03-.031.092-.031.153-.031 0 0 .031 0 .092-.03.031 0 .062-.031.092-.031h.277c.03 0 .092 0 .123.031.03 0 .092.03.122.03a.87.87 0 0 1 .553.43c.154.215.215.399.215.553.031.184 0 .338-.031.491-.03.154-.092.307-.184.461-.092.153-.215.245-.338.337-.337.246-.675.246-.982.062zm1.013-.737c.061-.154.092-.276.061-.43 0-.123-.061-.276-.153-.43-.092-.153-.215-.215-.338-.276-.031 0-.061-.031-.092-.031h-.153c-.031 0-.062 0-.093.031-.061 0-.092.031-.153.031h-.031c-.03 0-.061.03-.061.03l-.031.031a.723.723 0 0 0-.215.43.866.866 0 0 0 .062.491c.092.184.215.338.337.399.154.092.338.062.522 0 .185-.03.277-.153.338-.276zm1.75-.983l-.184.277v.03l.184.737c0 .062 0 .123-.03.185a.171.171 0 0 1-.154.092c-.061 0-.123 0-.184-.031a.168.168 0 0 1-.092-.154c-.154-.706-.399-1.627-.737-2.794-.031-.061 0-.122.03-.184.031-.061.093-.092.154-.123.061-.03.123 0 .184.031.062.031.092.092.123.154.154.583.307 1.074.399 1.473.338-.491.553-.829.676-1.044a.233.233 0 0 1 .123-.122.194.194 0 0 1 .184 0 .24.24 0 0 1 .123.122c.03.062.03.123 0 .185-.123.184-.277.43-.492.767.277.277.645.553 1.075.86a.17.17 0 0 1 .092.154c0 .061 0 .122-.031.184a.168.168 0 0 1-.153.092c-.062 0-.123 0-.184-.031-.43-.307-.799-.583-1.106-.86z" fill="#fff"></path></svg>