<svg xmlns="http://www.w3.org/2000/svg" width="164" height="160" fill="none"><g clip-path="url(#clip0_163_1914)"><path d="M30.527 100.987l6.071-.718v-14.23l-6.071-.719c-2.415-.26-2.22-3.851.261-3.851H144.57c6.463 0 11.751 5.222 11.751 11.75 0 6.463-5.223 11.75-11.751 11.75H30.788c-2.415-.13-2.676-3.655-.261-3.982z" fill="#D6655D"></path><path d="M134.191 81.404h-6.855c6.463 0 11.751 5.222 11.751 11.75 0 6.463-5.223 11.75-11.751 11.75h6.855c6.462 0 11.75-5.222 11.75-11.75s-5.288-11.75-11.75-11.75z" fill="#E2837A"></path><path d="M120.547 81.404h-6.854c6.463 0 11.75 5.222 11.75 11.75 0 6.463-5.222 11.75-11.75 11.75h6.854c6.463 0 11.751-5.222 11.751-11.75s-5.288-11.75-11.751-11.75z" fill="#E2837A"></path><path d="M32.55 100.857h62.016c4.243 0 7.703-3.46 7.703-7.703s-3.46-7.703-7.703-7.703H32.551v15.406z" fill="#F7EFD9"></path><path d="M101.812 82.774c2.416 1.502 4.243 3.983 5.027 6.724.783 2.742.522 5.81-.784 8.356" stroke="#fff" stroke-width=".7" stroke-miterlimit="10" stroke-linecap="round" stroke-linejoin="round"></path><path d="M45.607 88.976h26.046m-8.29 4.178h25.915M51.873 96.94h9.074" stroke="#260D0C" stroke-width=".7" stroke-miterlimit="10" stroke-linecap="round" stroke-linejoin="round"></path><path d="M42.604 107.254l3.851.457v9.074l-3.851.457c-1.567.196-1.371 2.481.13 2.481h101.314a7.439 7.439 0 0 0 7.442-7.442 7.438 7.438 0 0 0-7.442-7.442H42.8c-1.567-.065-1.697 2.219-.196 2.415z" fill="#2065A2"></path><path d="M43.91 107.319h60.775c2.676 0 4.896 2.22 4.896 4.896 0 2.677-2.22 4.896-4.896 4.896H43.909v-9.792z" fill="#F7EFD9"></path><path d="M110.299 105.622c1.501 1.11 2.611 2.807 3.003 4.635.391 1.828.13 3.852-.718 5.484" stroke="#fff" stroke-width=".7" stroke-miterlimit="10" stroke-linecap="round" stroke-linejoin="round"></path><path d="M95.415 110.061H59.25m-6.528 3.134h18.931" stroke="#260D0C" stroke-width=".7" stroke-miterlimit="10" stroke-linecap="round" stroke-linejoin="round"></path><path d="M132.167 106.471c4.635.065 9.335.196 13.97.261" stroke="#fff" stroke-width=".7" stroke-miterlimit="10" stroke-linecap="round" stroke-linejoin="round"></path><path d="M161.935 137.74l-5.549-.653v-13.121l5.549-.653c2.219-.261 2.023-3.59-.196-3.59H48.805c-5.94 0-10.77 4.83-10.77 10.771 0 5.94 4.83 10.771 10.77 10.771H161.74c2.219 0 2.415-3.264.196-3.525z" fill="#BD2625"></path><path d="M160.041 137.609h-59.012c-3.917 0-7.116-3.198-7.116-7.115 0-3.917 3.199-7.116 7.116-7.116h59.078v14.231h-.066z" fill="#F7EFD9"></path><path opacity=".5" d="M81.51 141.265h6.267c-5.94 0-10.77-4.831-10.77-10.771 0-5.941 4.83-10.771 10.77-10.771H81.51c-5.94 0-10.77 4.83-10.77 10.771 0 5.94 4.83 10.771 10.77 10.771z" fill="#D6655D"></path><path d="M94.762 120.963c-3.721 2.154-5.94 6.659-5.418 10.967" stroke="#fff" stroke-width=".7" stroke-miterlimit="10" stroke-linecap="round" stroke-linejoin="round"></path><path d="M102.334 127.426h33.228m-12.599 4.047h28.201" stroke="#260D0C" stroke-width=".7" stroke-miterlimit="10" stroke-linecap="round" stroke-linejoin="round"></path><path d="M47.956 122.138c5.745 0 11.424 0 17.169.065" stroke="#fff" stroke-width=".7" stroke-miterlimit="10" stroke-linecap="round" stroke-linejoin="round"></path><path d="M150.446 156.867l-4.831-.588v-11.358l4.831-.588c1.958-.261 1.762-3.068-.196-3.068H33.204a9.333 9.333 0 0 0-9.335 9.335 9.333 9.333 0 0 0 9.335 9.335H150.25c1.958.065 2.154-2.807.196-3.068z" fill="#D2932D"></path><path d="M148.879 156.801H82.685a6.129 6.129 0 0 1-6.136-6.136 6.13 6.13 0 0 1 6.136-6.136h66.194v12.272z" fill="#F7EFD9"></path><path d="M76.94 142.44a9.68 9.68 0 0 0-3.85 4.7c-.719 1.958-.85 4.113-.262 6.136" stroke="#fff" stroke-width=".7" stroke-miterlimit="10" stroke-linecap="round" stroke-linejoin="round"></path><path d="M146.594 148.25h-37.666m27.091 3.394H93.914" stroke="#260D0C" stroke-width=".7" stroke-miterlimit="10" stroke-linecap="round" stroke-linejoin="round"></path><path d="M32.355 143.615c6.397-.065 12.73-.131 19.127-.261" stroke="#fff" stroke-width=".7" stroke-miterlimit="10" stroke-linecap="round" stroke-linejoin="round"></path><path d="M8.658 124.162c1.306 5.679.653 10.64-1.501 16.058-.914 2.285-3.786 5.614-2.807 7.769 9.27-5.092 18.605-10.249 27.874-15.341-.13-5.679-.457-11.489-.587-17.169l-22.979 8.683z" fill="#54947C"></path><path d="M4.676 146.814l27.026-16.32" stroke="#260D0C" stroke-width=".7" stroke-miterlimit="10" stroke-linecap="round" stroke-linejoin="round"></path><path d="M43.126 47.72c-.914 2.284-1.37 4.373-2.285 6.658a1777.796 1777.796 0 0 0-26.111 9.596c-3.787 1.37-7.573 4.308-9.727 7.703C2.913 75.07 2 79.249 2.457 83.23c1.697 14.231 2.611 28.462 4.047 42.693 8.944-2.089 17.822-3.656 26.765-5.745-1.502-11.554-2.872-22.978-4.374-34.532 10.119-.784 20.04-.784 30.16-1.567 6.005-.457 11.032-5.353 12.86-11.163 2.48-8.16 1.958-16.907 3.133-25.394l-31.922.196z" fill="#260D0C"></path><path d="M14.207 108.951c-1.11 5.68-3.786 9.988-7.964 14.036C4.481 124.684.5 126.512.5 128.862c10.51-.849 21.215-1.698 31.725-2.546 2.22-5.223 4.309-10.641 6.528-15.928l-24.545-1.437z" fill="#54947C"></path><path d="M9.246 128.209l22.978-1.828m-31.073 1.828l31.4-4.048" stroke="#260D0C" stroke-width=".7" stroke-miterlimit="10" stroke-linecap="round" stroke-linejoin="round"></path><path d="M49.523 78.988c-3.72 11.49-7.376 22.978-11.097 34.468-8.29-1.11-16.973-2.155-25.329-3.264 4.309-14.166 9.074-28.92 14.754-42.563 2.48-5.875 7.898-9.857 14.296-10.314 5.94-.457 11.75-1.958 17.69-2.741 3.526-4.309 6.79-8.748 10.315-13.056 8.355 1.958 16.842 3.525 25.263 5.483-.914 4.57-1.502 9.205-2.48 13.774-1.894 9.205-9.075 17.3-18.148 19.845-8.226 2.22-16.973.392-25.264-1.632z" fill="#260D0C"></path><path d="M13.163 110.061c3.916-14.557 9.008-28.788 15.144-42.562 1.567-3.525 3.982-6.593 7.442-8.225 3.525-1.632 7.377-2.154 11.228-2.677 3.721-.522 7.377-.979 11.098-1.501m-9.4 26.503c1.044-3.133 2.154-6.332 3.198-9.465-1.11-1.306-3.72-1.306-4.57.13-.848 1.436 0 3.656 1.698 4.048-1.305 0-2.48.783-3.199 1.828-.783 1.044-1.175 2.284-1.566 3.46-2.938 8.812-5.81 17.625-8.748 26.437M51.09 74.549c6.136.588 12.338 1.175 18.474 1.697 4.243.392 8.421-1.762 11.294-4.896 2.937-3.133 4.57-7.18 5.81-11.293 1.24-4.113 2.023-8.29 3.524-12.338m-6.462-.914c-1.436 4.505-.196 9.792 3.068 13.252m-71.742 44.586c8.16 1.436 16.255 2.807 24.414 4.243" stroke="#fff" stroke-width=".7" stroke-miterlimit="10" stroke-linecap="round" stroke-linejoin="round"></path><path d="M101.682 24.61a10.318 10.318 0 0 0-3.395-7.376c-2.089-1.828-4.83-2.677-7.638-2.611-2.088 0-4.177.065-6.266.065-.131.587-.588.98-1.045 1.305-1.175.719-2.872.85-4.178.327-3.068.849-6.07 1.697-9.139 2.546-2.546 7.768-4.83 15.732-6.528 23.761l34.468 7.638c2.546-8.29 3.916-17.038 3.721-25.655z" fill="#fff"></path><path d="M77.463 17.169c.065 1.044.849 1.958 1.828 2.35.979.391 2.089.26 3.068-.066.979-.391 1.828-.979 2.611-1.632a19.012 19.012 0 0 0 2.807-2.807m-9.008 28.332c5.679 1.37 11.423 2.807 17.103 4.178M87.19 3.852c1.37 1.044 2.807 2.089 3.851 3.525 1.045 1.436 1.632 3.264 1.11 4.896" stroke="#260D0C" stroke-width=".7" stroke-miterlimit="10" stroke-linecap="round" stroke-linejoin="round"></path><path d="M89.41 5.484c-1.698-1.763-3.852-3.852-6.333-3.787-3.656.13-7.246 1.632-9.988 4.113-.457 2.154-.914 4.308-1.305 6.463H91.04c1.045-2.22.065-4.962-1.632-6.79z" fill="#260D0C"></path><path d="M86.994 7.899c-.653-.718-1.763-1.045-2.677-.849-.13.457-.26.98-.391 1.436-.523-1.044-1.24-2.154-1.828-3.133-.718-1.37-2.22-2.285-3.786-2.415-1.567-.13-3.134.457-4.178 1.566-.066 1.828-.261 3.525-.327 5.419-.065 1.37.327 2.807 1.175 3.786.914.979 2.22 1.632 3.59 1.632.066.391.197.848.262 1.305.13.588.391 1.175.979 1.436.587.262 1.24.327 1.828.196.587-.13 1.175-.457 1.697-.848l3.395-2.611c-.392-.784-.784-1.502-1.11-2.285.98-.196 1.762-.914 2.089-1.893.13-.98-.066-2.024-.718-2.742z" fill="#E6987D"></path><path d="M80.858 9.923a.446.446 0 0 0-.457-.457.446.446 0 0 0-.457.457c0 .26.195.457.457.457a.446.446 0 0 0 .457-.457zM75.7 9.857a.446.446 0 0 0-.457-.457.446.446 0 0 0-.457.457c0 .261.196.457.457.457.261.066.457-.196.457-.457z" fill="#260D0C"></path><path d="M84.97 9.4c.457-.26.914-.587 1.306-.848m-8.878 1.175c-.13.522-.196.979-.327 1.501.261-.065.523-.065.718-.13m-3.46-3.134c.131-.261.458-.457.784-.522a.965.965 0 0 1 .849.261m3.59.392c.391 0 .783 0 1.24-.066m-2.415 3.917c.13.196.457.327.718.261.261-.065.457-.326.522-.587m-1.501 3.851c1.632.261 3.394-.26 4.635-1.37m2.023-1.306c.392-.065.718-.13 1.11-.196" stroke="#260D0C" stroke-width=".7" stroke-miterlimit="10" stroke-linecap="round" stroke-linejoin="round"></path><path d="M78.507 5.092c.196.653.327 1.305.523 2.023h8.551c-.457-2.48-2.154-4.7-4.374-5.81a8.444 8.444 0 0 0-7.31 0c-2.286 1.11-3.918 3.395-4.375 5.876h6.267c.261-.784.457-1.436.718-2.09z" fill="#260D0C"></path><path d="M70.609 6.724c.587-2.416 2.284-4.57 4.504-5.68 2.285-1.11 5.026-1.044 7.246 0 .914.457 1.828 1.11 2.285 2.09" stroke="#260D0C" stroke-width=".7" stroke-miterlimit="10" stroke-linecap="round" stroke-linejoin="round"></path><path d="M147.377 80.098c-.457-.653-.913-1.436-1.37-2.154-1.959-.327-3.787-.392-5.745-.392-5.745-3.46-12.403-5.94-16.255-11.424-2.48-3.59-4.439-7.442-6.397-11.358-2.22-4.44-5.027-8.944-7.115-13.513-2.742-6.006-5.027-12.077-8.226-17.952-1.175-2.22-2.48-4.505-4.373-6.136-1.894-1.567-4.635-1.894-6.855-.85-2.22 1.045-3.72 3.46-3.655 5.876.065 4.57 1.632 8.943 3.198 13.252 1.175 3.329 2.416 6.593 3.59 9.922 4.374 11.946 11.686 22.783 20.433 32.052 2.285 2.416 5.353 4.309 8.682 4.505l25.655.522c.849.13 1.763-.588 2.024-1.37-1.241-.197-2.416-.654-3.591-.98z" fill="#E6987D"></path><path d="M133.995 77.748c2.481.979 4.896 1.958 7.377 2.937.196.327.065.784-.066 1.11-.195.261-.522.457-.848.588-.327.13-.653.13-1.045.196m3.525-3.852c1.567.522 3.134.98 4.701 1.501" stroke="#260D0C" stroke-width=".7" stroke-miterlimit="10" stroke-linecap="round" stroke-linejoin="round"></path><path d="M38.034 54.508c-4.308-2.22-6.267-5.875-4.83-10.183C34.64 39.95 51.807 50.2 51.807 50.2l-1.11 2.872-12.664 1.436z" fill="#E6987D"></path><path d="M25.5 13.578l2.024-1.37s16.45-.131 18.8 6.723c0 0 15.08-5.157 26.374-1.436l1.044 4.243-30.16 2.285L25.5 13.578z" fill="#fff"></path><path d="M44.823 19.584c.523-.457 1.436-.261 1.763.326m23.957-2.089a42.37 42.37 0 0 0-18.54.98m-20.04-4.831c3.656 0 7.311 1.24 10.184 3.525m-.261-1.567c.652.457 1.37.849 2.023 1.306" stroke="#260D0C" stroke-width=".7" stroke-miterlimit="10" stroke-linecap="round" stroke-linejoin="round"></path><path d="M47.63 19.976l25.786-1.371c.457 0 .914.326.979.783l6.201 29.506c.066.457-.26.849-.652.849l-25.786 1.044s-1.828 1.698-3.72-.26l-19.78-6.333c-.588-.196-1.045-.718-1.11-1.305l-5.157-29.31c-.065-.523.392-.915.848-.719l18.866 6.724c0-.066 1.436 1.893 3.525.392z" fill="#BD2625"></path><path d="M47.826 21.02l6.332 29.768m-9.726-29.833l6.07 28.657" stroke="#260D0C" stroke-width=".7" stroke-miterlimit="10" stroke-linecap="round" stroke-linejoin="round"></path><path d="M25.174 13.578L39.08 18.54" stroke="#fff" stroke-width=".7" stroke-miterlimit="10" stroke-linecap="round" stroke-linejoin="round"></path><path d="M56.051 49.351c-.26-.13-.457-.13-.718-.065l-5.68 2.154a597.07 597.07 0 0 1 6.398-6.528c-.196-.326-.457-.587-.848-.653-.392-.065-.718-.065-.98.131-3.133 1.893-6.266 3.72-9.465 5.614 1.958-3.982 3.786-8.03 5.744-12.011a1.376 1.376 0 0 0-1.175-.392c-.391.065-.718.392-.979.718l-2.742 2.546c.588-1.175 1.24-2.415 1.763-3.59-.392-.262-.914-.327-1.37-.262-.458.131-.85.457-1.241.718a1068.582 1068.582 0 0 1-9.662 8.16l-1.436 4.374c.849 1.893 2.546 3.264 4.374 4.243 1.828.914 3.786 1.763 5.875 1.959 1.893.196 4.048.065 5.614-1.045 2.35-1.762 4.766-3.59 7.116-5.353-.13-.326-.327-.587-.588-.718z" fill="#E6987D"></path><path d="M39.47 48.698c2.154-2.741 4.374-5.548 6.528-8.29m-.587 8.29c-.261.523-.457.98-.718 1.502l1.762-.98m4.178 1.372a34.212 34.212 0 0 1-1.632 1.501" stroke="#260D0C" stroke-width=".7" stroke-miterlimit="10" stroke-linecap="round" stroke-linejoin="round"></path></g><defs><clipPath id="clip0_163_1914"><path fill="#fff" transform="translate(.499)" d="M0 0H163.003V160H0z"></path></clipPath></defs></svg>