<svg xmlns="http://www.w3.org/2000/svg" width="208" height="160" fill="none"><g clip-path="url(#clip0_163_1522)"><path d="M187.327 61.72a6.163 6.163 0 0 0-6.158-6.157 6.163 6.163 0 0 0 6.158-6.158 6.162 6.162 0 0 0 6.158 6.158 6.162 6.162 0 0 0-6.158 6.158zM69.512 35.427a6.162 6.162 0 0 0-6.158-6.158 6.162 6.162 0 0 0 6.158-6.158 6.162 6.162 0 0 0 6.158 6.158 6.162 6.162 0 0 0-6.158 6.158zM7.862 66.463a6.162 6.162 0 0 0-6.158-6.158 6.162 6.162 0 0 0 6.158-6.158 6.162 6.162 0 0 0 6.158 6.158c-3.397.036-6.158 2.796-6.158 6.158zM3.544 55.245a3.55 3.55 0 0 0-3.539-3.54 3.55 3.55 0 0 0 3.54-3.539 3.55 3.55 0 0 0 3.538 3.54 3.527 3.527 0 0 0-3.539 3.538zm191.215-5.592a3.55 3.55 0 0 0-3.539-3.54 3.55 3.55 0 0 0 3.539-3.538 3.549 3.549 0 0 0 3.539 3.539 3.55 3.55 0 0 0-3.539 3.539zm-76.797-28.737a3.55 3.55 0 0 0-3.539-3.54 3.55 3.55 0 0 0 3.539-3.538 3.55 3.55 0 0 0 3.539 3.539 3.55 3.55 0 0 0-3.539 3.539zm5.698-8.21a2.22 2.22 0 0 0-2.23-2.23 2.22 2.22 0 0 0 2.23-2.23c0 1.239.99 2.23 2.229 2.23a2.22 2.22 0 0 0-2.229 2.23z" fill="#F5EBD5"></path><path d="M10.445 125.353h-5.45v13.59h5.45v-13.59zm194.046 0h-5.45v13.59h5.45v-13.59z" fill="#C79E85"></path><path d="M195.537 117.213H13.171l12.846-17.908h156.709l12.811 17.908z" fill="#F0E1C0"></path><path d="M195.537 117.213H13.171v11.643h182.366v-11.643z" fill="#F0E7D3"></path><path d="M3.863 88.405l22.154-16.987v27.887l-12.811 17.908s-9.308-23.64-9.308-24.03c-.07-.39-.035-4.778-.035-4.778z" fill="#F0EADD"></path><path d="M12.215 133.74H1.705a.951.951 0 0 1-.956-.955v-39a6.238 6.238 0 0 1 6.228-6.23 6.238 6.238 0 0 1 6.229 6.23v39c-.035.531-.46.955-.991.955z" fill="#F0E0C0"></path><path d="M204.88 88.405l-22.154-16.987v27.887l12.811 17.908s9.308-23.64 9.308-24.03c.035-.39.035-4.778.035-4.778z" fill="#F0EADD"></path><path d="M196.528 133.74h10.511a.951.951 0 0 0 .956-.955v-39a6.238 6.238 0 0 0-6.229-6.23 6.238 6.238 0 0 0-6.229 6.23v39c0 .531.425.955.991.955z" fill="#F0E0C0"></path><path d="M182.726 63.915v35.39H26.017V63.207a3.172 3.172 0 0 1 3.186-3.185h45.264c1.345 0 2.548.672 3.22 1.734.213.319.39.708.496 1.097.07-.53.247-1.061.566-1.486a3.2 3.2 0 0 1 2.619-1.38h45.264c1.38 0 2.619.743 3.292 1.84.212.319.353.637.46 1.026a3.2 3.2 0 0 1 .601-1.557 3.168 3.168 0 0 1 2.548-1.274h45.265c2.194 0 3.928 1.734 3.928 3.893z" fill="#F0E7D3"></path><path d="M78.749 61.367V99.27h-1.062V61.756c.213.319.39.708.496 1.097.07-.53.283-1.026.566-1.486zm52.272-.07v38.008h-1.062V61.862c.212.319.354.637.46 1.027a2.838 2.838 0 0 1 .602-1.593z" fill="#E0CC9F"></path><path d="M114.387 76.656c2.088-2.938 5.521-4.707 9.025-5.415 3.433-.673 7.396-.283 9.874 2.194 1.946 1.982 2.619 4.813 3.326 7.503.637 2.406 1.381 4.813 1.557 7.326.177 2.477-.212 5.131-1.663 7.148-1.486 2.088-3.928 3.327-6.406 4.07-2.371.708-4.954.991-7.29.248-2.619-.85-4.671-2.902-6.087-5.273a22.385 22.385 0 0 1-1.734-3.751c-.46-1.24-.708-2.655-1.274-3.858-.991-2.23-1.522-4.176-.956-6.653.354-1.274.885-2.478 1.628-3.54z" fill="#FFAB9C"></path><path d="M22.018 80.973c-1.522.92-2.973 2.017-3.822 3.575-1.168 2.158-.956 4.777-.39 7.184 1.169 4.99 3.681 9.52 6.194 14.014.991 1.805 2.088 3.716 3.928 4.637 1.38.707 3.044.778 4.566.46 1.522-.319 2.973-.956 4.388-1.593 1.663-.743 3.327-1.486 4.813-2.548 1.487-1.062 2.76-2.477 3.362-4.176.85-2.407.248-5.06-.424-7.503-1.062-3.857-2.372-7.68-4.53-11.077-1.168-1.84-2.655-3.54-4.495-4.742-1.592-1.027-3.468-1.628-5.38-1.557-1.769.07-3.538.955-5.096 1.698-1.097.46-2.123 1.027-3.114 1.628z" fill="#02909C"></path><path d="M37.059 80.371a216.442 216.442 0 0 0-19.04 12.387c-.106-.354-.177-.672-.283-1.026v-.071c5.945-4.282 12.103-8.317 18.438-11.997.319.212.602.46.885.707zm4.14 5.592a205.732 205.732 0 0 0-20.172 14.298c-.177-.319-.318-.637-.495-.991a215.247 215.247 0 0 1 20.137-14.227c.212.283.354.602.53.92zM43.96 92.9c-6.866 3.999-13.484 8.352-19.854 13.13a1.064 1.064 0 0 1-.142-.284c-.106-.212-.247-.424-.353-.672a210.626 210.626 0 0 1 20.03-13.236c.107.39.213.708.32 1.062zm1.451 6.688a294.936 294.936 0 0 0-17.554 10.795 4.525 4.525 0 0 1-.955-.637c5.98-4 12.139-7.786 18.403-11.325l.106 1.167z" fill="#fff"></path><path d="M110.034 81.186c1.38-.39 2.867-.638 4.176-.142 1.239.495 2.124 1.593 2.831 2.725 1.31 2.159 2.088 4.636 2.832 7.078.637 2.017 1.238 4.07 1.451 6.193.177 1.593.07 3.327-.708 4.707-1.168 2.088-3.539 3.079-5.769 3.964-2.3.885-4.848 1.805-7.113.885-1.876-.743-3.079-2.513-4.07-4.247-1.841-3.256-3.292-6.866-3.716-10.617-.106-.92-.142-1.876-.106-2.831.035-.708-.036-1.77.247-2.407.319-.637 1.274-1.132 1.841-1.522a23.57 23.57 0 0 1 2.371-1.45 27.078 27.078 0 0 1 5.733-2.337z" fill="#FFCA64"></path><path d="M104.372 18.226h-7.468v9.272h7.468v-9.272z" fill="#DBAE83"></path><path d="M104.372 20.208s-2.371 2.3-3.716 2.3c-1.345 0-3.752-2.3-3.752-2.3a6.631 6.631 0 0 0 3.752 1.168c1.345 0 2.619-.425 3.716-1.168z" fill="#BF5B45"></path><path d="M110.777 9.697c-.141-.319-.389-.637-.707-.743-.39-.106-.85.07-1.133.354-.212.212-.354.46-.495.707-.567-4.706-3.858-8.316-7.786-8.316-3.929 0-7.185 3.61-7.786 8.316-.142-.247-.283-.495-.496-.707-.318-.283-.743-.46-1.132-.354-.354.106-.602.39-.708.743-.142.319-.142.672-.106 1.026.035.92.248 1.84.779 2.584.46.637 1.203 1.132 1.981 1.203.991 4 4 6.866 7.503 6.866 3.539 0 6.512-2.902 7.503-6.866.778-.07 1.522-.566 1.982-1.203.531-.743.743-1.664.778-2.584-.035-.354-.035-.708-.177-1.026z" fill="#DBAE83"></path><path d="M98.355 11.679c.036.637-.318 1.168-.743 1.203-.425 0-.778-.495-.778-1.132-.036-.637.318-1.168.743-1.204.389-.035.743.496.778 1.133zm5.38 0c.035.637-.319 1.168-.744 1.203-.424 0-.778-.495-.778-1.132-.035-.637.318-1.168.743-1.204.425-.035.779.496.779 1.133z" fill="#241C19"></path><path d="M90.888 11.396c-.142-.319-.142-.779.177-1.098.142-.141.354-.247.566-.212.213.036.39.142.531.283.283.284.495.567.672.92.177.319.284.708.319 1.062-.142-.354-.319-.637-.496-.955a4.832 4.832 0 0 0-.672-.814c-.106-.107-.248-.213-.39-.213-.14-.035-.282.036-.424.107-.248.176-.318.566-.283.92z" fill="#BF7845"></path><path d="M92.551 10.971a.584.584 0 0 0-.53.177.812.812 0 0 0-.142.495c.035.354.319.708.53 1.062-.176-.106-.353-.248-.53-.39a1.31 1.31 0 0 1-.283-.636c-.035-.248.07-.496.248-.673.212-.177.53-.177.707-.035zm17.979.425c.035-.354-.071-.744-.319-.92-.141-.107-.283-.142-.425-.107a.845.845 0 0 0-.389.213c-.248.247-.46.53-.672.814a6.072 6.072 0 0 0-.496.955c.036-.354.142-.708.319-1.062.177-.318.389-.636.672-.92a.977.977 0 0 1 .531-.283c.212-.035.425.071.566.213.354.318.354.778.213 1.097z" fill="#BF7845"></path><path d="M108.866 10.971c.177-.142.46-.142.673.035a.713.713 0 0 1 .247.673c-.035.248-.141.46-.283.637-.141.177-.318.283-.531.39.248-.355.496-.709.531-1.063.036-.177-.035-.354-.141-.495-.071-.106-.248-.212-.496-.177z" fill="#BF7845"></path><path d="M102.177 7.715c.284-.106.567-.106.85-.07.283.035.566.176.814.318.495.283.885.743 1.026 1.31 0 .035 0 .105-.071.105h-.07c-.39-.318-.779-.566-1.204-.707-.212-.071-.424-.142-.637-.177-.212-.071-.424-.106-.672-.177h-.036c-.141-.036-.247-.213-.212-.354.071-.142.142-.212.212-.248zm-3.574.531c-.248.07-.46.106-.672.177-.213.07-.425.106-.637.177-.425.177-.814.39-1.204.708a.108.108 0 0 1-.141 0c-.036-.036-.036-.071-.036-.071.142-.531.531-.991 1.027-1.31.247-.141.53-.247.814-.318.283-.035.601-.035.849.07.142.071.212.213.177.355 0 .141-.07.177-.177.212z" fill="#193585"></path><path d="M99.877 10.334c.071.885-.035 1.77-.248 2.654-.106.425-.283.85-.141 1.239.141.39.531.602.955.778a2.256 2.256 0 0 1-.637-.212 1.118 1.118 0 0 1-.495-.495c-.106-.213-.106-.496-.07-.708.034-.248.105-.46.14-.672a55.7 55.7 0 0 0 .496-2.584zm.885 4.6c-.035-.14 0-.212.071-.282.07-.071.141-.107.283-.107.035.142 0 .213-.071.284-.071.035-.142.106-.283.106zm.283 1.38c.602-.07 1.168-.247 1.628-.53.495-.318.885-.743 1.203-1.239a2.327 2.327 0 0 1-1.062 1.451c-.495.319-1.167.46-1.769.319zm1.769.426c.142-.142.284-.248.39-.354.141-.107.247-.213.424-.319.036.212-.106.39-.247.531a.552.552 0 0 1-.567.142z" fill="#BF7845"></path><path d="M109.999 8.954c-.39-.071-.779.106-1.062.354a1.49 1.49 0 0 0-.212.247 5.109 5.109 0 0 1-.496 1.876c-.071.142-.248.142-.318 0-.283-1.026-.567-2.017-.814-3.043-.885.141-1.77.141-2.619-.036-.496-.106-1.203-.212-1.628-.495-.354-.248-.389-1.062-.496-1.451-.177.424-.283.884-.46 1.31-1.451 0-2.76.99-4.247 1.096-1.132.106-2.194-.318-3.255-.708-.283 1.133-.567 2.23-.92 3.327-.036.142-.248.142-.284 0a6.312 6.312 0 0 1-.46-1.592c-.106-.177-.247-.354-.39-.531a1.503 1.503 0 0 0-.6-.354c.212-1.593.53-3.185 1.238-4.601.814-1.628 2.23-3.008 4.034-3.327 1.876-.354 3.575-1.238 5.486-.92 1.911.248 3.681 1.239 4.955 2.725 1.451 1.699 2.123 3.858 2.548 6.123zm6.299 20.172a5.49 5.49 0 0 1-.743-.141c-.389-.602-.708-1.027-.92-1.239-1.628-1.45-5.946-4.105-10.228-2.866v-4.672c1.805-1.203 3.15-3.256 3.787-5.698.778-.07 1.522-.566 1.982-1.203.177-.248.283-.496.389-.743.318 2.3.743 4.636 1.911 6.618.885 1.521 2.159 2.795 3.044 4.317.849 1.522.637 5.486.778 5.627zm-19.394-8.918v4.707s-7.22-.425-10.015 2.866c-.496.567-1.416 1.876-2.654 3.646a10.94 10.94 0 0 1-2.726.814c-.707-2.16-.141-4.566.991-6.512 1.133-1.947 2.725-3.61 4.247-5.273 1.522-1.664 3.044-3.433 3.858-5.557.212-.53.354-1.097.495-1.663.036.035.036.07.071.106.46.637 1.203 1.133 1.982 1.203.601 2.407 1.982 4.46 3.751 5.663z" fill="#132762"></path><path d="M114.635 27.746c-1.628-1.45-5.946-4.105-10.228-2.866 0 0-1.486 2.017-3.716 2.017-2.23 0-3.716-2.017-3.716-2.017s-7.22-.46-10.015 2.866C84.164 31.073 66.256 58.82 66.256 58.82l5.981 1.239 2.018-.036 1.486.177c5.486-2.371 11.077-15.5 12.776-19.89l1.77 11.255c.106.708 0 1.416-.284 2.053l-3.008 6.334h26.401l-1.875-5.662c-.319-.991-.177-2.088.389-3.008l.637-.991c.142 2.796.743 5.308 2.477 5.38 2.725.14 6.477-4.035 6.76-8.424.212-5.804-5.521-18.049-7.149-19.5z" fill="#FFCA64"></path><path d="M107.521 24.596c-.07 3.327-.318 6.902-1.592 10.122-.743 1.876-1.734 2.973-3.008 3.256-.213.035-.425.07-.637.07-.743 0-1.522-.282-2.23-.778-.85-.637-1.45-1.486-1.911-2.23-1.805-2.901-3.008-6.299-3.539-10.086.106 0 .248 0 .354-.035.53 3.751 1.699 7.078 3.468 9.945.46.743 1.026 1.557 1.805 2.159.814.601 1.77.849 2.584.672 1.132-.248 2.052-1.274 2.76-3.044 1.239-3.15 1.486-6.688 1.557-10.015.142-.036.248-.036.389-.036z" fill="#FFD585"></path><path d="M113.113 26.614v.035a104.24 104.24 0 0 1-1.699 8.034c-.707 2.866-1.628 6.158-3.539 8.918-.778 1.133-1.592 1.982-2.512 2.548-.885.566-1.805.85-2.725.85-.248 0-.531-.036-.779-.071-1.77-.319-3.044-1.734-3.964-2.938-3.503-4.6-5.768-10.688-6.865-18.509.106-.035.212-.07.353-.07 1.062 7.82 3.292 13.837 6.795 18.402.885 1.133 2.088 2.513 3.752 2.796 1.026.213 2.194-.07 3.22-.708.85-.53 1.628-1.344 2.407-2.442 1.876-2.725 2.76-5.945 3.468-8.812a107.011 107.011 0 0 0 1.699-7.998c0-.07.035-.106.035-.177.106 0 .248.07.354.142z" fill="#FFD585"></path><path d="M115.484 28.879c-1.451 8.776-4.034 17.022-7.679 24.525-.85 1.77-1.911 3.54-3.645 4.212-.496.212-1.027.283-1.593.283a5.415 5.415 0 0 1-2.584-.673c-1.097-.566-2.088-1.486-3.15-2.83-2.477-3.221-3.892-7.114-5.025-10.795a109.394 109.394 0 0 1-3.787-16.846l.319-.212a115.162 115.162 0 0 0 3.822 16.952c1.133 3.68 2.513 7.503 4.955 10.688 1.026 1.31 1.982 2.159 3.008 2.725 1.274.672 2.76.814 3.893.354 1.699-.673 2.69-2.442 3.433-4.035 3.68-7.573 6.264-15.925 7.715-24.808.106.141.212.283.318.46zM86.57 44.769c-.07.142-.141.318-.212.46-1.522-4.424-2.265-9.095-2.159-13.732.142-.176.248-.353.354-.53-.141 4.671.53 9.378 2.017 13.802zM84.058 49.9c-.071.106-.107.212-.177.353-1.699-2.3-3.044-4.848-3.929-7.538a24.325 24.325 0 0 1-.92-3.503c.106-.142.177-.284.283-.425.213 1.31.567 2.584.991 3.822.85 2.619 2.124 5.061 3.752 7.29zm-4.778 7.29c-.07.106-.142.177-.248.283-2.017-1.911-3.645-4.53-4.671-7.538-.284-.85-.531-1.699-.708-2.548.07-.142.177-.283.283-.425.212.956.46 1.911.778 2.867.992 2.937 2.584 5.485 4.566 7.361zm-4.495 2.902l-.601-.07c-1.805-1.735-3.54-3.965-4.743-6.159a3.12 3.12 0 0 0 .213-.354c1.274 2.372 3.15 4.743 5.131 6.583zm45.158-21.34c-1.557 4.99-4.034 9.697-7.29 13.767a2.109 2.109 0 0 1-.071-.496 41.885 41.885 0 0 0 7.149-13.838c.071.177.142.354.212.567zm1.735 7.962c-1.522 2.69-3.292 5.203-4.99 7.468a7.257 7.257 0 0 1-1.522 1.592h-.248c-.106 0-.212-.035-.318-.035.672-.354 1.274-1.026 1.805-1.77 1.804-2.406 3.68-5.06 5.237-7.927 0 .248 0 .46.036.672z" fill="#FFD585"></path><path d="M87.844 26.755a9.27 9.27 0 0 1 1.027 2.867c.177.99.248 2.052.106 3.043-.142-1.026-.248-2.017-.46-2.973-.177-.99-.425-1.946-.672-2.937zm.602 13.696c.07-.637.248-1.203.46-1.805.212-.566.46-1.132.814-1.663-.07.637-.248 1.203-.46 1.805-.248.566-.495 1.132-.814 1.663zm.46-.141c0-.283.106-.496.248-.708.142-.212.283-.39.53-.531 0 .283-.105.495-.247.708-.141.212-.283.39-.53.53zm9.414 2.265c.283.85.602 1.663.956 2.477.353.814.778 1.593 1.238 2.336.46.743.956 1.486 1.487 2.159l.424.53.425.496.46.495c.142.142.319.319.46.496-.354-.248-.708-.566-1.026-.85l-.46-.46-.46-.495a13.57 13.57 0 0 1-1.593-2.159c-.46-.778-.85-1.592-1.168-2.406a12.125 12.125 0 0 1-.743-2.62zm0 3.574a34.457 34.457 0 0 0 2.513 3.787c.46.602.955 1.168 1.451 1.734.248.283.495.566.778.814l.39.425c.141.141.283.247.389.389-.319-.212-.602-.46-.92-.672a17.418 17.418 0 0 1-.85-.78 13.763 13.763 0 0 1-1.521-1.698 17.956 17.956 0 0 1-1.274-1.91c-.39-.673-.708-1.381-.956-2.089zM96.126 25.41c.248.39.566.708.884 1.027.319.283.708.566 1.098.743.778.39 1.663.637 2.548.602.884-.036 1.734-.319 2.512-.744.39-.212.744-.495 1.062-.814.319-.318.602-.672.814-1.061a4.906 4.906 0 0 1-.708 1.168 5.304 5.304 0 0 1-1.026.955 5.06 5.06 0 0 1-2.654.885c-.956.035-1.876-.248-2.69-.708-.39-.248-.779-.53-1.097-.885-.283-.354-.566-.743-.743-1.168zm16.032 1.239c-.036.354-.177.672-.283.991a5.397 5.397 0 0 1-.425.92c-.071-.354 0-.708.106-1.062.142-.318.319-.601.602-.849z" fill="#FFAD42"></path><path d="M104.372 30.047l.318-2.124 10.37 6.441 7.149-9.91v3.894l-6.725 9.201s-7.113-1.946-7.325-1.946c-.213 0-3.787-5.556-3.787-5.556z" fill="#fff"></path><path d="M115.52 34.223l7.184-8.919v19.854l-7.184 6.406h-.885l-12.139-4.318 1.734-17.624 10.405 4.6h.885z" fill="#FF500D"></path><path d="M115.52 34.222h-.885v17.342h.885V34.222z" fill="#132762"></path><path d="M117.572 49.653c-.46-.885-.92-1.805-1.415-2.69a3.378 3.378 0 0 1-.389-.99c-.036-.142-.036-.284-.036-.39 0-.319.389-.46.602-.248l1.522 1.486c.07.071.177.178.318.178.177.035.354-.142.389-.354.036-.177-.035-.39-.106-.567-.318-.955-.672-1.91-.991-2.83-.106-.32-.177-.78.106-.956.177-.107.39-.071.567.07.177.106.283.283.389.425l1.38 2.088c.071.142.283.035.248-.106l-.566-2.477c-.036-.213-.071-.496.106-.602.177-.106.389.035.531.177.885.743 1.769 1.699 2.265 2.725.46.92.46 3.468-1.168 5.202s-5.203 1.204-5.203 1.204l1.451-1.345zM72.166 60.058c-.318.955-.601 1.946-.92 2.902-.106.353-.212.672-.424.99-.071.107-.177.213-.248.319-.212.212-.566.035-.602-.248l-.035-2.123c0-.106 0-.248-.07-.354-.107-.142-.355-.142-.532-.035-.177.106-.247.283-.354.46-.424.884-.884 1.805-1.31 2.69-.14.318-.424.672-.742.6-.177-.034-.319-.247-.354-.424-.036-.177 0-.389.035-.566l.496-2.442c.035-.142-.177-.248-.248-.106l-1.345 2.159c-.106.177-.283.389-.495.354-.213-.036-.248-.283-.284-.496-.106-1.168-.035-2.442.319-3.539.319-.99 2.123-2.796 4.495-2.866 2.37-.071 4.6 2.725 4.6 2.725h-1.982z" fill="#DBAE83"></path><path d="M143.443 55.315c.708 1.487.92 3.22.602 4.813 1.167 1.84 1.627 3.822 2.441 5.84.814 2.017 1.805 4.034 3.433 5.45a174.762 174.762 0 0 0 2.619-15.395c-.318.106-.637.142-.991.248-1.097-3.433-2.512-6.866-3.999-10.157a33.122 33.122 0 0 0-4.105 9.201z" fill="#CF9055"></path><path d="M146.31 53.369c-.39 1.522-1.133 2.973-2.195 4.07a7.68 7.68 0 0 0-.283-1.239c1.027-.708 1.876-1.699 2.478-2.831z" fill="#87380B"></path><path d="M143.797 56.27c-1.133.815-2.548 1.31-3.929 1.133-.46-.035-.884-.177-1.309-.318-.248-.106-.46-.213-.673-.319-.743-.39-1.451-.955-2.088-1.557a16.64 16.64 0 0 1-2.725-3.15c-.141-.212-.283-.424-.389-.637-.354-.566-.637-1.203-.885-1.84-.814-2.159-.92-4.636 0-6.76a6.746 6.746 0 0 1 1.664-2.3c.672-.602 1.415-.99 2.194-1.38.566-.283 1.097-.708 1.699-.814 1.805-.319 3.822.708 5.202 1.734 2.548 1.876 4.424 4.742 4.778 7.892.354 3.15-.956 6.477-3.539 8.317z" fill="#CF9055"></path><path d="M135.339 48.556c.318.566.283 1.168-.071 1.38-.354.212-.92-.07-1.239-.637-.318-.566-.283-1.168.071-1.38.354-.177.92.106 1.239.637zm4.105-2.371c.318.566.283 1.167-.071 1.38-.354.212-.92-.071-1.239-.637-.318-.567-.283-1.168.071-1.38.354-.213.92.07 1.239.636z" fill="#241C19"></path><path d="M135.197 46.503c.319.46.566.956.814 1.451a5.17 5.17 0 0 1 .495 1.593c.036.283.071.566.071.849 0 .283 0 .53.142.743.141.212.389.354.637.319a.8.8 0 0 0 .672-.39.966.966 0 0 1-.637.531c-.318.036-.601-.106-.814-.318-.212-.248-.212-.566-.247-.85 0-.283-.036-.53-.071-.814a13.22 13.22 0 0 0-.425-1.592c-.212-.496-.425-.991-.637-1.522zm3.008 4.318c-.106-.071-.106-.142-.106-.177 0-.036.036-.106.177-.142.106.071.106.142.106.177 0 .07-.035.106-.177.142z" fill="#87380B"></path><path d="M136.754 43.742c.177-.247.389-.424.673-.566.247-.141.53-.212.849-.212.566-.035 1.168.07 1.593.425a.109.109 0 0 1 0 .141c-.036.036-.036.036-.071.036-.531-.036-.991 0-1.416.141l-.637.212c-.212.071-.389.178-.637.248h-.035c-.142.071-.319-.035-.354-.177 0-.07 0-.177.035-.248zm-2.867 2.478a12.83 12.83 0 0 1-.566.354c-.177.106-.354.248-.531.389a3.837 3.837 0 0 0-.92 1.062c-.035.035-.071.07-.141.035-.036 0-.036-.035-.036-.07-.035-.567.213-1.133.602-1.558.177-.212.425-.425.672-.53.248-.142.531-.213.85-.213.141 0 .283.142.283.319l-.213.212z" fill="#241C19"></path><path d="M139.09 52.06s1.663-1.983 1.769-3.363c0 0 3.256 4.282-1.769 3.362z" fill="#fff"></path><path d="M141.957 52.06c0-.178.035-.32.106-.46.07-.142.106-.284.247-.425a.601.601 0 0 1 0 .495c-.07.177-.177.354-.353.39z" fill="#87380B"></path><path d="M155.546 41.584c-.177.637-.495 1.238-.601 1.91-.071.46-.071.956-.142 1.416-.071.46-.248.956-.601 1.275-.496.389-1.204.353-1.664.778-.424.354-.566.991-1.062 1.239-.601.283-1.38-.177-2.017.07-.283.107-.46.319-.672.531-.283-.637-.566-1.31-.85-1.946.248-.319.461-.672.602-1.026.389-.991.354-2.16-.071-3.15-.283-.602-.743-1.168-1.415-1.345-.779-.177-1.593.354-2.018 1.026v-.07s-3.963-6.3-9.59-4.283c-5.734 2.018-4.283 8.282-4.247 8.494 0 .425.071.85.141 1.239-.07-.036-.177-.071-.283-.106-.46-.107-.991-.107-1.415-.319-.708-.354-.991-1.133-1.239-1.876-.177-.566-.389-1.132-.319-1.734.071-.637.425-1.239.39-1.876-.071-1.274-1.593-2.088-1.734-3.326-.107-.779.389-1.522.92-2.124.531-.601 1.132-1.132 1.451-1.875.212-.531.247-1.097.354-1.664.141-.566.389-1.132.884-1.415.602-.319 1.345-.142 1.947-.354 1.168-.425 1.486-1.982 2.583-2.584.956-.495 2.124-.106 3.15-.424 1.097-.354 1.911-1.522 3.079-1.558 1.168-.07 2.088 1.027 3.256 1.274.602.142 1.345.071 1.805.496.495.495.425 1.38.92 1.876.46.46 1.203.389 1.84.53 1.239.319 2.053 1.735 1.699 2.938-.071.283.283.425.566.495.283.071.637.106.85.319.389.39.141 1.132.424 1.628.248.424.85.566 1.062 1.026.142.354.036.743.142 1.097.212.708 1.168.885 1.663 1.451.389.531.354 1.274.212 1.947z" fill="#241C19"></path><path d="M144.045 42.044c.283.318.389.743.389 1.097s-.106.672-.248.956c-.248.53-.602.955-.708 1.38-.035.212-.071.46 0 .637s.213.318.425.424c.212.107.531.213.743.46a.973.973 0 0 1 .248.46.7.7 0 0 1-.106.531l-.283-.212c.07-.106 0-.354-.142-.46-.177-.142-.389-.212-.672-.319-.142-.07-.284-.141-.425-.247a.965.965 0 0 1-.319-.425c-.177-.319-.177-.672-.141-.99.106-.673.425-1.133.601-1.593a2 2 0 0 0 .107-.638c0-.212-.107-.601-.213-.672l.744-.39z" fill="#241C19"></path><path d="M144.894 43.849s-4.955-5.061-8.883-3.327c-3.928 1.77-4.849 5.981-4.849 5.981s-1.592-6.441 4.247-8.494c5.627-1.982 9.591 4.282 9.591 4.282l-.106 1.558zm-6.335 13.2a4.03 4.03 0 0 1-3.008 1.31c-2.23 0-4.07-1.84-4.07-4.07a3.95 3.95 0 0 1 1.203-2.867c.106.213.248.425.39.637-.531.602-.885 1.38-.885 2.265 0 1.84 1.522 3.362 3.362 3.362.885 0 1.699-.354 2.3-.92.248.071.46.212.708.283z" fill="#fff"></path><path d="M132.755 54.006c0 .177-.035.389-.177.53l-.248-.247c.106-.106.071-.354-.07-.496-.142-.141-.39-.247-.638-.389a1.367 1.367 0 0 1-.389-.283c-.106-.142-.212-.283-.283-.46-.106-.354-.071-.672 0-.991.177-.637.566-1.097.779-1.522.07-.141.106-.283.141-.425.142.354.283.673.46 1.027-.283.425-.601.743-.743 1.132a1.32 1.32 0 0 0-.071.637c.036.177.177.319.39.496.212.141.495.283.672.566.106.07.177.248.177.425z" fill="#241C19"></path><path d="M153.281 49.122a4.05 4.05 0 0 1-4.176 4.07c-2.158-.071-3.928-1.876-3.928-4.035 0-.778.212-1.557.602-2.194.247-.39.566-.743.92-1.026.177-.142.389-.106.531.07a.336.336 0 0 1-.071.46c-.425.355-.779.78-.991 1.275-.319.672-.389 1.486-.177 2.265.318 1.274 1.451 2.265 2.76 2.442a3.355 3.355 0 0 0 3.823-3.327c0-1.84-1.522-3.362-3.362-3.362a5.29 5.29 0 0 0-.744.07l.036-.141c.07-.212.141-.39.177-.602.177-.035.354-.035.531-.035a4.07 4.07 0 0 1 4.069 4.07z" fill="#fff"></path><path d="M144.398 44.804c.071-.814.177-1.663.602-2.406.425-.708 1.239-1.274 2.053-1.097.672.141 1.132.707 1.415 1.31.46.99.46 2.158.071 3.149-.389.99-1.203 1.84-2.194 2.23-.531-1.133-1.274-2.089-1.947-3.186z" fill="#CF9055"></path><path d="M147.831 43.282c-.106-.424-.389-.813-.778-.884-.177-.036-.39-.036-.531.07a.948.948 0 0 0-.354.46c-.177.39-.283.815-.354 1.24-.071.424-.106.849-.071 1.309a4.164 4.164 0 0 1 .213-2.619c.106-.213.247-.425.46-.566a.792.792 0 0 1 .743-.036.86.86 0 0 1 .531.46c.07.142.141.354.141.566z" fill="#87380B"></path><path d="M145.779 43.601c.141-.248.46-.354.743-.248a.95.95 0 0 1 .566.602 1.58 1.58 0 0 1 0 .814 2.646 2.646 0 0 1-.354.708c.035-.248.106-.496.142-.743.035-.248.035-.496-.036-.708a.916.916 0 0 0-.389-.496.77.77 0 0 0-.672.071z" fill="#87380B"></path><path d="M167.402 131.971l-.424 2.583 8.069 1.982 1.415-3.114-9.06-1.451z" fill="#CF9055"></path><path d="M175.648 135.227l.814-1.805-9.024-1.451-.177 1.097c2.796.566 5.591 1.38 8.387 2.159z" fill="#87380B"></path><path d="M181.841 146.906a1.707 1.707 0 0 1-.707.424c-1.982.779-15.077-3.716-15.82-4.707-.212-.283-.248-.743-.212-1.274.106-1.38.814-3.256 1.026-3.787.319-.743.885-3.503.885-3.503l6.016 1.486 2.69.673-.496 1.415s3.292 3.716 4.991 5.557c.46.495.813.849.955.955.531.46 1.557 1.876.672 2.761z" fill="#6186D6"></path><path d="M181.841 146.906a1.717 1.717 0 0 1-.707.424c-1.982.779-15.077-3.716-15.82-4.707-.212-.283-.248-.743-.212-1.274 1.875 1.062 3.964 1.805 6.016 2.548 1.734.602 3.433 1.239 5.167 1.805 1.805.602 3.645 1.204 5.556 1.204zm-1.663-3.752c-.106.106-.248.213-.389.248-.39.142-.814.071-1.203-.035-1.345-.39-2.513-1.274-3.433-2.336-.885-1.062-1.558-2.336-2.088-3.645-.142-.354-.319-.744-.319-1.133 0-.283.071-.531.212-.743l2.69.672-.495 1.416c.035 0 3.326 3.716 5.025 5.556z" fill="#132762"></path><path d="M189.91 99.978c-.247-5.203-12.599-7.361-24.95-6.866 0 0-8.564 2.23-8.67 2.088-.142-.141-4.601-2.088-4.601-2.088l-7.468.779-5.627-1.31s-20.774 7.892-18.332 16.457c2.407 8.6 35.001 10.086 50.962 1.132l-2.265-9.201 4.53-.248s-6.476 31.498-6.264 31.498c.212 0 9.379 1.557 9.379 1.557s13.554-28.596 13.306-33.798z" fill="#241C19"></path><path d="M173.418 100.686l-1.911 9.343-.354.141-2.265-9.237 1.947-.106 2.583-.141z" fill="#CF9055"></path><path d="M171.507 110.029l-.354.141-2.265-9.237 1.947-.106.672 9.202z" fill="#87380B"></path><path d="M168.888 100.933c-2.76.284-5.485.531-8.246.779l-8.246.672-8.246.602-4.14.283-4.141.248 4.105-.389 4.106-.354 8.246-.673 8.246-.601c2.831-.248 5.591-.425 8.316-.567z" fill="#5C5C5C"></path><path d="M138.771 99.978c.743.389 1.38.849 2.017 1.345.638.495 1.275 1.026 1.805 1.628-.743-.39-1.38-.85-2.017-1.345-.601-.496-1.239-.991-1.805-1.628zm35.532-2.442a99.272 99.272 0 0 1-.566 3.15c-.212 1.061-.425 2.088-.637 3.149-.248 1.027-.46 2.089-.743 3.115l-.39 1.557c-.141.531-.283 1.026-.424 1.557.071-.531.177-1.062.247-1.592l.284-1.558c.212-1.061.424-2.088.637-3.149.247-1.027.46-2.088.743-3.115.283-1.061.531-2.088.849-3.114z" fill="#5C5C5C"></path><path d="M179.506 69.86l-2.407 1.912-4.884 3.857-3.574-.495-1.416 18.403c-2.017 1.77-12.564 3.397-12.564 3.397l-2.265-2.477-.176-.212-.107.672-.354 1.982c-2.831.248-13.554-3.822-13.554-3.822l-2.265-10.83.035-1.097c-.601.496-1.168.991-1.521 1.31-.107.106-.284.177-.425.212-1.522.46-4.955-.885-6.3-2.902-.318-.46-.637-.814-.991-1.062-1.38-1.026-2.902-.707-2.902-.707.142-2.053 6.76-6.654 8.069-8.954.956-1.664 3.363-4 4.672-5.167.248-.248.531-.496.814-.744l.035-.035c2.655-2.088 6.76-3.327 6.76-3.327s5.202 10.794 5.521 11.078L151.83 56.2c5.769-1.345 10.724.708 12.21 1.416v-.036s6.229 2.867 9.06 6.76c2.76 3.928 6.406 5.52 6.406 5.52z" fill="#6186D6"></path><path d="M163.368 62.252c-.142.53-.425.99-.814 1.238a1.631 1.631 0 0 1-.956.319c-.177 0-.389-.035-.566-.106-.496-.213-.85-.743-.956-1.416-.071-.39-.035-.778 0-1.168 0-.177.036-.318.036-.46.035-1.097-.248-2.159-.744-3.114-.07-.177-.177-.319-.283-.496-.177-.283-.354-.566-.495-.92-.036-.07-.036-.141-.071-.212.142.035.283.035.425.07.106.284.283.567.46.85.106.177.212.319.283.495.531.991.814 2.16.779 3.292 0 .177 0 .318-.036.495-.035.39-.035.743 0 1.097.071.567.354.991.743 1.168.354.142.814.071 1.133-.177a1.85 1.85 0 0 0 .672-1.061c.283-.956 0-2.018-.283-3.009l-.106-.389c-.142-.53-.283-1.203-.248-1.84.106.035.248.07.354.141 0 .567.142 1.168.248 1.628l.106.39c.319 1.061.602 2.158.319 3.185zm12.953 5.556l-.708.39c-.637.353-1.451.743-2.301.743h-.106c-.955-.036-1.769-.602-2.442-1.062-1.309-.885-2.583-1.876-2.831-3.362-.177-1.097.283-2.16.672-3.008l.39-.956c.106.07.212.142.283.212l-.389.885c-.354.814-.779 1.84-.637 2.831.212 1.345 1.415 2.3 2.654 3.115.637.424 1.415.955 2.265.99.778.036 1.557-.353 2.229-.707l.567-.283c.177.07.283.141.354.212zm-42.009 2.336c-.354 1.698-1.062 2.866-2.053 3.503a3.617 3.617 0 0 1-1.911.531c-.424 0-.849-.07-1.274-.177-.495-.141-.955-.354-1.451-.637.106-.07.177-.177.283-.247.425.247.85.424 1.274.53 1.062.284 2.124.177 2.902-.283.921-.566 1.558-1.663 1.912-3.256.283-1.309.353-2.654.247-3.999l.319-.318a13.943 13.943 0 0 1-.248 4.353zm-.389 12.563c-.106.036-.248.036-.354.071a3.903 3.903 0 0 0-1.203-1.415c-.885-.673-2.089-.991-3.221-.779-.248.035-.46.106-.672.177-.107-.07-.177-.177-.284-.283.248-.106.531-.212.885-.283 1.203-.213 2.513.141 3.504.85.566.424 1.026 1.025 1.345 1.662zm10.263.814c-.672 0-1.097-.637-1.38-1.168-.39-.743-.673-1.557-.92-2.37-.46-1.346-.885-2.584-1.77-3.646a6.94 6.94 0 0 0-.495-.566c-.213-.248-.46-.496-.673-.779-.531-.708-.672-1.45-.424-2.017.212-.495.743-.779 1.486-.814.778-.035 1.416.283 1.84.566.779.531 1.416 1.345 1.876 2.407.389.955.637 1.946.814 2.937l.637 2.938c.106.424.212.955.106 1.45-.106.46-.495.992-1.062 1.062h-.035zm-3.999-11.006h-.106c-.602.035-.991.248-1.168.637-.213.425-.071 1.062.354 1.663.177.248.424.496.637.743.177.177.354.39.531.567.884 1.097 1.344 2.442 1.805 3.751.283.779.53 1.593.92 2.336.177.39.566.99 1.097.955.389-.035.672-.424.743-.778.106-.425 0-.885-.106-1.274l-.637-2.938c-.213-.955-.425-1.946-.814-2.866-.425-.991-1.027-1.77-1.77-2.265a2.466 2.466 0 0 0-1.486-.531zm14.191 11.431c-.354 0-.743-.212-1.097-.637-1.061-1.274-1.38-3.15-.814-4.707.531-1.45 1.664-2.513 2.796-3.539.212-.177.389-.39.602-.566.849-.814 1.875-1.947 2.194-3.327.035-.177.071-.354.106-.566.106-.85.283-2.053 1.522-2.053.779 0 1.38.602 1.628 1.203.283.673.248 1.416.177 2.018-.212 2.017-.991 4.105-2.301 6.264-1.132 1.911-2.583 3.68-3.963 5.344-.142.141-.283.354-.531.46-.106.106-.212.106-.319.106zm1.699-9.201c-.212.176-.389.389-.602.566-1.097.99-2.194 2.052-2.689 3.397-.531 1.451-.248 3.186.778 4.389.284.318.673.637 1.027.46.141-.071.283-.213.389-.354 1.38-1.699 2.796-3.433 3.928-5.309 1.274-2.123 2.018-4.176 2.23-6.122.071-.531.106-1.239-.142-1.84-.247-.602-.778-.991-1.309-.991-.885 0-1.026.707-1.168 1.734-.035.212-.071.389-.106.566-.354 1.522-1.522 2.725-2.336 3.504zm9.874 11.148c-.177.743-.389 1.415-.354 2.123.036.885.46 1.805 1.203 2.584.177.176.39.353.602.53l-.035.425c-.319-.212-.567-.46-.814-.708-.779-.814-1.239-1.805-1.274-2.796-.036-.778.141-1.521.354-2.23.106-.424.247-.884.318-1.309.071-.495.071-.99.071-1.45 0-.32 0-.673.035-.992.071-1.061.354-1.84.85-2.406.354-.39.884-.708 1.486-.779l-.035.354c-.46.07-.885.319-1.168.637-.425.496-.673 1.203-.743 2.194-.036.319-.036.637-.036.956 0 .495 0 .99-.071 1.522-.141.46-.283.92-.389 1.345zm-20.774 9.626c-.248-.071-.496-.142-.743-.248-.283-.354-.567-.743-.779-1.239-.318-.672-.531-1.38-.743-2.052-.106-.354-.212-.673-.319-1.027-.424-1.238-.955-2.088-1.663-2.654-.672-.566-1.628-.85-2.654-.885-.39 0-.814.036-1.239.106l-.071-.353c.46-.071.885-.107 1.31-.107 1.097.036 2.123.354 2.866.956.991.779 1.487 1.982 1.77 2.796.106.354.212.672.354 1.026.212.672.424 1.38.743 2.017.319.744.708 1.274 1.168 1.664zm21.517-1.628c-.106.07-.212.106-.354.177-.814-.637-1.698-1.097-2.654-1.345-2.336-.566-4.848.39-5.946 2.265-.283.46-.46.99-.495 1.486-.106.036-.248.036-.354.071.036-.566.248-1.168.566-1.734 1.204-2.017 3.858-3.044 6.335-2.442 1.027.248 2.017.779 2.902 1.522zm-17.164-.319c-.283 0-.566-.07-.779-.248-.318-.247-.531-.707-.531-1.203 0-.424.107-.85.248-1.238.106-.39.248-.779.389-1.168.248-.779.531-1.558.673-2.336 0-.106.035-.177.035-.283.106-.743.283-1.663 1.416-1.699.743-.035 1.486.53 1.805 1.31.318.743.248 1.592.177 2.23-.177 1.273-.673 3.007-2.017 4.104-.425.319-.921.531-1.416.531zm-.743-2.619c-.106.39-.213.744-.213 1.133 0 .39.142.743.39.955.495.354 1.238.107 1.734-.283 1.274-.99 1.734-2.654 1.875-3.857.071-.602.142-1.38-.141-2.053-.283-.637-.849-1.097-1.451-1.097h-.035c-.779 0-.921.53-1.062 1.38 0 .106-.036.177-.036.283-.141.814-.424 1.593-.707 2.371-.107.425-.248.78-.354 1.168zm19.677-30.79c-.602 1.876-1.203 3.504-2.584 4.53a1.6 1.6 0 0 1-.955.355.977.977 0 0 1-.46-.107c-.46-.283-.567-.849-.319-1.734.46-1.592.991-3.185 1.557-4.742.107.07.213.106.319.177-.566 1.557-1.097 3.114-1.522 4.671-.106.39-.248 1.098.177 1.31.354.212.814-.106.991-.212 1.309-.956 1.911-2.584 2.513-4.424v-.036c.07.071.177.142.283.213z" fill="#81A3EB"></path><path d="M157.528 59.031c-.531-1.239-5.769-2.866-5.769-2.866l-2.123 14.651-5.521-11.077s-5.379 2.725-5.308 5.556c.07 2.831 5.591.213 5.591.213s-1.911 4.423-.743 4.954c1.026.425 4.919.814 5.981.92l2.442 23.535.106-.672.177.212-2.371-23.145c.637-.673 5.485-5.734 5.662-6.69.177-1.026-2.654-.99-2.654-.99s5.061-3.362 4.53-4.6z" fill="#132762"></path><path d="M149.211 76.196s-7.821-5.132-12.953-4.672c0 0 .885 1.203.814 1.168-.07-.035-1.274.602-1.167.99l13.059 3.717 1.946-.602 7.326-9.944-1.38.318.778-1.557s-2.229 1.805-2.229 1.734c0-.07 1.521-2.23 1.521-2.23s-6.688 4.46-7.715 11.078z" fill="#fff"></path><path d="M148.574 76.55l-12.705-3.15c-.212-.036-.389.106-.354.318l1.451 16.775c0 .142.106.248.248.284l13.484 2.335-1.487-15.678-.637-.884zm1.593-.213l7.892-9.59c.142-.177.46-.107.531.106l3.787 16.173a.276.276 0 0 1-.071.283L152.29 92.9s-1.415-6.9-1.415-7.077c-.036-.177-.708-9.485-.708-9.485z" fill="#FF500D"></path><path d="M150.13 76.337l-1.58.2 2.1 16.536 1.58-.2-2.1-16.536z" fill="#132762"></path><path d="M137.108 89.148c-.106 0-.248 0-.354-.035-.212.354-.425.743-.673 1.097-3.751 5.663-10.758 10.157-14.545 6.724-3.362-3.079 2.584-13.944 4.884-17.836.106-.142.177-.284.248-.425.354.248.707.602.991 1.062.955 1.486 3.043 2.583 4.671 2.902.319.07.602.106.885.106.991-2.336 2.654-4.389 2.654-4.389l.212 2.442s2.69-2.725 3.61-1.946c.354.318-2.088 3.397-2.088 3.397s5.132-2.972 5.521-2.583c.354.39-2.619 3.645-2.796 3.857.213-.106 4.212-2.37 4.636-1.344.496 1.097-4.246 7.148-7.856 6.971z" fill="#CF9055"></path><path d="M132.826 84.477l-5.38 3.468 5.769-5.167-.212.566a2.45 2.45 0 0 0-.177 1.133zm3.928 4.636c-.212.354-.425.743-.673 1.097-2.194-.99-2.902-4.388-2.972-4.6 1.097 2.194 3.645 3.503 3.645 3.503zm-4.388-6.441c-.885.142-1.77.212-2.584-.07-1.203-.425-2.053-1.523-2.725-2.62-.177-.283-.354-.601-.602-.85.106-.14.177-.282.248-.424.354.248.708.602.991 1.062.956 1.486 3.008 2.584 4.672 2.902z" fill="#87380B"></path><path d="M178.833 86.282c-3.645 1.805-12.847-3.928-15.784-5.875-1.699 2.088-4.424 3.61-5.096 3.185-.956-.566 1.875-4.211 2.017-4.388-.177.106-3.893 2.619-4.212 2.194-.318-.425 3.363-5.06 3.363-5.06s-3.433 1.946-3.681 1.556c-.637-1.026 4.424-5.237 4.424-5.237l-.496-2.16s1.982 1.169 3.433 2.938l5.026 1.593 4.317.601 4.884-3.857.425.637c3.114 4.707 5.415 11.856 1.38 13.873z" fill="#CF9055"></path><path d="M177.594 77.399l-5.414-1.77 4.884-3.857.424.637c-1.663 1.168-4.282 2.937-4.282 2.937l4.388 2.053zm-14.722-3.964s2.867 3.008.212 6.972c0 0 3.858-3.468-.212-6.972z" fill="#87380B"></path><path d="M32.777 53.015l-1.38 4.034s7.22 2.124 7.22 2.053c0-.07.46-3.468.46-3.468l-6.3-2.62z" fill="#FAB69D"></path><path d="M38.864 57.226c-.07.602-.142 1.203-.212 1.557-.071 0-.142-.035-.248-.035-1.628-.46-2.973-1.628-3.893-3.043a5.925 5.925 0 0 0 2.442 1.344 7.004 7.004 0 0 0 1.911.177z" fill="#D16552"></path><path d="M40.987 35.709c2.69.85 4.92 3.291 5.238 6.122.177 1.593-.177 3.398.779 4.707.283.39.637.673.885 1.062.247.39.318.956-.036 1.31-.318.318-.85.283-1.238.495-.602.319-.779 1.026-.92 1.663-.531 1.876-1.593 3.646-3.15 4.813-1.593 1.168-3.68 1.664-5.557 1.133-2.3-.637-4.034-2.69-4.813-4.92-.814-2.264-.85-4.706-.743-7.077.106-2.407.319-4.814 1.133-7.079.318-.849.637-1.203 1.45-1.592a10.46 10.46 0 0 1 3.257-.956c1.238-.141 2.512-.07 3.715.319z" fill="#FAB69D"></path><path d="M44.456 44.698c.035.637-.319 1.168-.743 1.203-.425 0-.779-.495-.779-1.132-.035-.637.319-1.168.743-1.203.425 0 .779.495.779 1.132z" fill="#241C19"></path><path d="M40.917 41.371c.247-.566.743-1.026 1.31-1.274.318-.106.636-.212.955-.177.318 0 .637.071.92.283a.336.336 0 0 1 .07.46c-.07.071-.14.142-.247.142h-.035c-.248.035-.496.035-.744.035-.247 0-.46.036-.708.071-.46.106-.884.354-1.309.708-.07.07-.177.07-.248-.035 0-.071 0-.142.036-.213z" fill="#FFAC54"></path><path d="M42.226 49.299c.212.354.46.672.779.885.318.247.672.389 1.097.495-.425.106-.885 0-1.239-.283-.39-.283-.637-.672-.637-1.097zm3.575-.425c.141 0 .176.035.247.07.036.072.071.142.036.249-.142 0-.177-.036-.248-.071-.035-.035-.07-.106-.035-.248z" fill="#D16552"></path><path d="M47.605 40.664c-.035-.177-.106-.354-.141-.531.142-.708.142-1.451-.035-2.124-.39-1.45-1.38-2.69-2.549-3.68-1.946-1.628-4.459-2.655-6.972-2.513-2.512.142-5.06 1.522-6.193 3.787-1.628.141-3.114 1.168-3.928 2.583-.814 1.416-1.062 3.115-.85 4.707.213 1.628.85 3.15 1.664 4.566.39.707.85 1.415.955 2.23.107.778-.141 1.556-.354 2.3-.106.318-.177.672-.141 1.026.035.354.283.672.637.743.39.07.814-.248 1.168-.07.495.212.354 1.132.885 1.344.247.106.53 0 .707-.212.177-.213.248-.46.319-.708.425-1.522.566-3.15.39-4.707-.178-1.84-.921-3.716-.956-5.52v-.496c.389.283.708.672.99 1.061.567.743.956 1.593 1.558 2.336.318.39.708.779 1.203.743.354 0 .708-.247.92-.566.212-.318.283-.708.283-1.062.071-.955-.212-1.875-.354-2.83-.141-.956-.141-1.947.319-2.797.778-.283 1.486-.53 2.3-.566.814-.035 1.699.212 2.23.85.248.282.39.636.672.849.283.248.743.354.991.106.425-.425-.07-1.239.319-1.699.318-.106.53.248.743.531.212.283.319.602.566.85.248.247.673.353.92.106.106-.107.142-.248.177-.39.036.425.106.85.213 1.274.389-.318.672-.707.884-1.168.142.107.319.142.425.036.07-.106.07-.248.035-.39z" fill="#FFCA64"></path><path d="M34.44 46.22c-.318-.956-.885-1.805-1.698-2.407-.496-.389-1.168-.708-1.77-.46-.743.283-.991 1.168-1.062 1.982-.07 1.239.142 2.548.92 3.504.779.955 2.16 1.522 3.292 1.026.566-1.239.743-2.371.318-3.645z" fill="#FAB69D"></path><path d="M30.901 46.538a1.413 1.413 0 0 1-.07-.672c.035-.212.14-.46.318-.637.177-.177.424-.283.672-.248.248.036.46.177.637.319.319.318.602.672.814 1.097.213.39.354.814.425 1.274a7.282 7.282 0 0 0-.602-1.168c-.248-.354-.495-.708-.814-.99a1.01 1.01 0 0 0-.495-.284c-.177-.035-.354.035-.531.142-.319.283-.425.743-.354 1.167z" fill="#D16552"></path><path d="M32.883 46.043a.61.61 0 0 0-.637.212.804.804 0 0 0-.177.637c.035.213.106.46.248.637l.424.637c-.212-.141-.424-.283-.601-.495-.177-.212-.319-.46-.354-.743-.036-.283.07-.602.283-.779.283-.248.601-.283.814-.106z" fill="#D16552"></path><path d="M96.515 102.951l.354 2.866 9.272-.389.496-3.787-10.122 1.31z" fill="#FFD8CF"></path><path d="M116.652 114.382c-.106.212-.318.46-.602.672-1.875 1.451-17.305.779-18.438-.071-.319-.247-.53-.707-.637-1.309-.319-1.522-.141-3.716-.106-4.353.106-.885-.177-4.035-.177-4.035l6.901-.318 3.079-.142-.071 1.664s4.707 2.937 7.114 4.388c.637.389 1.132.673 1.309.743.743.354 2.3 1.522 1.628 2.761z" fill="#241C19"></path><path d="M116.652 114.382c-.106.212-.319.46-.602.672-1.875 1.451-17.306.779-18.438-.071-.319-.247-.531-.707-.637-1.309 2.371.566 4.813.708 7.255.849 2.053.106 4.07.248 6.122.319 2.088.071 4.247.141 6.3-.46zm-2.937-3.504a1.1 1.1 0 0 1-.319.389c-.354.284-.849.354-1.309.354-1.558.036-3.115-.566-4.389-1.415-1.309-.885-2.371-2.018-3.362-3.221-.283-.354-.566-.708-.672-1.132-.071-.283-.106-.602 0-.885l3.079-.142-.071 1.664c-.071 0 4.636 2.973 7.043 4.388z" fill="#fff"></path><path d="M83.916 88.335c.07.247 10.688 18.155 12.139 18.261 1.45.106 5.521-1.805 5.521-1.805l-14.723-20.35-2.937 3.894z" fill="#132762"></path><path d="M100.514 105.216l.708 2.796 9.131-1.628v-3.787l-9.839 2.619z" fill="#FAB69D"></path><path d="M110.353 105.145v-2.548l-9.874 2.619.46 1.84c2.654-.637 8.918-1.805 9.414-1.911z" fill="#D16552"></path><path d="M121.961 113.886a1.958 1.958 0 0 1-.531.744c-1.664 1.698-17.058 3.043-18.262 2.371-.354-.177-.601-.637-.814-1.204-.531-1.451-.637-3.68-.672-4.317-.035-.885-.708-3.964-.708-3.964l6.795-1.203 3.008-.531.142 1.663s5.025 2.301 7.609 3.398a27.94 27.94 0 0 0 1.415.566c.85.212 2.513 1.168 2.018 2.477z" fill="#241C19"></path><path d="M121.961 113.886a1.958 1.958 0 0 1-.531.744c-1.664 1.698-17.059 3.043-18.262 2.371-.354-.177-.601-.637-.814-1.204 2.407.248 4.849.071 7.291-.141 2.017-.142 4.07-.319 6.122-.496 2.088-.177 4.247-.389 6.194-1.274zm-3.363-3.079c-.07.177-.141.319-.283.425-.318.319-.778.46-1.238.531-1.558.212-3.15-.142-4.566-.849-1.415-.673-2.619-1.699-3.786-2.761-.319-.318-.638-.602-.814-1.026-.107-.283-.177-.602-.107-.885l3.009-.531.141 1.664c0 .035 5.061 2.335 7.644 3.432z" fill="#fff"></path><path d="M38.085 105.393s7.822 13.625 18.333 11.041c10.51-2.583 29.798-29.373 29.87-29.126.07.248 13.164 19.288 13.164 19.288l12.387-2.053s-15.572-33.09-21.8-35.744c-6.194-2.654-31.958 15.572-39.532 25.693-7.502 10.122-12.422 10.901-12.422 10.901z" fill="#6186D6"></path><path d="M44.951 102.385c1.38 1.167 2.831 2.265 4.424 3.079 1.593.813 3.397 1.309 5.202 1.061a7.39 7.39 0 0 0 2.549-.814c.778-.424 1.521-.92 2.194-1.522 1.38-1.167 2.548-2.548 3.751-3.892a284.506 284.506 0 0 1 15.006-15.643c1.309-1.239 2.618-2.513 3.928-3.716.672-.602 1.31-1.239 2.123-1.734.39-.248.814-.46 1.274-.566.46-.107.956-.142 1.416-.036.46.106.885.319 1.274.602.39.283.708.602 1.026.92.602.672 1.24 1.345 1.805 2.017a65.915 65.915 0 0 1 3.433 4.212 77.25 77.25 0 0 1 5.946 9.095 88.521 88.521 0 0 1 2.477 4.813 78.553 78.553 0 0 1 2.159 4.99c-.708-1.663-1.416-3.327-2.23-4.954a101.624 101.624 0 0 0-2.548-4.778c-1.805-3.115-3.787-6.123-6.016-8.99-1.097-1.415-2.23-2.83-3.433-4.175l-1.805-2.018c-.602-.637-1.31-1.274-2.123-1.45-.85-.178-1.7.106-2.442.566-.743.46-1.416 1.097-2.053 1.698-1.31 1.239-2.619 2.478-3.928 3.752-5.203 5.025-10.193 10.227-15.041 15.571-1.204 1.345-2.407 2.726-3.787 3.893-.708.567-1.451 1.098-2.265 1.522a7.52 7.52 0 0 1-2.619.814c-1.84.213-3.645-.318-5.238-1.168-1.698-.814-3.114-1.946-4.459-3.149z" fill="#132762"></path><path d="M47.96 97.678c.636.53 1.167 1.132 1.663 1.805.495.672.885 1.38 1.203 2.158.319.744.566 1.558.708 2.371l.106.602.07.602v.601c0 .213 0 .425-.035.602-.035-.212-.035-.389-.07-.602l-.106-.601-.107-.602-.141-.602c-.213-.778-.46-1.557-.779-2.264a15.024 15.024 0 0 0-1.097-2.124 18.127 18.127 0 0 0-1.416-1.946zm38.15-10.9c-.141-.673-.141-1.31-.07-1.983.035-.637.141-1.309.353-1.946.071.672.036 1.31 0 1.982-.07.637-.141 1.274-.283 1.946zm.602.105c.035-.495.177-.99.318-1.45.177-.46.354-.92.638-1.345-.036.495-.178.99-.32 1.45-.176.46-.353.92-.636 1.346z" fill="#132762"></path><path d="M62.08 80.23l-.672-.53 8.033-18.12 2.442.282-8.67-4.565.106-.177 9.838 5.309-3.22-.319-7.857 18.12z" fill="#F0E0C0"></path><path d="M69.937 62.11L62.08 80.23l3.22 1.168 8.353-18.899-3.716-.389z" fill="#FF500D"></path><path d="M54.754 75.523l6.795 3.893.142-.319-6.583-3.715 8.21-18.262 9.84 5.309.495.07L63 56.872l-8.246 18.651z" fill="#FF500D"></path><path d="M71.883 61.862l-8.67-4.565-8.105 18.085 6.583 3.715 7.75-17.518 2.442.283z" fill="#fff"></path><path d="M56.913 77.823l1.487 1.168c.495.284.92.637 1.345.991.389-.672.672-1.238.672-1.238l-3.256-1.912-.602.496c.107.177.213.319.354.495z" fill="#FAB69D"></path><path d="M58.577 73.046c-.036.814-.284 1.628-.531 2.406-.213.637-.39 1.31-.673 1.911-1.415-.955-2.831-1.875-2.831-1.875.035-.92.035-1.876.248-2.796.248-.991.814-1.84 1.345-2.725.495-.743.99-1.522 1.45-2.265.142-.212.355-.46.567-.354.212.07.248.318.248.53.035.992-.319 1.983-.637 2.938.601.566.849 1.416.814 2.23zM69.3 83.273c1.628-2.406 3.291-4.848 4.034-7.644.142-.601.283-1.203.213-1.805-.071-.601-.39-1.097-.885-1.45.141-.39.141-.85-.036-1.24a1.662 1.662 0 0 0-.814-.884c.213-.673.071-1.416-.318-1.982-.07-.106-.248-.106-.354 0-.85 1.31-1.416 2.76-1.982 4.176-.495 1.274-1.097 2.442-1.592 3.716-.496-.708-.956-1.416-1.451-2.123-.142-.213-.319-.425-.531-.425-.283 0-.46.318-.567.602-.601 1.805-.46 3.751-.318 5.627.106 1.521 1.911 2.3 3.044 3.326.247.248.566.496.92.496.283 0 .743-.071.637-.39z" fill="#FAB69D"></path><path d="M28.672 61.862c.035-1.203.106-2.442.637-3.539.495-1.097 1.592-2.017 2.796-1.946 1.097.07 1.981.85 3.008 1.203 1.274.46 2.796.212 3.928.956.814.53 1.274 1.486 1.451 2.477.142.956.036 1.947-.106 2.937 5.344 7.185 10.05 14.51 14.404 22.332-1.911 3.539-3.291 7.255-5.238 10.794-1.911 3.539-4.495 6.901-8.069 8.777-.92.495-1.982.884-3.044.743-1.097-.142-2.017-.814-2.83-1.557-2.124-1.911-3.823-4.247-5.38-6.654-3.575-5.52-6.547-11.572-7.326-18.084-.778-6.512 1.026-13.909 5.769-18.439z" fill="#241C19"></path><path d="M62.576 81.115s.778-1.31 1.521-1.805a.536.536 0 0 1 .602.035l4.92 3.858c.212.177.247.46.106.672-.425.708-1.345 2.159-1.735 2.336l-5.414-5.096z" fill="#474544"></path><path d="M30.229 74.638c4.424 7.857 10.546 14.652 17.235 20.668 1.486 1.31 3.079 2.655 5.025 3.008 1.77.319 3.61-.212 5.203-1.026 4.53-2.3 7.573-6.618 10.405-10.83a.69.69 0 0 0 0-.813c-.708-1.133-1.735-2.194-2.761-2.973l-2.3-1.699a.755.755 0 0 0-.814-.035c-2.867 1.663-5.698 2.937-8.565 4.636a117.873 117.873 0 0 1-11.502-15.572c-.778-1.274-1.592-2.583-2.83-3.397-2.053-1.345-4.991-.885-6.831.778-1.84 1.664-3.468 5.132-2.265 7.255z" fill="#241C19"></path><path d="M58.824 82.813l.814-2.017-5.202-5.025-.283.885c-2.654-3.469-5.556-7.114-8.494-10.37-.743-.814-1.522-1.663-2.513-2.159-.99-.495-2.265-.637-3.185-.035-.955.602-.53 2.017-.283 3.114.248 1.133.814 2.16 1.345 3.15 2.619 4.672 5.84 9.025 9.024 13.342.673.92 1.416 1.876 2.478 2.3 1.239.496 2.654.142 3.857-.424 1.204-.566 2.16-1.133 3.433-1.451-.354-.46-.672-.885-.99-1.31z" fill="#241C19"></path><path d="M60.24 79.522l-.99 1.699s-3.398-1.557-5.062-4.707l.354-1.026s1.416.92 2.831 1.875c1.31.885 2.655 1.84 2.867 2.16zm-28.95-3.15a118.63 118.63 0 0 0 4 5.415c1.38 1.77 2.796 3.504 4.317 5.132a99.976 99.976 0 0 0 4.636 4.848l1.204 1.168 1.238 1.133 1.239 1.132 1.274 1.133-1.31-1.062-1.309-1.062-1.274-1.097-1.239-1.132c-1.628-1.522-3.185-3.15-4.707-4.814-1.486-1.698-2.937-3.397-4.246-5.202-1.416-1.805-2.655-3.68-3.822-5.592zm9.98-7.785c.92 1.45 1.841 2.902 2.797 4.317a178.69 178.69 0 0 0 3.008 4.176c1.026 1.38 2.123 2.69 3.22 4a88.012 88.012 0 0 0 3.433 3.822l-.141-.036c1.804-.602 3.61-1.274 5.273-2.194-.814.53-1.664.956-2.513 1.38-.885.39-1.77.743-2.654 1.062-.036 0-.106 0-.142-.035a71.554 71.554 0 0 1-3.503-3.787 69.92 69.92 0 0 1-3.221-4.035 69.684 69.684 0 0 1-2.937-4.247 60.576 60.576 0 0 1-2.62-4.424zM52.88 85.68a3.018 3.018 0 0 1-.885.46 2.317 2.317 0 0 1-.991.106c.283-.212.566-.354.885-.46.318-.07.637-.141.99-.106zm.601.743a3.89 3.89 0 0 1-.566.531c-.212.142-.39.283-.672.425.035-.283.247-.531.46-.672.248-.213.495-.32.778-.284zm-23.853-9.555a57.739 57.739 0 0 0 1.947 7.361c.814 2.407 1.734 4.778 2.866 7.078a61.28 61.28 0 0 0 3.716 6.654l1.062 1.592 1.132 1.557 1.168 1.522 1.204 1.487-1.274-1.416-1.24-1.486-1.167-1.522-1.097-1.557c-1.451-2.124-2.69-4.354-3.822-6.654a51.606 51.606 0 0 1-2.796-7.149 55.455 55.455 0 0 1-1.699-7.467z" fill="#474544"></path><path d="M40.917 63.844c.92 1.84 1.875 3.68 2.972 5.415a56.125 56.125 0 0 0 3.469 5.096c1.239 1.663 2.583 3.22 3.964 4.707l1.061 1.133 1.097 1.097 1.133 1.061 1.132 1.027-1.203-.956-1.168-1.026-1.132-1.062-1.097-1.097a51.744 51.744 0 0 1-4.07-4.707c-1.239-1.663-2.407-3.362-3.433-5.167a44.421 44.421 0 0 1-2.725-5.52z" fill="#474544"></path><path d="M45.411 127.052h-3.503v27.356h3.503v-27.356zm112.471 0h-3.504v27.356h3.504v-27.356z" fill="#945B3B"></path><path d="M34.865 132.608h-3.504v27.357h3.504v-27.357zm132.608 0h-3.504v27.357h3.504v-27.357z" fill="#CF8A65"></path><path d="M162.872 129.777c-9.874-4.106-34.541-7.008-63.455-7.008-28.879 0-53.581 2.902-63.455 7.008h-4.6v3.963c0 6.052 30.47 10.971 68.055 10.971 37.585 0 68.056-4.919 68.056-10.971v-3.963h-4.601z" fill="#CF8A65"></path><path d="M99.417 140.748c37.586 0 68.056-4.912 68.056-10.971 0-6.06-30.47-10.971-68.056-10.971s-68.056 4.911-68.056 10.971c0 6.059 30.47 10.971 68.056 10.971z" fill="#DBAE83"></path><path d="M131.587 122.946c.778-2.406.106-5.061-1.097-7.29-1.168-2.23-2.796-4.212-4.106-6.37-1.309-2.159-2.264-4.672-1.911-7.185-.53 1.876-1.238 3.575-1.451 5.486-.212 1.946-.141 3.928.46 5.768.637 1.982 1.876 3.716 3.327 5.203 1.451 1.522 3.15 3.15 4.778 4.388z" fill="#02909C"></path><path d="M124.579 101.889c-.53 1.982-.637 4.848 0 6.866.708 2.335 1.982 4.494 3.256 6.582 1.274 2.088 2.619 4.212 3.469 6.512.92 2.477 1.309 5.132 1.663 7.751" stroke="#02737D" stroke-miterlimit="10" stroke-linecap="round" stroke-linejoin="round"></path><path d="M134.312 121.955c-.248-3.397-2.301-6.476-2.513-9.909-.177-2.513.673-4.955 1.345-7.397.672-2.442 1.132-5.06.212-7.432 2.973 2.76 4.389 6.866 4.07 10.901-.354 4.6-3.291 9.237-3.114 13.837z" fill="#02909C"></path><path d="M133.144 97.253c1.947 2.619 2.407 6.087 2.23 9.343-.213 3.468-1.027 6.83-1.239 10.298-.248 4.389.566 8.742 1.416 13.06" stroke="#02737D" stroke-miterlimit="10" stroke-linecap="round" stroke-linejoin="round"></path><path d="M138.913 122.734c-1.558-2.194-1.664-5.132-.92-7.715.743-2.584 2.264-4.849 3.751-7.043 1.522-2.194 3.079-4.424 3.999-6.936.602 3.185.849 6.476.354 9.697-.46 2.972-1.84 5.804-3.928 7.962-1.168 1.274-2.584 2.442-3.256 4.035z" fill="#02909C"></path><path d="M145.778 101.04c-.389 2.866-1.415 5.662-2.548 8.352-1.345 3.149-2.902 6.264-3.822 9.555-.92 3.327-1.132 6.937.106 10.122" stroke="#02737D" stroke-miterlimit="10" stroke-linecap="round" stroke-linejoin="round"></path><path d="M126.774 126.131v.425a8.473 8.473 0 0 0 8.493 8.494 8.474 8.474 0 0 0 8.494-8.494v-.425h-16.987z" fill="#fff"></path><path d="M94.391 119.62c-1.663.778-10.652 4.813-13.236 7.892-.247.283-.141.743.213.92 3.327 1.557 18.403 8.564 19.783 8.706 1.31.141 9.025-5.38 11.502-7.184a.41.41 0 0 0 .177-.248c.177-.389-.319-.743-.672-.531l-.248.142-1.522-.779.142-.106c.177-.142.177-.425-.036-.531l-15.572-8.281a.48.48 0 0 0-.53 0z" fill="#6186D6"></path><path d="M110.459 128.538s-9.096 6.476-8.317 6.972c.779.495 9.839-6.193 9.839-6.193l-1.522-.779z" fill="#fff"></path><path d="M93.86 119.478c-1.167.566-7.608 3.433-9.484 5.662a.406.406 0 0 0 .142.637c2.37 1.098 13.165 6.123 14.156 6.229.92.106 6.441-3.857 8.246-5.131.071-.036.106-.107.141-.177.107-.284-.212-.531-.46-.39l-.177.106-1.061-.566.106-.071c.141-.106.106-.318-.036-.389l-11.183-5.91a.731.731 0 0 0-.39 0z" fill="#FFCA64"></path><path d="M105.363 125.884s-6.512 4.636-5.946 4.99c.566.354 7.043-4.424 7.043-4.424l-1.097-.566z" fill="#fff"></path><path d="M71.565 123.159c0-.602-1.947-1.062-4.318-1.062-2.37 0-4.317.46-4.317 1.062 0 0-.779 11.962 4.317 11.997 6.123 0 4.318-11.997 4.318-11.997z" fill="#6186D6"></path><path d="M70.68 126.45c0 .425-1.522.778-3.433.778-1.91 0-3.432-.353-3.432-.778 0-.425 1.521-.779 3.432-.779s3.433.319 3.433.779zm-3.433-2.053c-2.23 0-4.494-.424-4.494-1.238 0-.814 2.265-1.239 4.494-1.239 2.23 0 4.495.425 4.495 1.239 0 .814-2.265 1.238-4.495 1.238zm0-2.123c-2.548 0-4.14.531-4.14.885 0 .353 1.627.884 4.14.884 2.548 0 4.14-.531 4.14-.884 0-.354-1.627-.885-4.14-.885z" fill="#fff"></path><path d="M67.177 134.519c-.638 0-1.168-.248-1.628-.672-1.947-1.912-1.735-7.185-1.7-7.397h.355c0 .035-.213 5.344 1.592 7.149.425.424.92.601 1.522.566.637-.035 1.168-.318 1.593-.814 1.734-1.982 1.38-6.866 1.38-6.901l.354-.035c0 .212.354 5.06-1.451 7.148-.496.567-1.097.885-1.84.921-.036.035-.107.035-.177.035z" fill="#fff"></path></g><defs><clipPath id="clip0_163_1522"><path fill="#fff" transform="translate(.005)" d="M0 0H207.989V160H0z"></path></clipPath></defs></svg>