<svg xmlns="http://www.w3.org/2000/svg" xmlns:xlink="http://www.w3.org/1999/xlink" fill="none" height="160" width="158"><clipPath id="a"><path d="m0 0h157.869v160h-157.869z" transform="translate(.066)"></path></clipPath><g clip-path="url(#a)"><path d="m157.176 138.401c-.236-.094-.521-.189-.805-.284-.521-.189-1.137-.331-1.563-.568-.237-.095-.426-.237-.521-.379 0 0 0-.047.047-.047.143-.332.237-.806.19-1.185 0-.189-.047-.426-.142-.615a3.614 3.614 0 0 1 -.095-.711c-.047-.284-.095-.568-.047-.852.047-.427.189-.806.331-1.184.095-.285.19-.569.19-.853v-.237c-.095-.758-.663-1.373-.805-2.084-.143-.71.236-1.374.473-2.084.095-.284.142-.521.19-.805.047-.521-.095-.995-.237-1.516-.048-.189-.095-.426-.142-.616a3.594 3.594 0 0 1 -.095-.71c0-.853.426-1.658.426-2.51 0-.285-.047-.569-.047-.853-.047-.237-.047-.474-.095-.711a1.162 1.162 0 0 1 0-.568v-.095c.048-.284.095-.521.19-.805.094-.284.142-.568.189-.852.095-.664-.095-1.327-.331-1.942.142-.379.284-.711.473-.995.474-.853 1.137-1.611 1.942-2.416.711-.71.474-1.279-.142-1.752-1.895.852-3.836 1.658-5.731 2.51-4.926 2.179-9.378 5.163-14.02 7.91v37.087c2.321-1.942 4.499-4.026 6.82-5.968 3.316-2.747 6.679-5.494 9.71-8.526l4.263-4.263c-.142-.236-.331-.378-.616-.521z" fill="#f0eadd"></path><path d="m154.619 118.177a4.993 4.993 0 0 0 -.19.805l-16.72 7.436-.237-.616zm-.095 2.131a300.228 300.228 0 0 0 -16.531 8.336l-.331-.568a263.87 263.87 0 0 1 16.767-8.431c0 .189.048.426.095.663zm-.142 4.689-16.341 8.052-.284-.568 16.483-8.1c0 .19.047.379.142.616zm.189 1.516c0 .284-.094.521-.189.805l-16.767 8.147-.285-.616zm.142 5.21c0 .284-.094.568-.189.853-5.4 3.126-10.894 6.157-16.341 9.141l-.284-.568c5.636-3.079 11.273-6.205 16.814-9.426zm-.331 3.6a233.717 233.717 0 0 0 -16.199 10.752l-.379-.521c5.305-3.837 10.847-7.531 16.483-10.894 0 .189.047.426.095.663zm.426 2.226-15.915 11.557-.379-.521 15.773-11.462s0 .047-.047.047c.142.142.379.284.568.379z" fill="#f0ddb6"></path><path d="m157.934 139.349c-.236 1.421-2.131 2.794-3.126 3.789l-5.02 5.021c-2.937 2.936-6.111 5.589-8.953 8.667-1.373 1.469-2.368 3.032-4.357 3.174l-1.468-41.871s12.362-5.779 12.978-6.015c.426-.142 5.162-1.563 8.052-2.369 1.136.521 1.8 1.184.852 2.132-.805.805-1.468 1.515-1.942 2.415-4.641 2.085-16.625 7.532-16.625 7.532l1.374 30.55c0-.095 12.694-10.847 16.767-14.257.284.095.568.19.805.284.379.237.711.521.663.948z" fill="#92aeeb"></path><path d="m157.082 110.503-19.041 8.621a3.323 3.323 0 0 0 -1.705 1.705c-.19.426-.284.947-.284 1.468l1.326 37.514c-.474.189-.995.236-1.611.236-8.336-.568-16.625-1.042-24.961-1.563-5.826-.379-11.7-.758-17.525-1.136-8.195-.521-16.341-1.09-24.535-1.658-7.674-.521-15.3-.995-22.925-1.516-9.379-.616-18.757-1.326-28.088-1.942-2.795-.189-5.542-.426-8.336-.521-2.369-.047-3.837-1.042-4.879-3.221-2.842-6.015-4.642-12.22-4.357-18.899.189-4.736 1.468-9.188 3.789-13.309a6.837 6.837 0 0 1 2.415-2.511c.237-.142.521-.331.806-.426a5545.661 5545.661 0 0 0 34.671-15.204c1.184-.521 2.368-.71 3.694-.521 10.231 1.137 20.462 2.131 30.693 3.221 10.136 1.089 20.32 2.179 30.456 3.268 8.952.947 17.952 1.847 26.904 2.794 4.168.427 8.289.9 12.409 1.327 2.084.237 4.168.473 6.205.663.711 0 4.026.521 4.879 1.61z" fill="#6186d6"></path><path d="m137.378 159.763c-.474.19-.995.237-1.611.237-8.336-.568-16.625-1.042-24.961-1.563-5.826-.379-11.7-.758-17.525-1.137-8.195-.521-16.341-1.089-24.535-1.658-7.674-.521-15.3-.994-22.925-1.515-9.379-.616-18.757-1.327-28.088-1.942-2.795-.19-5.542-.427-8.336-.521-2.369-.048-3.837-1.042-4.879-3.221-2.842-6.016-4.642-12.22-4.357-18.899.189-4.736 1.468-9.189 3.789-13.31a6.841 6.841 0 0 1 2.415-2.51c27.235 1.563 116.045 6.631 129.971 7.152-.19.427-.284.948-.284 1.469z" fill="#3e68bd"></path><g fill="#132762"><path d="m31.658 153.132c-.19 0-.331 0-.52-.047a23.023 23.023 0 0 0 -4.5-7.626c-.095-.095-.237-.237-.332-.379-.142-.19-.332-.332-.474-.521l-.426-.426a22.365 22.365 0 0 0 -3.363-2.653c-.331-.237-.71-.426-1.042-.616-.047 0-.047-.047-.095-.047a14.27 14.27 0 0 0 -1.705-.852 1.663 1.663 0 0 0 -.426-.19c-.19-.095-.379-.142-.521-.237-.237-.095-.426-.189-.663-.284-1.279-.568-2.605-1.042-3.884-1.516-.426-.142-.853-.331-1.279-.473-.9-.332-1.8-.663-2.7-1.09-.142-.047-.284-.142-.426-.189a2.86 2.86 0 0 0 -.568-.237l-.569-.284c-1.752-.853-3.505-1.847-5.02-3.174-1.232-1.042-2.274-2.226-3.032-3.505 0-.284.047-.568.047-.852.758 1.468 1.895 2.842 3.269 4.026.426.379.852.71 1.326.994.52.379 1.09.711 1.658 1.042.757.474 1.563.853 2.368 1.232.047.047.142.047.19.095a46.01 46.01 0 0 0 3.646 1.515c.285.095.521.19.806.285.047.047.142.047.19.094.094.048.189.095.283.095.048 0 .095.047.142.047 2.18.806 4.453 1.658 6.537 2.795.237.142.474.237.663.379.142.095.284.189.474.284l.426.284c.047.048.095.048.142.095a22.84 22.84 0 0 1 5.779 5.305c.236.284.426.568.615.852.048.048.095.143.142.19l.285.426c1.089 1.563 1.942 3.316 2.557 5.163z"></path><path d="m6.365 134.47-.284-.142c-1.042-.474-1.753-2.226-1.99-2.794-.378-1.09-.52-2.227-.378-3.316.047-.332.142-.711.379-.995.236-.284.71-.521 1.136-.331.427.189.569.615.664.947.236.9.378 1.942.473 3.126 0 .19.048.379.048.569.047.852.142 1.752 0 2.557zm-2.131-6.157a6.263 6.263 0 0 0 .331 3.078c.332.853.853 1.895 1.421 2.321.048-.663 0-1.421-.047-2.131 0-.19-.047-.379-.047-.569a14.036 14.036 0 0 0 -.474-3.031c-.047-.237-.19-.568-.379-.663-.19-.095-.426.047-.568.189a1.598 1.598 0 0 0 -.237.806zm1.61 13.215c-.094 0-.19 0-.284-.048-.331-.094-.616-.379-.758-.71-.142-.332-.094-.711-.094-.948.094-1.089.615-2.131 1.42-2.936a5.967 5.967 0 0 1 2.795-1.658l.142.474a5.585 5.585 0 0 0 -2.605 1.563c-.71.758-1.184 1.705-1.279 2.7 0 .189-.047.473.048.71.094.237.236.379.426.426.284.095.568-.094.947-.473a11.362 11.362 0 0 0 2.747-4.737l.474.142a11.714 11.714 0 0 1 -2.842 4.926c-.142.095-.616.569-1.137.569zm8.242-4.026-.474-.095c.379-1.753.426-3.6.095-5.4-.048-.331-.142-.71-.332-.995-.19-.284-.473-.473-.758-.473-.284 0-.568.189-.71.521-.142.331-.19.71-.19 1.042-.047 1.847.569 3.694 1.753 5.115l-.379.285a8.346 8.346 0 0 1 -1.847-5.447c0-.379.047-.853.284-1.232.237-.474.663-.758 1.09-.758.426 0 .9.237 1.136.663.237.379.332.806.38 1.184.378 1.848.33 3.742-.048 5.59zm-.805 8.431c-.427 0-.853-.095-1.09-.474-.19-.332-.237-.711-.047-1.232.237-.663.616-1.326 1.231-2.036a10.247 10.247 0 0 1 4.879-3.079l.142.474c-1.8.521-3.41 1.563-4.642 2.936-.568.663-.947 1.279-1.136 1.895-.095.379-.095.663 0 .852.189.332.71.332 1.089.19 1.042-.284 1.894-1.09 2.51-1.753 1.137-1.231 2.037-2.605 2.795-4.073l.426.189c-.758 1.516-1.705 2.937-2.842 4.169-.663.71-1.563 1.61-2.747 1.894-.237 0-.379.048-.568.048zm8.904-4.784-.473-.095c.473-2.037.947-4.31.426-6.442-.095-.284-.19-.616-.379-.852a.766.766 0 0 0 -.71-.285c-.237.048-.427.285-.616.711-.38.947-.427 2.084-.19 3.316.19 1.042.616 2.036 1.137 3.22l-.426.19c-.569-1.184-.948-2.226-1.184-3.316-.237-1.326-.19-2.557.236-3.552.237-.569.522-.9.948-.995.379-.095.852.048 1.184.426.284.332.379.711.474 1.042.568 2.227.047 4.595-.427 6.632zm-1.942 9.046c-.236 0-.426-.047-.663-.189-.568-.379-.615-1.137-.426-1.753.284-.757.852-1.515 1.8-2.178 1.468-1.09 3.22-1.753 5.02-1.99l.048.474c-1.753.237-3.41.9-4.831 1.895-.853.615-1.421 1.278-1.658 1.942-.142.426-.142.947.237 1.184.236.142.615.142 1.184-.142 2.179-.995 4.12-2.605 5.447-4.595l.379.284a13.514 13.514 0 0 1 -5.684 4.737c-.19.189-.521.331-.853.331zm8.905-2.273-.379-.284a25.66 25.66 0 0 0 3.41-5.542c.332-.758.663-1.658.38-2.416-.095-.331-.427-.71-.806-.805-.426-.047-.852.237-1.326.805-1.658 2.132-2.321 5.021-1.705 7.674l-.474.094c-.616-2.794.047-5.826 1.8-8.052.568-.758 1.184-1.089 1.8-.994.52.094.995.521 1.184 1.089.332.947-.047 1.895-.426 2.747a24.633 24.633 0 0 1 -3.458 5.684zm85.305-17.809c-3.41.047-8.194-.474-12.41-3.363-3.031-2.084-5.257-5.021-7.436-7.863l.379-.284c2.131 2.794 4.358 5.731 7.294 7.72 3.316 2.274 7.768 3.458 12.457 3.269 3.789-.143 7.863-1.042 12.836-2.89 2.984-1.137 6.3-2.652 8.052-5.447l.379.237c-1.8 2.937-5.21 4.5-8.289 5.637-4.973 1.847-9.094 2.794-12.978 2.889-.047.095-.142.095-.284.095z"></path><path d="m132.12 125.187h-.094c-1.042-.095-2.369-.142-3.363-.664-.142-.094-.332-.189-.474-.331-.142-.19-.237-.474-.142-.663.047-.19.237-.379.426-.474.19-.095.379-.095.521-.095.616 0 1.279.19 1.942.521.569.285 1.137.711 1.658 1.042l-.284.379c-.048-.047-.142-.094-.19-.142zm-3.126-1.8c-.095 0-.189 0-.284.047s-.142.095-.189.142c0 .048 0 .142.047.237.095.095.189.189.331.237.853.473 2.132.568 3.127.616a19.014 19.014 0 0 0 -1.279-.806c-.616-.331-1.184-.473-1.705-.473zm-1.326 7.105c-.142 0-.237-.048-.332-.095-.284-.142-.379-.474-.284-.9.142-.711.521-1.374 1.042-2.037.474-.568.995-.995 1.658-1.516l.284.379c-.616.521-1.137.948-1.563 1.469-.521.615-.805 1.231-.947 1.847-.048.189-.048.379.047.426.048.048.19 0 .332-.047.852-.426 1.373-1.232 1.705-1.8a9.811 9.811 0 0 0 .758-2.463l.473.095c-.189.852-.379 1.752-.805 2.557-.331.664-.9 1.516-1.894 1.99-.19.047-.332.095-.474.095zm-3.079-2.274a6.604 6.604 0 0 1 -2.179-1.942 3.975 3.975 0 0 1 -.473-.853 1.736 1.736 0 0 1 -.048-1.089c.095-.379.427-.758.853-.71.379 0 .663.331.758.473.331.379.568.853.805 1.326.379.806.758 1.611 1.137 2.463l-.427.19a28.44 28.44 0 0 0 -1.136-2.463c-.237-.426-.427-.853-.711-1.232-.142-.189-.284-.284-.426-.284-.19 0-.332.19-.379.379a1.02 1.02 0 0 0 .047.758c.095.237.19.474.427.758.521.71 1.231 1.373 2.036 1.8zm-5.447 4.168c-.189 0-.379-.047-.474-.189-.236-.237-.284-.616-.094-1.042.426-.995 1.326-1.753 2.131-2.369l.284.379c-.758.569-1.563 1.232-1.942 2.179-.094.19-.142.426-.047.521.047.047.189.047.284 0 .142-.047.237-.189.379-.284.758-.805 1.232-1.847 1.705-2.842l.427.189c-.474 1.043-.995 2.085-1.8 2.937-.142.142-.332.332-.521.426-.142.095-.237.095-.332.095zm-2.084-2.463c-1.089-.616-1.8-1.847-1.753-3.126 0-.426.19-.758.474-.853.237-.094.521 0 .758.19.142.142.237.379.332.521l1.184 2.747-.427.19-1.184-2.748a1.027 1.027 0 0 0 -.237-.379c-.094-.094-.189-.094-.236-.094-.095.047-.19.237-.19.426-.047 1.089.568 2.131 1.516 2.652zm-5.826 3.363a.797.797 0 0 1 -.473-.142c-.19-.142-.285-.379-.285-.663 0-.237.095-.426.19-.569.568-1.089 1.705-1.752 2.605-2.273l.237.426c-.9.521-1.942 1.137-2.463 2.084-.048.095-.142.237-.142.379 0 .095.047.19.094.237.048.047.142.047.285.047.331-.094.615-.331.852-.663a9.576 9.576 0 0 0 1.516-2.368l.426.189a12.01 12.01 0 0 1 -1.563 2.463c-.284.332-.616.711-1.089.806-.048.047-.142.047-.19.047zm-1.326-3.505a7.014 7.014 0 0 1 -1.421-2.605c-.095-.379-.237-.995-.047-1.516.094-.331.379-.663.805-.663.331 0 .616.237.805.711.521 1.231.663 2.605.805 3.884l-.473.047c-.142-1.279-.237-2.558-.758-3.742-.048-.142-.19-.426-.379-.426-.142 0-.284.189-.332.331-.094.332-.094.711.048 1.279.236.9.71 1.753 1.326 2.416zm-5.637 2.084c-.284 0-.473-.095-.568-.189-.142-.19-.189-.427-.047-.758.142-.379.426-.758.852-1.09.332-.284.758-.473 1.137-.663.426-.189.853-.379 1.279-.521l.189.427c-.426.142-.805.331-1.231.521-.426.189-.758.379-1.042.615a2.152 2.152 0 0 0 -.711.9c-.047.142-.047.237 0 .284.048.048.142.048.285.048.284-.048.615-.19.994-.426.758-.521 1.421-1.185 1.895-1.99l.426.237a7.028 7.028 0 0 1 -2.084 2.179c-.284.189-.71.426-1.184.521-.095-.095-.142-.095-.19-.095zm.379-4.073-.473-.095c0-.095.047-.142.047-.237l-.426.237a4.888 4.888 0 0 1 -.474-3.647c.047-.237.142-.474.332-.663.236-.237.568-.332.805-.19.379.142.473.616.473.758.332 1.279.001 2.605-.284 3.837zm-.379-4.216c-.094 0-.142.048-.236.095-.095.095-.143.284-.19.474a4.385 4.385 0 0 0 .426 3.268c.237-1.09.474-2.274.285-3.411-.048-.236-.095-.378-.19-.378-.047-.048-.095-.048-.095-.048zm-5.352 4.216c-.474 0-.852-.142-1.137-.379-.426-.379-.52-.995-.236-1.374.189-.284.568-.473 1.136-.521 1.09-.095 2.226.237 3.269.616l-.143.426c-1.042-.331-2.084-.663-3.126-.568-.379.047-.663.142-.758.284-.142.237-.047.568.143.758.284.237.71.284.947.237.284 0 .52-.095.805-.142.095-.048.19-.048.332-.095.189-.047.426-.095.615-.142.521-.095.995-.19 1.421-.427l.19.427c-.474.237-1.042.331-1.563.473-.19.048-.427.095-.616.143-.095.047-.189.047-.284.094a5.063 5.063 0 0 1 -.9.19zm.663-3.553-.331-.331a9.694 9.694 0 0 0 1.563-2.274c.094-.189.189-.426.189-.616a.356.356 0 0 0 -.237-.331c-.094 0-.237.095-.331.142-.806.663-1.28 1.705-1.232 2.7h-.473a3.833 3.833 0 0 1 1.421-3.126c.142-.142.378-.285.615-.237.379 0 .663.379.663.758.048.331-.094.615-.236.852-.379.948-.948 1.753-1.61 2.463zm-3.6-2.415c-.615 0-1.231 0-1.847-.143-.237-.047-.52-.142-.71-.331-.237-.237-.38-.616-.19-.9.095-.189.38-.426.948-.426a4.874 4.874 0 0 1 2.652.947l-.284.379c-.663-.521-1.516-.805-2.368-.853-.142 0-.427 0-.521.142-.048.095 0 .237.094.332.142.142.332.189.521.237.9.237 1.895.142 2.795.095l.047.473c-.426.048-.805.048-1.136.048z"></path></g><path d="m156.419 109.982-18.662 8.526c-.048.047-1.09.474-1.753 1.989l-127.602-7.768-1.279.569c-.379.189-.758.379-1.042.568l129.544 7.958c-.095.568-.189 1.184-.142 1.942l1.232 36.187c.473-.048.852-.19 1.231-.427l-1.184-35.808c-.047-3.221 1.468-3.978 1.563-4.026l18.993-8.715c-.094-.379-.426-.711-.899-.995z" fill="#fff"></path><path d="m120.137 106.051v.237c.094.758.189 1.563.237 2.131.189 2.037.284 4.074.473 6.11.095 1.184.237 2.416.426 3.6.474-.284.995-.474 1.564-.616 2.178-.568 5.115-2.178 7.531-3.268 2.984-1.373 6.015-2.7 8.999-4.121 2.984-1.468 5.968-2.984 8.81-4.689l.995-.568c.236-.474.331-1.042-.048-1.421a9.506 9.506 0 0 0 -.142-.142c-.331-.237-.758-.427-1.042-.758-.047-.047-.047-.095-.095-.142v-.095c.048-.426.095-.852.095-1.279 0-.237 0-.426-.047-.663 0-.189-.048-.331-.048-.52a2.792 2.792 0 0 1 -.094-.617c-.048-.19-.095-.331-.142-.52a4.204 4.204 0 0 0 -.237-.711c0-.19-.048-.38 0-.569 0-.047 0-.094.047-.142.095-.331.237-.615.237-.947 0-.19-.047-.331-.142-.521-.048-.19-.19-.331-.284-.521-.095-.142-.142-.237-.19-.332-.095-.189-.142-.379-.189-.568-.048-.142-.048-.237-.048-.379v-.616-.426c0-.379-.047-.9-.236-1.279 0-.047-.048-.047-.048-.094.048-.19.142-.427.284-.616-5.21 1.231-10.325 2.7-15.393 4.5-2.416.852-4.5 1.563-6.584 2.652-1.184.568-2.368 1.231-3.41 1.989-.237.19-.379.284-.853.805-.047.048-.332.379-.521.569a9.871 9.871 0 0 1 0 2.368v.805c.047.379.095.853.095 1.374z" fill="#f0eadd"></path><path d="m120.089 102.214v.616c8.858-2.89 17.81-5.826 26.667-8.81v-.616c-8.857 2.937-17.809 5.921-26.667 8.81zm.048 3.695c8.857-3.789 17.856-7.437 26.808-10.942a2.687 2.687 0 0 1 -.189-.568 769.892 769.892 0 0 0 -26.714 10.894c.095.19.095.379.095.616zm.189 2.226a408.952 408.952 0 0 1 27.093-12.268c-.095-.189-.189-.331-.284-.52-9.094 3.694-18.094 7.815-26.904 12.172.095.19.095.379.095.616zm26.998-10.705c0-.047 0-.094.048-.142l-26.856 12.789c0 .237.047.426.047.663l26.809-12.741c-.048-.237-.048-.426-.048-.569zm-26.572 16.01c8.81-4.926 17.857-9.52 27.046-13.641a2.794 2.794 0 0 1 -.095-.616 334.641 334.641 0 0 0 -26.998 13.594c0 .237.047.473.047.663zm.19 1.989c8.62-5.399 17.667-10.231 26.951-14.446 0-.237 0-.426-.048-.663a234.356 234.356 0 0 0 -26.998 14.446c.048.19.048.426.095.663z" fill="#f0ddb6"></path><path d="m148.935 105.104c-.995 1.373-2.984 1.942-4.452 2.652-1.848.9-3.742 1.8-5.589 2.747-4.642 2.226-9.189 4.547-13.831 6.726-1.989.947-3.931 2.226-6.158 2.132-.426-.048-.805-.048-1.231-.048-.379-5.826-1.184-20.083-1.184-20.083s10.988-4.594 11.936-5.257c.71-.474 12.125-4.074 18.046-5.826.616.19 1.184.474 1.421.852.616.758-.19.948-.711 1.516-.284.332-.521.71-.615 1.137 0 0 .047.047.047.095l-26.24 9.236.947 15.678 27.756-13.12c.426.331.284 1.042-.142 1.563z" fill="#ffca64"></path><path d="m148.082 89.426-27.282 9.378a3.55 3.55 0 0 0 -1.989 1.8c-.19.474-.285.995-.237 1.516l1.042 17.193s0 .048-.048.048c-4.499-.237-8.952-.427-13.451-.664-6.774-.378-13.547-.757-20.273-1.089l-24.061-1.279c-8.1-.426-16.247-.852-24.346-1.279-2.89-.142-6.442.427-7.768-2.747-1.705-4.121-2.51-8.715-1.373-13.167.52-2.132 1.657-3.269 3.126-4.026 1.136-.616 2.463-.995 3.884-1.421 3.363-.995 6.773-1.895 10.183-2.89a927.673 927.673 0 0 0 12.268-3.6c6.015-1.752 12.03-3.552 18.046-5.304 2.652-.806 5.447-1.942 8.241-1.99 2.748-.047 5.447.616 8.147.948 12.457 1.61 24.867 3.22 37.324 4.83 4.926.617 9.852 1.232 14.731 1.943.994.142 3.031.52 3.694 1.373a.762.762 0 0 1 .142.427z" fill="#ffca64"></path><path d="m118.811 100.604c-.19.474-.285.995-.237 1.516l1.042 17.193s0 .048-.048.048c-4.499-.237-8.952-.427-13.451-.664-6.774-.379-13.547-.757-20.273-1.089l-24.061-1.279c-8.1-.426-16.247-.852-24.346-1.279-2.89-.142-6.442.427-7.768-2.747-1.705-4.121-2.51-8.715-1.373-13.168.52-2.13 1.657-3.268 3.126-4.026z" fill="#ffd687"></path><path d="m108.201 111.072c-.616 2.747-1.99 5.352-3.837 7.483-.474-.047-.947-.047-1.421-.094 2.037-2.084 3.553-4.784 4.168-7.674.805-3.599.332-7.483-1.373-10.751l.994-.522c1.8 3.553 2.321 7.768 1.469 11.558zm-73.402-9.802-.08 1.086 11.006.812.08-1.087zm-.284 3.674-.08 1.086 11.006.811.08-1.086zm-.233 3.629-.08 1.087 11.006.811.08-1.087z" fill="#02909c"></path><path d="m147.846 88.952-26.857 9.142c-.189.047-.426.142-.615.189-.474.142-1.705.568-2.226 2.084l-84.784-6.11c-.853.284-1.61.616-2.321.995l86.962 6.252v.663l.948 17.194c.379 0 .805 0 1.184-.095l-.947-17.194c-.143-1.942.899-2.51 1.515-2.7.237-.047.474-.142.711-.19l25.766-8.762c.474-.568 1.232-.71.664-1.468z" fill="#fff"></path><path d="m141.309 53.57-.047-.047a.636.636 0 0 1 -.142-.19c.236-.331.284-.852.189-1.279-.047-.189-.095-.331-.142-.52a3.442 3.442 0 0 1 -.189-.664c-.048-.142-.048-.284-.095-.426 0-.142 0-.332.047-.474 0-.236.048-.426.095-.663.047-.331.095-.663 0-.994-.047-.285-.237-.521-.379-.806-.142-.19-.237-.426-.332-.663-.047-.094-.047-.19-.047-.331 0-.332.142-.663.332-.948.142-.189.284-.426.426-.663.095-.142.142-.284.189-.426.048-.095.048-.19.048-.331 0-.237-.048-.427-.095-.664a5.654 5.654 0 0 0 -.237-.852c-.047-.048-.047-.142-.047-.237.189-.426.331-.805.616-1.09.094-.094.189-.236.331-.378.237-.237.474-.474.711-.758h-34.814c-.237 0-.426 0-.663-.048v14.92h35.571c-.047-.189-.094-.378-.237-.568-.331-.331-.757-.568-1.089-.9z" fill="#f0eadd"></path><path d="m106.969 43.623c11.368.095 22.83.285 34.198.569 0-.237-.047-.426-.095-.663a2056.049 2056.049 0 0 0 -34.103-.569zm0 1.232v.616l33.582.095c.142-.19.284-.427.427-.664zm0 3.363 33.582-.71c-.142-.19-.237-.427-.331-.664l-33.298.71v.664zm0 2.084v.663l33.914-.995c0-.236.047-.426.095-.663zm33.961.568c-4.452.332-8.999.38-13.404.427-6.773.047-13.736.094-20.509 1.279v.663c6.773-1.184 13.736-1.232 20.509-1.28 4.499-.047 9.094-.047 13.641-.426-.095-.236-.189-.426-.237-.663z" fill="#f0ddb6"></path><path d="m142.304 54.565c1.279 1.99-2.747 1.99-3.79 1.99h-1.042l-19.704.141c-5.068.048-10.136.095-15.251.19v-17.952c2.415-.047 4.073-.094 4.594-.094 6.252-.143 12.505-.19 18.71-.285 3.126-.047 6.299-.094 9.473-.19 1.61-.047 3.22-.094 4.831-.189.474-.047 1.421-.189 2.131 0 1.753.474.285 1.895-.568 2.748h-34.577v12.599h34.151l.047.047c.332.332.758.569.995.995z" fill="#132762"></path><path d="m143.062 39.313c-.048.095-.095.237-.19.332h-35.05c-1.847 0-3.316 1.515-3.316 3.363v8.715c0 1.847 1.469 3.363 3.316 3.363h34.671c.332 1.516-3.079 1.516-4.026 1.516h-1.042l-19.704.142c-13.31.094-26.62.379-39.929.473-13.451.095-26.903.048-40.355.048-2.7 0-3.126-.474-3.126-3.174 0-3.079-.047-6.157 0-9.236.047-2.179.568-2.747 2.794-2.89 9.52-.71 18.994-1.657 28.562-2.083a369.45 369.45 0 0 1 3.552-.142c.853-.048 1.8-.048 2.747-.095.948-.048 1.942-.048 2.984-.095 1.09-.047 2.18-.047 3.316-.095a3188.67 3188.67 0 0 1 25.246-.52h.142c1.089-.048 1.942-.048 2.557-.048h.9c6.253-.142 12.505-.19 18.71-.284a631.72 631.72 0 0 0 9.473-.19c1.61-.047 3.221-.094 4.831-.19.474-.047 1.421-.189 2.131 0 .285.096.474.19.616.332.284.19.284.474.19.758z" fill="#2445ad"></path><path d="m109.148 54.375c-2.179-.047-3.979-1.847-3.979-4.12v-7.295c0-.758.237-1.326.616-1.752.758-.758 2.037-.805 2.084-.805h34.435c.379-.427.71-.853.805-1.28h-35.24c-.095 0-1.8 0-2.937 1.138-.663.663-.994 1.563-.994 2.652v7.342a5.358 5.358 0 0 0 5.257 5.352h33.298c.19-.284.19-.616-.142-1.09-.047-.047-.047-.094-.095-.142zm-5.921-15.44v17.903h-1.231v-17.856h.616c.189-.048.379-.048.615-.048z" fill="#fff"></path><path d="m56.904 73.51h-24.772c.19.143.332.285.474.474.19.19.331.38.473.616-.047.285-.047.616-.047.9 0 .237.047.427.142.663.047.142.095.285.142.38.237.473.569.9.616 1.373v.047c0 .237-.095.427-.19.663-.142.284-.284.569-.284.9 0 .095 0 .237.048.332.047.237.142.426.284.663.095.19.237.379.331.568.095.237.237.427.332.663.047.095.047.19.047.285.048.52-.142.994-.284 1.468-.047.047-.047.095-.047.19a1.682 1.682 0 0 0 -.095.473c-.047.284-.047.568-.047.853 0 .236 0 .426.047.663 0 .284.047.568.047.852.048.38.095.805.332 1.137a5.145 5.145 0 0 1 -1.042 1.232c-.284.284-.568.52-.9.805a.57.57 0 0 0 -.237.237h24.63z" fill="#f0eadd"></path><path d="m56.904 75.974c-7.957-.095-15.962-.237-23.872-.474 0 .237.047.427.142.663 7.91.237 15.867.427 23.778.474v-.663zm0 2.652c-7.673-.047-15.346-.237-23.02-.663 0 .237-.094.427-.189.663 7.72.38 15.489.616 23.21.663v-.663zm0 3.6v-.663l-23.493-1.705c.047.237.142.426.284.663l23.21 1.705zm0 .805a335.991 335.991 0 0 0 -22.877-1.942c.094.237.236.427.331.663 7.531.38 15.062.995 22.546 1.942zm0 2.795-22.783-2.321c-.047.047-.047.095-.047.19a1.681 1.681 0 0 0 -.095.473l22.925 2.321zm0 2.32a221.046 221.046 0 0 0 -22.972-3.078c0 .237 0 .426.047.663a249.984 249.984 0 0 1 22.972 3.079v-.663h-.047z" fill="#f0ddb6"></path><path d="m31.232 72.658c.19.332.569.569.853.853.19.142.331.284.473.474h23.778v14.967h-23.02c-.284.284-.568.521-.9.805a1.118 1.118 0 0 0 -.379.427c-.142.284 0 .663.19.9.758.805 2.084.947 3.079.947 5.4 0 10.799-.048 16.199-.048h10.562c-.521-4.262-2.274-20.177-2.368-20.32-.095-.141-22.404-.426-28.04-.52-.474.331-.853.852-.427 1.515z" fill="#ff500d"></path><path d="m58.61 75.737v10.705a3.353 3.353 0 0 1 -3.364 3.363h-22.925c-.094.094-.189.189-.284.331-.142.284 0 .663.19.9.71.805 2.084.947 3.079.947 5.4 0 10.799-.047 16.198-.047h6.016c11.273 0 22.593.047 33.866.095h40.545c.615 0 1.184.047 1.8-.048 2.51-.236 3.978-1.657 4.073-4.215.189-4.026.284-8.1.379-12.173.047-2.084-.616-3.458-2.037-4.168-.616-.332-1.326-.474-2.226-.569-9.378-.615-18.757-1.042-28.135-1.8-2.605 0-5.257-.331-7.863-.378-2.605-.048-5.257 0-7.862.047-5.163.142-10.373.237-15.489.426-13.31.474-26.619.805-39.881 1.184-.995.048-1.99.095-2.842.616-.521.332-.995.805-.805 1.421h24.156c1.468 0 2.7.9 3.173 2.226.142.332.237.71.237 1.137z" fill="#ff500d"></path><path d="m58.61 75.737v10.705c0 1.042-.474 1.989-1.232 2.605l.19 2.842c11.272 0 22.593.047 33.865.094h40.545c.616 0 1.184.048 1.8-.047 2.51-.237 3.979-1.658 4.073-4.216.19-4.025.285-8.099.379-12.172.048-2.084-.615-3.458-2.036-4.169l-79.574.853-2.037.095h.616c1.468 0 2.7.9 3.174 2.226.142.379.236.758.236 1.184z" fill="#ad3102"></path><path d="m61.546 74.885h74.553v14.588h-74.553zm73.369 1.184h-72.185v12.171h72.185v-12.17z" fill="#ffd687"></path><path d="m57.33 88.289c.38-.521.616-1.232.616-1.99v-10.467c0-.521-.094-.947-.284-1.326-.758-1.61-2.32-1.469-2.416-1.469l-23.635.095c-.142-.142-.237-.237-.331-.426-.19-.332-.237-.616-.143-.853l24.062-.095c.047 0 1.042-.094 2.084.474l74.553-1.468c.711.047 1.468.094 2.179.142 1.279.094 2.226.426 2.937 1.042l-78.39 1.563c.095.142.19.331.284.474.237.568.38 1.184.38 1.894v10.468c0 1.042-.285 1.99-.9 2.747-.759 1.042-1.943 1.61-3.411 1.705h-22.83a.8.8 0 0 1 -.048-.663c.095-.19.237-.284.38-.426.094-.048.141-.142.236-.19h22.167c1.137-.094 1.942-.473 2.51-1.231z" fill="#fff"></path><path d="m142.967 56.838c-4.832-.142-9.615-.284-14.447-.379-10.373-.142-20.746-.047-31.119.142-6.394.095-12.788.095-19.183.143l-26.145.142c-3.41 0-4.737 1.279-5.068 4.689-.19 2.037 0 4.026.426 6.063.758 3.41 1.8 4.262 5.257 4.215 14.873-.237 29.746-.474 44.666-.758 11.368-.142 22.688-.426 34.056-.758 3.931-.094 7.815-.236 11.699-.379 2.842-.094 4.263-1.563 4.357-4.357a64.52 64.52 0 0 0 0-4.31c-.094-2.937-1.515-4.358-4.499-4.453z" fill="#02909c"></path><path d="m115.305 66.88c-3.457 0-6.157-1.184-6.157-2.747s2.7-2.748 6.157-2.748c3.458 0 6.158 1.184 6.158 2.748 0 1.563-2.7 2.747-6.158 2.747zm0-4.879c-3.268 0-5.494 1.137-5.494 2.132 0 .994 2.274 2.131 5.494 2.131 3.269 0 5.495-1.137 5.495-2.131.047-.995-2.226-2.132-5.495-2.132zm13.168-5.494v13.925h-.616v-13.972c.19.048.426.048.616.048zm3.458.047v13.783h-1.232v-13.83c.379.047.805.047 1.232.047z" fill="#241c19"></path><path d="m79.782 26.904c-4.737-.616-9.568-.948-14.305-1.469-4.878-.568-9.757-.994-14.683-1.042-4.263-.047-8.478-.142-12.694-.71.332.19.663.426.805.615.142.19.285.38.38.569.094.142.141.284.236.473-.095.332-.19.663-.19.995 0 .237.048.426.095.663v.048c.048.189.095.331.19.52.095.237.142.427.142.664.047.094 0 .19 0 .284-.047.237-.19.474-.284.71a.914.914 0 0 0 -.142.474c0 .047 0 .095.047.142.047.284.237.569.332.853.094.236.142.473.189.71.047.19 0 .426 0 .663s-.047.474-.095.663c-.142.663-.284 1.374-.19 2.084.048.237.143.474.238.71-.237.285-.569.522-.9.711-.048.048-.095.048-.142.095 2.131.332 4.263.805 6.394 1.09 4.263.568 8.478 1.136 12.741 1.42 4.595.332 9.189.474 13.736.806 3.837.284 7.957 1.042 11.841.71v-12.93c-1.278-.19-2.51-.38-3.741-.521z" fill="#f0eadd"></path><path d="m83.429 29.887a861.343 861.343 0 0 1 -44.145-3.552c0 .237.047.426.095.663v.048a862.003 862.003 0 0 0 44.05 3.552v-.71zm0 1.942-43.86-4.357c.094.237.142.426.142.663l43.718 4.31zm0 1.8-44.003-4.5a.913.913 0 0 0 -.142.474c0 .048 0 .095.047.142l44.098 4.5zm0 3.174v-.663l-43.577-4.784c.048.19 0 .426 0 .663z" fill="#f0ddb6"></path><path d="m35.495 37.276c-.047.38.474.9.758 1.137 1.42 1.042 3.505.948 5.163.995 1.989.095 3.93.19 5.873.237l22.64.994c2.985.142 5.921.19 8.905.38 2.416.141 4.831.473 7.294.33-.189-4.262-.71-15.061-.71-15.061l-46.465-5.116c-.474.048-.948.095-1.421.237-3.174.947.568 1.847 1.373 2.89.142.189.285.378.38.568l43.575 3.978v10.99s-33.724-2.843-43.955-3.648c-.52.284-1.184.521-2.036.71-.616.095-1.28-.284-1.374.38z" fill="#17b6c4"></path><path d="m37.2 23.162 45.66 4.12c.758.048 1.374.569 1.61 1.28.048.189.095.378.095.615v12.22c.758.048 1.469 0 2.227-.047l11.888-.995c13.452-1.09 26.904-2.226 40.355-3.315.332-.048.616-.048.9-.095 1.374-.237 2.511-.758 3.126-2.226.9-2.226 1.09-4.5.569-6.868-.474-2.084-1.753-3.221-3.884-3.458-.379-.047-.758-.095-1.184-.142-3.268-.379-6.537-.853-9.757-1.326-.806-.095-1.611-.237-2.416-.332-6.679-.947-13.31-1.942-19.941-2.842-6.489-.852-12.741-1.184-19.278-.852l-6.536.284c-13.546.663-27.046 1.279-40.545 1.942-.852.047-1.752.047-2.557.284-1.942.616-1.28 1.184-.332 1.753z" fill="#026870"></path><path d="m37.2 23.162 45.66 4.12c.758.048 1.374.569 1.61 1.28 9.948-.759 41.493-3.269 54.139-4.264-3.268-.378-6.536-.852-9.757-1.326-.805-.095-1.61-.237-2.416-.331-6.678-.948-13.309-1.942-19.94-2.842-6.489-.853-12.742-1.184-19.278-.853l-6.536.284c-13.547.663-27.046 1.28-40.545 1.942-.853.048-1.753.048-2.558.284-1.99.569-1.326 1.137-.379 1.706z" fill="#02909c"></path><path d="m136.951 36.33.474-.143c-.095-.284-.047-.616.095-.9.189-.331.426-.474.663-.52h.237l-.663-6.822h-.19c-.331 0-.663-.047-.947-.142-.237-.094-.474-.284-.521-.568l-.474.095c.048.379.379.758.805.9.285.142.616.142.9.19l.569 5.967c-.332.095-.569.332-.805.71-.237.332-.285.806-.143 1.232zm-44.097 3.315c.048-.427-.094-.9-.426-1.232a1.497 1.497 0 0 0 -.9-.52l-.568-5.969c.284-.095.568-.19.852-.331.38-.237.616-.663.616-1.043h-.474c0 .285-.19.522-.378.664-.237.19-.569.237-.9.331l-.19.048.663 6.82h.237c.237-.047.521.095.758.38.19.236.331.568.284.852z" fill="#ffca64"></path><path d="m36.395 22.546 45.992 4.026c.615.047 1.515.426 2.178 1.279l50.871-4.026c1.468.19 2.889.379 4.357.568a4.81 4.81 0 0 1 1.185.284l-55.844 4.453c.047.284.095.615.095.994v11.32c-.427 0-.853 0-1.28-.047v-11.273c0-1.942-1.515-2.226-1.704-2.226l-43.671-3.836c-.616-.521-1.753-1.042-2.179-1.516z" fill="#fff"></path><path d="m14.039 125.139c.047.048.047.142.047.284-.047.332-.142.616-.38.853-.236.237-.52.331-.899.284-.474-.047-.805-.284-.995-.71-.19-.427-.236-1.137-.19-2.037.048-.332.048-.711.143-1.184-.095 0-.284-.048-.616-.095-.19-.047-.284-.142-.284-.332 0-.189.095-.284.284-.284.048 0 .142 0 .332.048.142 0 .237.047.331.047.095-.474.19-1.089.38-1.8 0-.095.047-.189.141-.237.048-.047.142-.047.284-.047.143 0 .237.047.285.142.047.047.094.142.047.237l-.095.331c-.142.758-.236 1.232-.284 1.469l.805.094c.095 0 .19.048.237.095.047.048.047.095.047.19 0 .142-.047.189-.094.237-.048.047-.142.047-.284.047-.19 0-.474 0-.806-.047-.047.426-.094.805-.142 1.136-.047.616-.047 1.137.048 1.516.094.379.236.568.52.568a.536.536 0 0 0 .38-.142c.094-.094.142-.284.19-.473a.36.36 0 0 1 .094-.237c.047-.048.142-.048.237-.048.094 0 .19.048.237.095zm5.73-.426c0 .568-.047 1.231-.094 2.084 0 .095-.047.142-.095.189-.095.048-.142.095-.284.048-.095 0-.19-.048-.284-.095a.36.36 0 0 1 -.095-.237c.142-1.705.142-2.842 0-3.315-.047-.285-.142-.474-.284-.616s-.332-.19-.568-.237c-.332-.047-.616.047-.9.237a2.093 2.093 0 0 0 -.569.71 2.16 2.16 0 0 0 -.237.948l-.142 2.084c0 .095-.047.142-.142.189-.095.048-.142.048-.284.048-.095 0-.19-.048-.284-.095a.363.363 0 0 1 -.095-.237c.095-1.374.19-2.652.332-3.837.094-1.089.236-2.131.379-3.22.047-.237.189-.332.378-.332.095 0 .19.047.237.095a.358.358 0 0 1 .095.189l-.19 1.374c-.094.852-.189 1.468-.236 1.847.19-.237.426-.426.71-.568s.616-.19.995-.19c.426.048.758.142.995.379.236.237.378.569.473 1.042.142.521.19.947.19 1.516zm2.037 2.226a1.856 1.856 0 0 1 -.805-.995c-.19-.379-.237-.805-.19-1.279.048-.473.19-.899.427-1.278s.568-.663.947-.853a2.563 2.563 0 0 1 1.374-.237c.426.048.852.142 1.184.379.332.19.616.474.758.805.19.332.237.711.237 1.137a.94.94 0 0 1 -.095.426c-.047.095-.19.095-.332.095l-3.741-.189c0 .236.047.521.19.758.141.284.33.521.615.71.284.189.568.332.947.332.284 0 .521 0 .71-.095.19-.048.38-.142.474-.237.095-.095.284-.237.427-.426a.359.359 0 0 1 .236-.095c.095 0 .142.047.237.095.048.094.095.142.095.237a.358.358 0 0 1 -.095.189 2.617 2.617 0 0 1 -.805.663c-.332.19-.758.237-1.279.237-.71 0-1.137-.142-1.516-.379zm3.127-2.463c.047 0 .094-.047.094-.142.048-.379-.095-.711-.379-.995s-.663-.426-1.184-.473a1.708 1.708 0 0 0 -.994.189c-.285.142-.521.379-.71.616-.19.237-.285.426-.285.616l3.457.189zm9.094-1.042c.379.237.615.568.805.947s.237.853.237 1.374c-.048.568-.19 1.042-.474 1.373-.284.332-.616.616-.995.758s-.805.19-1.184.19c-.284 0-.568-.095-.805-.19a1.936 1.936 0 0 1 -.616-.379c-.142-.142-.284-.284-.331-.379a1.018 1.018 0 0 1 -.237.379 1.42 1.42 0 0 1 -.332.237c-.047 0-.095.048-.19.048a.26.26 0 0 1 -.236-.143c-.047-.094-.095-.142-.095-.236 0-.095.048-.142.095-.19l.095-.095c.047-.047.094-.047.142-.094.047-.048.047-.095.095-.142.047-.142.094-.332.094-.569l.048-.758.094-1.421.095-1.326c.095-1.279.142-2.321.142-3.126 0-.095.047-.189.095-.237.095-.047.19-.094.284-.047.095 0 .19.047.237.095a.36.36 0 0 1 .095.236c0 .569 0 1.09-.048 1.564 0 .521-.047.994-.095 1.563-.047.331-.047.615-.047.852.19-.189.427-.331.71-.426.285-.095.664-.142 1.043-.142a1.63 1.63 0 0 1 1.279.284zm-.758 3.837c.284-.095.473-.285.71-.569.19-.284.284-.616.332-1.042.047-.616-.095-1.089-.38-1.421a1.606 1.606 0 0 0 -1.23-.568 1.707 1.707 0 0 0 -.995.189c-.284.142-.521.379-.71.569l-.048.757c-.048.379-.048.711-.048.948a.91.91 0 0 0 .19.568c.142.19.332.332.568.474.237.142.474.189.758.237.332 0 .616-.048.853-.142zm3.363.426c-.474-.426-.663-1.042-.616-1.895.047-.521.19-.994.379-1.373.237-.379.52-.663.947-.853a2.564 2.564 0 0 1 1.374-.237c.473.048.947.19 1.326.427.379.236.663.568.852.947.19.379.285.9.237 1.421-.047.805-.331 1.373-.852 1.752s-1.137.569-1.895.474a2.254 2.254 0 0 1 -1.752-.663zm3.126-.237c.379-.284.568-.71.615-1.326.048-.379-.047-.758-.142-1.042a1.623 1.623 0 0 0 -.615-.758c-.285-.189-.569-.284-.948-.332-.52-.047-.994.095-1.326.474-.331.379-.568.805-.568 1.421-.048.616.094 1.089.426 1.421.331.332.758.474 1.231.521.522 0 .995-.095 1.327-.379zm2.7.663c-.474-.426-.663-1.042-.616-1.894a3.9 3.9 0 0 1 .379-1.374c.237-.379.521-.663.947-.853a2.555 2.555 0 0 1 1.374-.236c.474.047.947.189 1.326.426s.663.568.853.947c.19.427.284.9.237 1.421-.048.805-.332 1.374-.853 1.753s-1.137.568-1.895.473c-.71 0-1.326-.236-1.752-.663zm3.126-.284c.379-.284.568-.71.616-1.326.047-.379-.048-.758-.143-1.042a1.623 1.623 0 0 0 -.615-.758c-.284-.19-.569-.284-.947-.332-.521-.047-.995.095-1.327.474a1.958 1.958 0 0 0 -.568 1.421c-.047.616.095 1.089.426 1.421.332.331.758.474 1.232.521.52.047.994-.047 1.326-.379zm2.558 1.279a.36.36 0 0 1 -.095-.19l.474-6.915c0-.095.047-.189.094-.237.048-.047.142-.095.284-.047.095 0 .19.047.285.095a.36.36 0 0 1 .094.236l-.284 3.458.758-.331c1.042-.474 1.705-.806 2.037-.995.094-.048.19-.095.237-.095a.26.26 0 0 1 .236.142c.048.095.095.19.095.332 0 .094-.095.142-.237.237l-3.173 1.563 2.89 2.415a.363.363 0 0 1 .094.237c0 .095-.047.19-.142.284-.095.095-.19.095-.237.095-.095 0-.19-.047-.284-.142l-.948-.758c-.473-.379-.9-.758-1.42-1.137l-.143 1.658c0 .095-.047.142-.094.19-.095.047-.142.047-.285.047-.142 0-.142-.095-.236-.142zm8.478.047c-.474-.426-.663-1.042-.616-1.894.047-.521.19-.995.38-1.374.236-.379.52-.663.946-.853a2.554 2.554 0 0 1 1.374-.236c.474.047.947.189 1.326.426.38.237.663.568.853.947.19.426.284.9.237 1.421-.048.805-.332 1.374-.853 1.753s-1.137.568-1.895.473c-.71 0-1.326-.236-1.752-.663zm3.126-.284c.379-.284.568-.71.616-1.326.047-.379-.048-.758-.142-1.042a1.623 1.623 0 0 0 -.616-.758c-.284-.19-.569-.284-.947-.332-.521-.047-.995.095-1.327.474-.331.379-.568.805-.568 1.421-.047.616.095 1.089.426 1.421.332.331.758.474 1.232.521.52.047.994-.095 1.326-.379zm5.92-4.263c0 .237-.141.332-.378.332s-.38-.142-.38-.379c0-.284 0-.521-.046-.711-.048-.189-.237-.284-.474-.284-.284 0-.474.095-.616.332-.142.236-.19.568-.237 1.042-.047.521-.047.9-.094 1.231l.757.048c.095 0 .142.047.19.094.047.048.047.142.047.237 0 .19-.095.284-.331.237l-.758-.047c-.095 1.231-.142 2.226-.19 3.031a.261.261 0 0 1 -.142.237c-.095.047-.142.047-.284.047a.359.359 0 0 1 -.237-.095.36.36 0 0 1 -.095-.236 81.64 81.64 0 0 0 .143-2.463l.047-.521-.569-.048a.359.359 0 0 1 -.236-.095c-.048-.047-.048-.142-.048-.236 0-.095.048-.142.095-.19.047-.047.142-.095.284-.047l.569.047c.047-.663.047-1.042.047-1.279.047-.615.19-1.136.474-1.468s.663-.521 1.184-.474c.947.095 1.326.663 1.279 1.658zm-15.914 6.868c.095.095.142.284.142.474a.762.762 0 0 1 -.237.521c-.142.142-.284.142-.52.142-.711-.142-1.327-.237-1.848-.332-.521-.094-1.137-.142-1.8-.189-.521-.048-1.326-.048-2.368-.095 0 1.374-.048 2.984-.142 4.737.473 0 1.042 0 1.705.047 1.326.095 2.368.237 3.079.379.189.047.379.142.426.284a.551.551 0 0 1 .095.474c0 .189-.095.331-.19.473-.095.095-.284.143-.52.143-.948-.143-1.943-.237-3.032-.332-.616-.047-1.184-.047-1.658-.047a61.474 61.474 0 0 1 -.616 5.541.69.69 0 0 1 -.284.427.961.961 0 0 1 -.521.142.785.785 0 0 1 -.568-.237c-.143-.142-.19-.284-.143-.474.237-1.468.427-3.268.616-5.399l-.852.047c-.19 0-.332-.047-.427-.189a.958.958 0 0 1 -.142-.522c.048-.426.284-.663.71-.663.427 0 .711-.047.853-.047.142-1.895.142-3.505.095-4.831h-.568c-.285 0-.427-.095-.569-.19-.094-.142-.142-.284-.142-.521 0-.189.095-.331.19-.473.094-.095.284-.142.52-.142h.474v-.237c0-.237.095-.379.237-.521s.332-.19.616-.142c.474.047.71.284.71.805v.142c.806 0 1.61.047 2.416.095.853.047 1.61.142 2.32.236.664.095 1.185.19 1.517.285.19 0 .331.047.426.189zm2.368 13.262c-.52-.284-.852-.71-.994-1.326s-.142-1.516-.048-2.747a38.54 38.54 0 0 1 .521-4.168c.237-1.374.569-2.937.995-4.689a.69.69 0 0 1 .284-.427c.142-.094.332-.142.569-.142.473.048.71.284.663.711 0 .094 0 .142-.048.189-.52 2.226-.852 3.884-1.042 4.974a35.409 35.409 0 0 0 -.473 3.694c-.048.853-.048 1.516 0 1.895.047.379.236.663.568.852.284.19.805.284 1.516.332a13.32 13.32 0 0 0 1.942 0c.568-.048 1.279-.095 2.178-.237h.19c.19 0 .379.095.426.237.095.142.142.284.095.521a.581.581 0 0 1 -.237.473c-.142.095-.331.19-.616.237-1.231.19-2.557.237-3.978.142-1.137-.047-1.99-.236-2.51-.521zm12.22.332c-.947-.568-1.705-1.326-2.226-2.368-.52-1.042-.71-2.274-.615-3.742.094-1.374.473-2.605 1.089-3.647s1.42-1.848 2.463-2.369c1.042-.521 2.179-.757 3.458-.663 1.278.095 2.463.474 3.457 1.184a6.39 6.39 0 0 1 2.321 2.795c.521 1.137.758 2.416.663 3.789-.094 1.421-.52 2.558-1.184 3.505a6.167 6.167 0 0 1 -2.652 2.037c-1.09.426-2.226.568-3.458.474-1.231-.095-2.368-.427-3.316-.995zm6.063-.805c.805-.284 1.516-.805 2.084-1.563.569-.758.9-1.705.995-2.89a6.398 6.398 0 0 0 -.474-3.031 5.411 5.411 0 0 0 -1.752-2.226c-.805-.569-1.705-.853-2.7-.947a4.695 4.695 0 0 0 -2.7.521 4.672 4.672 0 0 0 -1.942 1.894c-.474.805-.758 1.8-.852 2.889-.095 1.232.094 2.274.568 3.127.474.852 1.042 1.468 1.847 1.847.758.426 1.563.616 2.463.71.758.095 1.61 0 2.463-.331zm9.994 2.605c-.19-.142-.284-.332-.379-.569-.19-.947-.473-2.463-.805-4.547.047.379-.095-.426-.379-2.415a93.414 93.414 0 0 0 -1.042-5.4c0-.095-.047-.189 0-.331 0-.19.095-.332.237-.427.142-.094.331-.142.616-.142.19 0 .331.048.473.142.142.095.19.237.237.427.474 2.32.805 4.168 1.042 5.494.142.71.237 1.374.332 1.989.19 1.184.331 2.084.473 2.747.142.664.237.948.285.948.047 0 .189-.142.331-.426.142-.285.332-.664.569-1.09l.568-1.089.19-.379c.473-.948.852-1.611 1.089-1.99.237-.378.426-.521.616-.521.189 0 .378.19.568.521.19.332.426.9.758 1.753.094.189.19.426.284.616.095.189.142.379.237.521.094.189.142.379.236.568.095.19.19.426.285.663.142.379.284.711.426.948.095.236.19.378.237.378s.142-.331.331-.947c.19-.616.38-1.326.616-2.131.38-1.374.616-2.179.663-2.369.474-1.657 1.042-3.457 1.61-5.352.048-.189.143-.284.285-.379.142-.094.284-.094.474-.094.236 0 .426.094.568.236s.19.332.19.569c0 .094 0 .142-.048.189a118.24 118.24 0 0 0 -1.658 5.21l-.9 3.126a114.144 114.144 0 0 1 -.994 3.506c-.142.521-.521.757-1.09.71-.237 0-.473-.142-.663-.332-.19-.189-.426-.521-.616-.947-.237-.426-.473-1.042-.805-1.847-.19-.426-.379-.947-.568-1.563-.095-.284-.19-.569-.284-.805-.095-.237-.142-.332-.19-.332-.095 0-.331.426-.758 1.326-.379.758-.615 1.232-.758 1.469-.379.757-.71 1.326-.947 1.657-.237.379-.426.616-.616.758a.953.953 0 0 1 -.615.19c-.332 0-.521-.095-.71-.237zm22.783.237c.142.142.189.331.189.568a.631.631 0 0 1 -.189.474c-.095.094-.284.142-.426.189-.521.048-1.516.048-2.984-.047l-.616-.048c-.9-.047-1.658-.142-2.368-.189-.71-.095-1.469-.189-2.321-.379-.332-.047-.521-.284-.474-.71 0-.19.095-.379.19-.474a.432.432 0 0 1 .379-.19c.142 0 .236.048.331.048.284-1.279.521-2.889.663-4.784h-.237c-.236 0-.379-.095-.52-.237-.095-.142-.143-.284-.143-.521.048-.474.237-.663.663-.663h.332l.142-2.179a46.74 46.74 0 0 1 .142-2.131c-.379-.095-.521-.332-.521-.663 0-.285.095-.474.237-.521.142-.095.331-.095.616-.142.757-.048 1.894 0 3.41.142 1.895.142 3.268.284 4.073.473a.888.888 0 0 1 .474.237c.095.095.142.237.142.474s-.095.379-.237.521-.284.142-.473.142a64.867 64.867 0 0 0 -3.6-.426 47.293 47.293 0 0 0 -2.653-.095c-.094 1.847-.142 3.315-.236 4.357l1.326.095c1.042.095 1.705.142 1.989.19.711.094 1.137.142 1.326.142.379.047.521.237.521.71 0 .237-.094.379-.189.521s-.237.19-.426.19l-1.042-.095c-.569-.095-1.374-.142-2.321-.237-.569-.047-1.042-.095-1.28-.095a51.755 51.755 0 0 1 -.662 4.879c.805.142 1.847.237 3.031.332.711.047 1.279.094 1.705.094.427 0 .9 0 1.516-.047.189-.095.379-.047.521.095zm12.315 1.373c0 .237-.095.426-.237.616-.142.189-.331.237-.568.237a.887.887 0 0 1 -.332-.095c-.094-.047-.237-.095-.284-.189l-6.252-4.595a94.57 94.57 0 0 0 -.284 3.979c0 .237-.095.379-.237.521-.142.095-.332.142-.569.142a.785.785 0 0 1 -.568-.237c-.142-.142-.189-.331-.142-.616l.426-6.204c.048-.758.095-1.706.19-2.89l.047-1.184h-.047c-.095 0-.142.047-.19.047-.189 0-.331-.094-.426-.284-.095-.189-.095-.379-.095-.568 0-.284.237-.521.663-.711l.19-.047.047-.568c0-.237.095-.379.237-.521.142-.095.332-.142.568-.142.19 0 .379.094.521.189a.43.43 0 0 1 .19.379v.095c.947-.285 1.942-.427 2.937-.332 1.089.095 2.036.332 2.841.711.806.379 1.374.947 1.8 1.563.379.663.569 1.373.521 2.226-.047.9-.379 1.61-.9 2.179a4.539 4.539 0 0 1 -2.131 1.231c-.853.237-1.8.332-2.795.284a8.515 8.515 0 0 1 -1.657-.331l6.252 4.547c.142.142.284.331.284.568zm-5.731-11.557c-.474.095-1.042.237-1.611.426 0 .521 0 .853-.047 1.09 0 1.089-.047 2.226-.142 3.363.71.237 1.516.426 2.463.473 1.231.095 2.226-.094 2.984-.521.758-.426 1.184-1.042 1.231-1.894.048-.806-.236-1.516-.852-2.084-.663-.569-1.516-.9-2.605-.948-.474 0-.948.048-1.421.095zm10.325 12.41a3.688 3.688 0 0 1 -1.421-1.658 4.715 4.715 0 0 1 -.379-2.179c0-.237.095-.426.19-.521.142-.142.332-.189.616-.142.521.047.758.284.71.711-.047.615.048 1.136.284 1.61.237.474.569.853 1.042 1.089.427.285.948.427 1.469.474.805.047 1.468-.095 1.989-.426.521-.332.805-.853.853-1.563.047-.521-.048-.948-.332-1.279-.237-.332-.616-.663-1.042-.9s-.995-.474-1.658-.758c-.71-.284-1.373-.521-1.847-.805a3.751 3.751 0 0 1 -1.374-1.232c-.426-.521-.615-1.231-.521-2.084.048-.758.285-1.421.758-1.989.474-.568.995-.995 1.658-1.279s1.421-.379 2.226-.332c.805.048 1.563.285 2.179.711.616.379 1.137.9 1.468 1.516.332.615.474 1.231.427 1.894 0 .284-.095.474-.19.616s-.331.142-.568.142c-.284 0-.521-.095-.616-.237s-.142-.284-.142-.521c.047-.71-.19-1.326-.663-1.847-.474-.521-1.137-.805-1.99-.853-.852-.047-1.515.143-2.084.569-.568.426-.852 1.042-.9 1.752a1.8 1.8 0 0 0 .332 1.232c.237.331.616.616.995.805.426.19.994.426 1.8.758a8.646 8.646 0 0 1 1.752.852c.521.285.995.711 1.374 1.279.379.569.568 1.279.521 2.084a3.488 3.488 0 0 1 -.663 1.848c-.379.521-.948.9-1.563 1.136-.664.237-1.374.332-2.179.285-1.042-.048-1.848-.285-2.511-.758z" fill="#132762"></path><path d="m62.162 107.14c0 .379-.095.758-.237 1.137-.142.332-.332.663-.569.9a2.682 2.682 0 0 1 -.852.568c-.332.142-.71.19-1.137.19-.331 0-.616-.095-.9-.237s-.474-.332-.663-.616l-.142 3.221-1.61-.095.378-8.099.616.047.663 1.232c.095-.19.19-.379.332-.521s.284-.284.426-.379c.19-.095.332-.19.521-.237.19-.047.38-.095.616-.047.426 0 .805.094 1.137.284.331.142.615.379.805.663.237.284.379.568.474.947.094.379.189.616.142 1.042zm-1.61-.094v-.427c0-.142 0-.331-.048-.473-.047-.142-.047-.332-.142-.474s-.142-.284-.237-.379a2.058 2.058 0 0 0 -.332-.284c-.142-.095-.284-.095-.473-.142-.19 0-.332 0-.474.094-.142.095-.237.143-.379.237-.095.095-.19.237-.237.379s-.142.284-.19.426a1.691 1.691 0 0 0 -.094.474c0 .142-.047.332-.047.474v.426c0 .142.047.332.047.474.047.142.095.331.142.473.048.142.142.285.237.427s.19.237.332.284c.142.095.284.095.426.142.19 0 .331 0 .474-.095.142-.047.236-.142.378-.237.143-.094.19-.236.237-.379.048-.142.142-.284.19-.426a1.68 1.68 0 0 0 .094-.473c.048-.237.048-.379.095-.521zm8.525.426c0 .284-.047.568-.142.805s-.19.474-.332.663c-.142.19-.331.379-.52.569-.19.142-.427.284-.664.426a3.57 3.57 0 0 1 -.758.237c-.284.047-.52.047-.805.047-.284 0-.52-.047-.805-.142l-.71-.284a3.022 3.022 0 0 1 -1.09-1.09 2.222 2.222 0 0 1 -.284-.71 4.17 4.17 0 0 1 -.095-.805c0-.284.047-.569.142-.805.095-.237.19-.474.332-.664.142-.189.331-.379.52-.568.19-.142.427-.284.664-.426.237-.095.474-.19.758-.237s.52-.047.805-.047c.284 0 .52.047.805.142l.71.284c.237.142.427.284.616.473.19.19.332.379.474.616s.237.474.284.711c.048.237.095.521.095.805zm-1.658-.095v-.473c0-.19-.047-.332-.047-.521 0-.19-.095-.332-.142-.474-.048-.142-.142-.284-.237-.426-.095-.095-.237-.237-.38-.285-.141-.094-.33-.094-.52-.142-.19 0-.332 0-.521.095a.735.735 0 0 0 -.379.284c-.095.142-.19.237-.284.379a1.414 1.414 0 0 0 -.19.474c-.047.142-.094.331-.142.473-.047.19-.047.332-.047.474v.474c0 .189.047.331.095.521.047.189.094.331.142.473.047.143.142.285.237.427a.735.735 0 0 0 .378.284.798.798 0 0 0 .474.142c.19 0 .379 0 .521-.095.142-.047.284-.142.379-.237.095-.094.19-.236.284-.378.095-.143.142-.285.19-.474.047-.142.094-.332.094-.521a1.4 1.4 0 0 0 .095-.474zm8.005-.521c0 .237-.047.426-.142.616-.095.189-.19.331-.332.474a1.707 1.707 0 0 1 -.473.331 2.33 2.33 0 0 1 -.521.19c-.19.047-.38.094-.569.094h-.568c-.237 0-.474-.047-.71-.094-.237-.048-.474-.095-.664-.19.048.19.095.426.142.616.048.189.142.379.285.521.142.142.284.284.473.379.19.094.38.142.663.142.19 0 .332 0 .474-.048.142-.047.284-.094.426-.189s.237-.189.332-.332c.095-.142.19-.284.237-.426l.71.284a1.537 1.537 0 0 1 -.474.616c-.189.19-.426.332-.663.426-.236.095-.473.19-.757.237-.285.048-.521.048-.758.048-.427 0-.805-.095-1.137-.285a2.474 2.474 0 0 1 -.9-.663 3.149 3.149 0 0 1 -.568-.947 2.484 2.484 0 0 1 -.143-1.184c0-.426.095-.805.285-1.137.142-.331.379-.663.663-.9s.568-.426.947-.568c.38-.142.758-.19 1.184-.142.19 0 .427.047.616.094.19.048.426.095.616.19s.379.142.568.284c.19.095.332.237.427.379.141.142.236.332.284.521.047.189.094.379.047.663zm-4.026.9.568.142c.19.048.38.048.616.048.19 0 .426 0 .569-.048.189-.047.331-.095.473-.189a.882.882 0 0 0 .332-.379c.094-.142.142-.332.142-.569 0-.189 0-.379-.048-.521-.047-.142-.094-.284-.189-.426s-.237-.189-.379-.284a1.713 1.713 0 0 0 -.521-.095c-.19 0-.332 0-.474.095a1.024 1.024 0 0 0 -.379.237c-.094.094-.236.237-.284.379-.094.142-.142.284-.237.473-.047.142-.094.332-.142.474-.047.142-.047.331-.047.474zm6.963 2.937-1.61-.095.236-4.879-.995-.047.048-.663.994.047.095-2.036 1.61.094-.094 2.037 1.658.095-.048.663-1.657-.095zm7.388-4.689-.994 1.468-.142-.426c-.048-.142-.142-.332-.19-.474-.047-.142-.19-.284-.284-.379a.762.762 0 0 0 -.426-.142.884.884 0 0 0 -.38.095l-.283.284a1.171 1.171 0 0 0 -.19.426 5.896 5.896 0 0 0 -.142.474c-.047.142-.047.284-.095.473 0 .143-.047.285-.047.379l-.142 2.795-1.61-.095.284-5.542.615.048.616 1.326c.095-.189.19-.379.332-.568.142-.19.284-.332.426-.427.142-.142.332-.189.521-.284.19-.047.426-.095.663-.095.142 0 .284 0 .426.048.143.047.285.047.427.142.142.047.284.142.379.237.047 0 .142.094.236.237zm5.637-.237-2.226 4.784a13.217 13.217 0 0 1 -.853 1.61c-.331.521-.615 1.042-.994 1.516l-.616-.427c.094-.142.19-.284.284-.473.095-.19.237-.379.332-.569.094-.189.236-.379.331-.568s.19-.379.237-.521l-2.179-5.589 1.61.095 1.469 3.836 1.42-3.694z" fill="#02909c"></path><path d="m38.81 46.702c-.284 0-.52.047-.71.142s-.332.237-.474.38a3.552 3.552 0 0 0 -.379.852 4.505 4.505 0 0 0 -.142 1.184c0 .379.048.758.142 1.09.095.33.19.615.38.852.141.237.33.379.568.52.236.143.473.143.805.143.995 0 1.563-.474 1.705-1.421h.474c-.237 1.279-.995 1.942-2.274 1.942-.758 0-1.373-.19-1.847-.663a2.705 2.705 0 0 1 -.616-.995 4.112 4.112 0 0 1 -.237-1.326c0-.568.095-1.09.237-1.516.19-.473.426-.805.758-1.09.426-.33.995-.52 1.658-.52.331 0 .616.047.852.142.237.095.427.237.663.474l.143-.521h.473v1.847h-.52c-.096-.474-.285-.853-.57-1.09-.236-.331-.615-.426-1.089-.426zm8.195.047.047 4.926.71.19v.379h-2.226v-.379l.71-.19-.047-2.32-2.841.047.047 2.32.71.19v.38h-2.225v-.38l.71-.19-.047-4.925-.71-.19v-.379h2.226v.38l-.71.189v2.131l2.841-.047v-2.132l-.71-.189v-.379h2.226v.38l-.71.188zm3.078 0 .048 4.926.805.19v.379l-2.416.047v-.379l.758-.19-.047-4.925-.806-.19v-.379l2.416-.047v.38zm2.274 4.88-.047-4.927-.71-.19v-.378h1.61l3.173 4.594-.047-4.073-.71-.19v-.379h1.941v.38l-.71.189.047 5.447h-.568l-3.458-4.973.047 4.452.71.19v.378h-1.941v-.379l.663-.142zm9.52-1.517h-.426l-.142-.852h-1.374l.048 2.32 2.51-.047.237-1.373h.474v1.847l-4.879.095v-.38l.758-.189-.048-4.926-.805-.189v-.379l4.69-.047v1.752h-.427l-.284-1.279-2.368.048v2.178h1.373l.142-.852h.427zm4.453 2.037c-.332 0-.616-.047-.9-.142a1.606 1.606 0 0 1 -.663-.426l-.095.473h-.474v-1.894h.521c.048.52.19.9.427 1.137.236.236.568.379 1.042.379.379 0 .71-.095.9-.237.189-.142.284-.38.284-.663a.952.952 0 0 0 -.19-.616c-.142-.142-.284-.284-.52-.426-.238-.142-.474-.237-.806-.38-.331-.142-.663-.284-.9-.426a2.02 2.02 0 0 1 -.568-.52c-.142-.19-.19-.474-.19-.806 0-.52.142-.947.474-1.231.332-.285.758-.427 1.326-.474.569 0 .995.142 1.326.474l.048-.38h.473v1.895h-.473c0-.52-.095-.9-.332-1.184-.19-.237-.52-.379-.947-.379-.758 0-1.137.38-1.137 1.042 0 .19.047.332.095.474.047.142.19.237.379.331.19.095.426.237.758.332.473.19.852.379 1.136.568.285.19.474.38.616.569.142.19.19.473.19.758 0 .331-.095.615-.237.9-.142.236-.38.426-.663.568a2.515 2.515 0 0 1 -.9.284zm6.205-2.179h-.427l-.142-.852h-1.373l.047 2.32 2.51-.047.237-1.373h.474v1.847l-4.879.047v-.379l.758-.189-.047-4.926-.805-.19v-.378l4.689-.048v1.753h-.427l-.284-1.28-2.368.048v2.18h1.373l.143-.853h.426zm7.862.048h-.426l-.142-.853h-1.374v2.179l.995.142v.379l-2.605.047v-.379l.758-.189-.048-4.926-.805-.19v-.378l4.69-.048v1.8h-.474l-.285-1.279-2.368.048.047 2.273h1.374l.142-.852h.426zm7.247-1.28c0 .475-.047.948-.19 1.374-.141.427-.331.806-.615 1.09a2.476 2.476 0 0 1 -.805.568c-.332.142-.663.19-1.09.19-.426 0-.805-.048-1.137-.142a1.595 1.595 0 0 1 -.805-.521c-.237-.285-.473-.616-.615-.995a3.89 3.89 0 0 1 -.237-1.326c0-.474.047-.948.19-1.374.141-.426.33-.805.615-1.09.237-.236.52-.426.805-.568.284-.142.663-.19 1.09-.19.426 0 .805.048 1.136.143.332.095.616.284.805.521.285.284.474.616.616.995s.237.852.237 1.326zm-4.5 0c0 .475.048.854.142 1.232.095.38.19.663.332.853s.332.379.568.474c.237.094.474.142.806.142.568 0 1.042-.19 1.278-.569.142-.19.237-.473.332-.805.095-.331.095-.758.095-1.184 0-.474-.048-.853-.142-1.231-.095-.332-.19-.616-.332-.853-.142-.19-.332-.379-.568-.474a2.04 2.04 0 0 0 -.805-.142c-.285 0-.569.047-.758.142a1.48 1.48 0 0 0 -.521.427c-.285.426-.427 1.089-.427 1.989zm10.894-.047c0 .474-.047.948-.19 1.374-.141.426-.33.805-.615 1.09a2.475 2.475 0 0 1 -.805.568c-.332.142-.663.19-1.09.19-.426 0-.805-.048-1.136-.143a1.597 1.597 0 0 1 -.805-.52c-.237-.285-.474-.617-.616-.995a3.889 3.889 0 0 1 -.237-1.327c0-.473.047-.947.19-1.373.142-.426.331-.805.615-1.09a3.11 3.11 0 0 1 .805-.568c.285-.142.663-.19 1.09-.19.426 0 .805.048 1.136.143.332.094.616.284.806.52.284.285.473.616.615.995.143.427.237.853.237 1.326zm-4.547 0c0 .474.048.853.142 1.232.095.379.19.663.332.853s.331.378.568.473.474.142.805.142c.569 0 1.043-.19 1.28-.568.142-.19.236-.474.33-.805.096-.332.096-.758.096-1.184a4.89 4.89 0 0 0 -.142-1.232c-.095-.331-.19-.616-.332-.852-.142-.19-.332-.38-.568-.474a2.041 2.041 0 0 0 -.806-.142c-.284 0-.568.047-.757.142a1.48 1.48 0 0 0 -.521.426c-.285.427-.427 1.09-.427 1.99zm5.258-2.936 2.794-.047c.805 0 1.469.236 1.942.663.284.284.474.568.616.994.142.38.237.805.237 1.232 0 .474-.047.9-.19 1.326-.142.426-.331.758-.615 1.042-.474.474-1.137.758-1.99.758l-2.747.047v-.379l.71-.19-.047-4.925-.71-.19zm1.563 5.447h1.279c.284 0 .568-.047.758-.142a1.48 1.48 0 0 0 .52-.427c.143-.189.285-.473.332-.757.095-.332.095-.71.095-1.137 0-.853-.19-1.516-.474-1.942-.142-.19-.331-.379-.568-.474a2.21 2.21 0 0 0 -.805-.142h-1.232l.095 5.02zm-30.55 34.718c-.096 0-.19-.048-.285-.142-.095-.095-.142-.19-.142-.285v-.093c0-.332 0-1.137-.047-2.416-.048-1.279-.048-2.32-.048-3.126a.43.43 0 0 1 .142-.332.43.43 0 0 1 .332-.142.43.43 0 0 1 .331.142.43.43 0 0 1 .142.332v1.752c0 .569 0 1.185.048 1.848v1.563h2.89a.43.43 0 0 1 .33.142.43.43 0 0 1 .143.331.43.43 0 0 1 -.142.332.43.43 0 0 1 -.332.142h-1.658c-.805-.047-1.373-.047-1.705-.047zm5.115-.095a.43.43 0 0 1 -.332-.142.43.43 0 0 1 -.142-.332c-.047-.094-.047-.142-.047-.237v-1.752-1.562-.521-.71c0-.237.047-.427.047-.616 0-.095.047-.142.095-.237.047-.047.142-.095.237-.142.094-.095.19-.095.284-.095.426 0 1.09 0 1.894-.047.806-.048 1.374 0 1.706 0a.43.43 0 0 1 .331.142.43.43 0 0 1 .142.331.43.43 0 0 1 -.142.332.43.43 0 0 1 -.331.142h-3.363v1.8c.284 0 .615-.047.947-.047h2.084a.43.43 0 0 1 .332.142.43.43 0 0 1 .142.331.43.43 0 0 1 -.142.332.43.43 0 0 1 -.332.142h-2.084c-.332 0-.663 0-.947.047v1.8c1.468.047 2.605.047 3.363 0a.43.43 0 0 1 .331.142.43.43 0 0 1 .142.332.43.43 0 0 1 -.142.331.43.43 0 0 1 -.331.142c-.71 0-1.99 0-3.742-.047zm5.352.047a.404.404 0 0 1 -.332 0 .57.57 0 0 1 -.237-.237.405.405 0 0 1 0-.331c.143-.284.285-.758.474-1.326.19-.569.332-.995.427-1.232.047-.142.189-.52.52-1.279.285-.71.522-1.279.664-1.752.047-.142.094-.19.236-.284a.405.405 0 0 1 .332 0c.047 0 .095.047.142.094.142.048.19.142.237.237l2.226 5.495c.047.142.047.236 0 .331a.57.57 0 0 1 -.237.237.405.405 0 0 1 -.331 0 .57.57 0 0 1 -.237-.237l-.663-1.752h-.427c-.805.047-1.42.047-1.894.047-.284.805-.474 1.326-.569 1.658-.142.19-.189.284-.331.331zm2.794-2.889-.805-1.99-.805 1.99a9.12 9.12 0 0 0 1.61 0zm6.916 1.99-.142-.427c-.048-.142-.095-.237-.142-.379a.763.763 0 0 0 -.19-.331c-.094-.142-.284-.285-.473-.38-.19-.094-.521-.141-.995-.189h-.19c-.047 0-.189 0-.331.048-.19 0-.284.047-.379.047h-.379v2.131a.43.43 0 0 1 -.142.332.43.43 0 0 1 -.332.142.43.43 0 0 1 -.331-.142.43.43 0 0 1 -.142-.332v-2.652-2.653c0-.094.047-.189.094-.284 0-.094.048-.142.143-.237a.362.362 0 0 1 .236-.094 7.87 7.87 0 0 1 1.137-.095c.427 0 .9 0 1.469.095.189.047.378.047.568.142.19.047.379.142.568.237.19.094.38.19.474.331.095.142.237.284.332.474.094.19.142.426.094.663-.047.663-.379 1.137-1.137 1.468l.427.427c.094.142.142.284.237.473.094.19.142.332.189.521.047.142.095.332.19.569.047.236.142.426.189.568.047.095 0 .237-.047.332a.485.485 0 0 1 -.285.236c-.142.048-.236.048-.331-.047a.485.485 0 0 1 -.237-.284zm-3.126-2.653h1.184c.52-.047.947-.095 1.279-.237.473-.19.71-.426.758-.758 0-.473-.427-.758-1.28-.9-.615-.094-1.278-.094-2.036-.047v1.942zm9.899 3.6c-.19.047-.332 0-.426-.142-.142-.19-.332-.427-.521-.663a3.81 3.81 0 0 1 -.427-.664l-.426-.71-.426-.663c-.427-.616-.853-1.28-1.421-1.99 0 .521 0 1.232.047 2.227.048.994.048 1.705.048 2.131a.43.43 0 0 1 -.142.332.43.43 0 0 1 -.332.142.43.43 0 0 1 -.332-.142.43.43 0 0 1 -.142-.332c0-.379 0-1.184-.047-2.416-.047-1.279-.047-2.226 0-2.936 0-.095.047-.19.047-.284.048-.095.095-.19.19-.237.094-.048.19-.095.331-.095.142 0 .237.047.284.142a29.849 29.849 0 0 1 2.132 2.937l.379.568.426.663.38.569c.046-1.99.046-3.458 0-4.453a.43.43 0 0 1 .141-.331.43.43 0 0 1 .332-.142.43.43 0 0 1 .331.142.43.43 0 0 1 .142.331c0 .758 0 2.605-.047 5.542a.43.43 0 0 1 -.142.332.43.43 0 0 1 -.332.142zm5.116-.19a1.85 1.85 0 0 1 -.806-.663 1.75 1.75 0 0 1 -.284-.995.43.43 0 0 1 .142-.331.43.43 0 0 1 .332-.142c.095 0 .19.047.237.095.094.047.142.142.142.284.095.758.568 1.136 1.468 1.136.427 0 .758-.094 1.042-.284s.379-.426.379-.758c0-.189-.095-.331-.237-.473s-.426-.237-.71-.332l-.284-.094c-.569-.19-.995-.38-1.28-.474a2.54 2.54 0 0 1 -.852-.663c-.19-.237-.284-.569-.284-.9 0-.284.095-.569.284-.853a1.85 1.85 0 0 1 .805-.663c.332-.19.71-.237 1.137-.237a3.1 3.1 0 0 1 1.184.237c.332.142.616.379.806.663.189.284.284.569.284.853a.54.54 0 0 1 -.142.379.432.432 0 0 1 -.332.142c-.142 0-.237-.048-.284-.142a.429.429 0 0 1 -.142-.332.58.58 0 0 0 -.19-.426 1.408 1.408 0 0 0 -.52-.332 1.901 1.901 0 0 0 -.711-.142c-.427 0-.758.095-.995.237a.69.69 0 0 0 -.331.616c0 .142.047.284.142.379.094.094.236.236.426.331s.379.19.616.285c.236.094.52.189.852.331.474.142.853.379 1.137.616s.426.616.426.994c0 .38-.094.71-.331.995a2.134 2.134 0 0 1 -.9.663 3.3 3.3 0 0 1 -1.184.237c-.332.047-.71-.047-1.042-.237zm4.783-2.89a26.96 26.96 0 0 1 .048-2.888c0-.142.047-.237.142-.285.095-.094.189-.094.331-.094.048 0 .095.047.19.047.71-.142 1.326-.19 1.895-.095.994.142 1.61.569 1.941 1.327.095.379.143.663.143.9a2.36 2.36 0 0 1 -.19.615.932.932 0 0 1 -.426.427c-.19.094-.332.189-.521.284-.19.047-.379.142-.569.142-.615.142-1.278.142-2.036.047.047 1.137.047 1.895.047 2.179a.43.43 0 0 1 -.142.332.43.43 0 0 1 -.332.142.43.43 0 0 1 -.331-.142.43.43 0 0 1 -.142-.332c0-.047 0-.9-.048-2.605zm.995-.425a5.322 5.322 0 0 0 1.753-.048c.615-.142.947-.379.994-.71 0-.095 0-.237-.094-.474-.143-.426-.569-.71-1.185-.758a4.48 4.48 0 0 0 -1.563.095c-.047.521-.047 1.184-.047 1.942.095-.047.095-.047.142-.047zm3.979 3.457a.405.405 0 0 1 -.332 0 .579.579 0 0 1 -.237-.237.408.408 0 0 1 0-.331c.143-.284.285-.758.474-1.326.19-.569.332-.995.426-1.232.048-.142.19-.52.521-1.279.285-.71.521-1.279.664-1.752.047-.142.094-.19.236-.284a.406.406 0 0 1 .332 0c.047 0 .095.047.142.094.142.048.189.142.237.237l2.226 5.495c.047.142.047.236 0 .331a.568.568 0 0 1 -.237.237.404.404 0 0 1 -.331 0 .568.568 0 0 1 -.237-.237l-.663-1.752h-.427c-.805.047-1.421.047-1.894.047-.284.805-.474 1.326-.569 1.658-.142.19-.236.284-.331.331zm2.747-2.889-.805-1.99-.805 1.99a9.128 9.128 0 0 0 1.61 0zm7.342 2.937c-.19.047-.332 0-.427-.142-.142-.19-.331-.427-.521-.663a3.854 3.854 0 0 1 -.426-.664l-.426-.71-.427-.663c-.426-.616-.852-1.28-1.42-1.99 0 .521 0 1.232.047 2.227.047.994.047 1.705.047 2.131a.429.429 0 0 1 -.142.332.43.43 0 0 1 -.331.142.432.432 0 0 1 -.332-.142.429.429 0 0 1 -.142-.332c0-.379 0-1.184-.047-2.416-.048-1.279-.048-2.226 0-2.936 0-.095.047-.19.047-.284.047-.095.095-.19.189-.237.095-.048.19-.095.332-.095s.237.047.284.142a29.912 29.912 0 0 1 2.132 2.937l.379.568.426.663.379.569c.047-1.99.047-3.458 0-4.453a.43.43 0 0 1 .142-.331.43.43 0 0 1 .331-.142c.142 0 .237.047.332.142a.43.43 0 0 1 .142.331c0 .758 0 2.605-.047 5.542a.432.432 0 0 1 -.142.332.432.432 0 0 1 -.332.142zm1.847-.142a.429.429 0 0 1 -.142-.332c0-.142.047-.237.142-.332a.428.428 0 0 1 .331-.142h.19v-4.641h-.142a.432.432 0 0 1 -.332-.142.429.429 0 0 1 -.142-.332c0-.142.047-.237.142-.332a.431.431 0 0 1 .332-.142h1.089c.142 0 .237.048.332.142.094.095.142.19.142.332a.432.432 0 0 1 -.142.331.432.432 0 0 1 -.332.143h-.095v4.594h.19c.142 0 .237.047.331.142.095.095.142.19.142.332a.429.429 0 0 1 -.142.331.428.428 0 0 1 -.331.142h-1.232c-.142.048-.237 0-.331-.094zm3.789-.048a1.85 1.85 0 0 1 -.805-.663 1.747 1.747 0 0 1 -.284-.995c0-.142.047-.236.142-.331a.43.43 0 0 1 .331-.142c.095 0 .19.047.237.095.095.047.142.142.142.284.095.758.569 1.136 1.469 1.136.426 0 .757-.094 1.042-.284.284-.19.379-.426.379-.758 0-.189-.095-.331-.237-.473s-.427-.237-.711-.332l-.284-.094c-.568-.19-.995-.38-1.279-.474a2.532 2.532 0 0 1 -.852-.663c-.19-.237-.285-.569-.285-.9 0-.284.095-.569.285-.853.189-.284.473-.52.805-.663.331-.19.71-.237 1.137-.237.426 0 .852.095 1.184.237.331.142.615.379.805.663.189.284.284.569.284.853a.536.536 0 0 1 -.142.379.43.43 0 0 1 -.332.142c-.142 0-.236-.048-.284-.142a.432.432 0 0 1 -.142-.332.578.578 0 0 0 -.189-.426 1.408 1.408 0 0 0 -.521-.332 1.904 1.904 0 0 0 -.711-.142c-.426 0-.758.095-.994.237a.69.69 0 0 0 -.332.616c0 .142.047.284.142.379.095.094.237.236.426.331.19.095.379.19.616.285.237.094.521.189.853.331.473.142.852.379 1.136.616.285.237.427.616.427.994 0 .38-.095.71-.332.995a2.134 2.134 0 0 1 -.9.663 3.299 3.299 0 0 1 -1.184.237c-.331.047-.71-.047-1.042-.237zm5.589.048a.43.43 0 0 1 -.331.142.43.43 0 0 1 -.332-.142.429.429 0 0 1 -.142-.332c0-.568 0-1.42-.047-2.652-.048-1.232-.048-2.18 0-2.89a.43.43 0 0 1 .142-.331.428.428 0 0 1 .331-.142c.142 0 .237.047.332.142.094.094.142.19.142.331v2.274c1.421-.047 2.463-.047 3.126-.047 0-.806 0-1.564.047-2.227 0-.142.048-.237.142-.331.095-.095.19-.095.332-.095s.237.047.331.142c.095.095.095.19.095.332-.047.71-.047 1.278-.047 1.8v3.694a.432.432 0 0 1 -.142.332.432.432 0 0 1 -.332.142.428.428 0 0 1 -.331-.142.429.429 0 0 1 -.142-.332c0-.19 0-.995-.048-2.416-.663 0-1.658 0-3.079.048 0 .994.048 1.8 0 2.368.095.142.048.237-.047.332z" fill="#fff"></path><path d="m64.956 61.007c0 .142-.047.236-.095.284-.094.047-.19.094-.284.094-.663-.047-1.279-.094-1.8-.094a94.763 94.763 0 0 0 -.142 2.936v.237c-.047 1.469-.095 2.605-.095 3.316 0 .19-.047.284-.094.379-.048.047-.19.094-.332.094-.19 0-.284-.047-.331-.142a.945.945 0 0 1 -.095-.426c0-.237 0-.616.047-1.231 0-.569.048-1.042.048-1.374l.047-.616.142-3.173c-.568 0-1.184.047-1.847.142-.142 0-.237 0-.332-.095-.094-.047-.094-.19-.094-.331 0-.237.094-.332.331-.38.805-.094 1.61-.142 2.416-.142.994 0 1.752.048 2.178.095.19.095.332.19.332.427zm6.631 6.536c0 .142-.047.237-.095.331-.094.095-.189.143-.284.143-.047 0-.142 0-.19-.048-.047-.047-.141-.047-.189-.094l-3.647-2.275v2.226c0 .142-.047.237-.094.284-.095.048-.19.095-.285.095a.684.684 0 0 1 -.331-.095c-.095-.047-.095-.19-.095-.331v-3.458-2.274h-.142a.26.26 0 0 1 -.237-.142c-.047-.094-.095-.189-.095-.331s.095-.284.332-.426l.095-.048v-.284c0-.142.047-.237.094-.284.095-.047.19-.095.284-.095.095 0 .19.047.285.095.095.047.095.095.095.19v.047a4.611 4.611 0 0 1 1.61-.285c.616 0 1.137.095 1.61.285.474.19.805.473 1.042.805.237.331.38.758.38 1.184 0 .521-.143.9-.427 1.279a2.416 2.416 0 0 1 -1.137.758c-.474.19-.995.236-1.516.236-.284 0-.568-.047-.9-.142l3.648 2.274c.142.142.19.237.19.379zm-3.647-6.158a3.904 3.904 0 0 0 -.9.285v.615c.047.616.047 1.232.047 1.895.38.095.853.142 1.374.142.71 0 1.231-.142 1.658-.379.379-.284.616-.616.616-1.09 0-.473-.19-.805-.569-1.136-.379-.284-.852-.426-1.468-.426-.19 0-.474 0-.758.094zm11.13 6.537c0 .095-.047.19-.141.284-.095.047-.19.095-.332.095-.095 0-.19 0-.237-.048-.094-.047-.142-.094-.142-.19l-.52-1.704h-3.128l-.52 1.658c-.048.189-.19.284-.427.284-.142 0-.237-.048-.332-.095a.26.26 0 0 1 -.142-.237v-.142a270.274 270.274 0 0 0 1.895-5.636l.19-.521c.141-.427.283-.758.425-.948a.654.654 0 0 1 .522-.284.76.76 0 0 1 .52.237c.143.19.285.474.38.9.284.852.615 1.99 1.042 3.363l.189.616h.284c.095 0 .237.047.284.142.048.094.095.19.095.284 0 .284-.095.426-.332.426h-.142c.19.569.332 1.042.427 1.468.142 0 .142.048.142.048zm-1.61-2.416-.331-1.137c-.237-.9-.474-1.563-.569-2.036-.094-.285-.142-.521-.189-.616-.047-.142-.095-.19-.142-.19s-.095.048-.142.19c-.048.095-.095.331-.237.663l-.521 1.705-.474 1.469zm3.932 2.558a1.44 1.44 0 0 1 -.38-.379c-.189-.379-.615-1.563-1.23-3.552-.38-1.232-.522-1.8-.522-1.753-.142-.379-.284-.9-.426-1.468v-.142a.26.26 0 0 1 .142-.237c.095-.047.19-.095.332-.095.19 0 .284.047.331.19.237.757.427 1.42.569 1.942l.426 1.373c.284.947.52 1.61.663 2.084.142.427.284.758.379.9s.19.237.284.237c.095 0 .19-.095.284-.237.095-.142.19-.426.332-.852.142-.427.331-1.137.616-2.085l.9-3.315c.047-.142.189-.19.379-.19.141 0 .236.048.331.095.095.048.142.142.142.284v.095c-.19.663-.426 1.516-.71 2.558l-.19.616c-.568 1.989-.947 3.173-1.137 3.6-.094.141-.19.284-.331.378a.955.955 0 0 1 -.521.142c-.332-.094-.521-.094-.663-.19zm9.662-.805c.095.047.095.19.095.284 0 .142-.047.237-.095.284a.361.361 0 0 1 -.236.095c-.285.047-.853.095-1.658.095h-1.658c-.379 0-.805-.048-1.279-.095-.19 0-.284-.142-.284-.38 0-.094.047-.189.095-.283.047-.095.094-.095.19-.095h.189c.094-.71.19-1.61.19-2.7h-.143c-.142 0-.237-.047-.284-.095-.048-.047-.095-.142-.095-.284 0-.237.095-.379.332-.379h.19v-1.184-1.184c-.19-.047-.285-.142-.285-.331 0-.143.047-.237.095-.285.047-.047.19-.094.331-.094.427-.048 1.042-.048 1.895-.048 1.042 0 1.8.048 2.273.095.142 0 .237.047.284.095a.361.361 0 0 1 .095.236c0 .143-.047.237-.094.285-.048.094-.143.094-.237.094-.71-.047-1.421-.094-2.037-.094-.474 0-.947 0-1.468.047.047 1.042.047 1.847.047 2.416h2.652c.19 0 .285.142.285.379 0 .142-.048.236-.095.284a.361.361 0 0 1 -.237.094h-.568c-.332 0-.758-.047-1.326-.047h-.711c0 .853-.047 1.753-.19 2.7.474.047 1.043.047 1.706.047h.947c.237 0 .521-.047.853-.094.047.047.142.094.236.142zm1.99.758c-.284-.142-.521-.38-.616-.664-.095-.331-.142-.852-.142-1.515 0-.805.047-1.563.095-2.321.047-.758.19-1.658.379-2.653a.26.26 0 0 1 .142-.236c.094-.048.19-.095.284-.095.284 0 .379.142.379.379v.095c-.19 1.231-.332 2.178-.38 2.794a26.96 26.96 0 0 0 -.094 2.084c0 .474.047.853.095 1.042.047.237.19.38.331.474.19.095.474.142.853.142.426 0 .758 0 1.09-.047.33-.048.71-.095 1.184-.237h.094c.095 0 .19.047.237.094.047.095.095.143.095.285 0 .094-.048.19-.095.284-.095.047-.19.095-.331.142-.664.142-1.422.237-2.227.237-.568-.095-1.09-.19-1.373-.284zm6.205-.19c-.38-.237-.663-.52-.853-.852s-.284-.758-.284-1.185c0-.142.047-.236.095-.284.047-.094.189-.094.331-.094.284 0 .426.142.426.378 0 .332.095.663.237.9s.38.427.616.569c.237.142.521.19.853.19.426 0 .805-.096 1.089-.285.284-.19.426-.521.426-.9 0-.284-.094-.521-.237-.71a1.2 1.2 0 0 0 -.615-.427c-.237-.094-.569-.236-.948-.331a4.395 4.395 0 0 1 -1.042-.38 2.441 2.441 0 0 1 -.805-.615c-.237-.284-.379-.663-.379-1.137 0-.426.095-.805.332-1.136.237-.332.52-.569.9-.758.379-.19.758-.285 1.184-.285.473 0 .852.095 1.231.285s.663.473.853.758c.189.331.331.663.331 1.042 0 .142-.047.284-.094.331-.048.047-.19.095-.332.095-.189 0-.284-.047-.331-.095-.048-.047-.095-.142-.095-.284 0-.379-.142-.71-.426-.995-.285-.284-.664-.426-1.137-.426-.474 0-.853.142-1.137.379a1.363 1.363 0 0 0 -.426.995c0 .284.094.473.237.663.142.19.331.284.615.379.237.094.569.189.995.331.379.095.71.237.995.38.284.141.568.378.805.662s.379.663.379 1.137c0 .379-.095.758-.284 1.042-.19.284-.474.521-.853.71a3.105 3.105 0 0 1 -1.184.237c-.616.048-1.09-.047-1.468-.284z" fill="#241c19"></path><path d="m96.596 34.86c0 .332 0 .664-.047.995a3.932 3.932 0 0 1 -.284.995c-.142.332-.284.663-.474.947-.19.285-.426.569-.663.758l-.568-.284c.142-.19.236-.426.331-.71.095-.237.142-.521.19-.806.047-.284.094-.52.094-.805v-.758l-.284-3.789 1.421-.095.284 3.553zm6.395-1.42c.047.426 0 .805-.142 1.137-.143.331-.285.616-.521.9-.237.237-.521.426-.853.615a4.108 4.108 0 0 1 -1.089.285c-.379.047-.758 0-1.137-.095a2.55 2.55 0 0 1 -.947-.474c-.285-.19-.474-.473-.664-.805a2.2 2.2 0 0 1 -.284-1.09c-.047-.426 0-.805.142-1.136.095-.332.285-.616.521-.9.237-.237.521-.426.853-.569.331-.142.71-.236 1.09-.284.426-.047.804 0 1.136.095s.663.237.947.474c.285.19.474.473.663.805.19.284.285.616.285 1.042zm-1.421.095c0-.142-.048-.332-.048-.474-.047-.142-.047-.331-.094-.474-.048-.142-.095-.284-.19-.426a2.063 2.063 0 0 0 -.284-.332c-.095-.094-.237-.142-.379-.189s-.332-.047-.521-.047a.955.955 0 0 0 -.521.142c-.142.047-.237.142-.332.284-.094.095-.189.237-.236.379l-.142.426c-.048.142-.048.332-.048.474v.474c0 .142.047.331.047.473.048.142.048.332.095.474.048.142.095.284.19.426.094.142.19.237.284.332.095.094.237.142.379.237.142.047.331.047.521.047a.8.8 0 0 0 .473-.142c.143-.048.237-.142.332-.284.095-.095.19-.237.237-.38l.142-.426c.047-.142.047-.331.047-.473.048-.19.048-.332.048-.521zm3.931 2.32-1.421.095-.379-5.115 1.421-.095.142 2.226 1.895-.142-.142-2.226 1.421-.095.379 5.116-1.421.095-.142-2.227-1.895.142.142 2.227zm5.068-.378-.663.047-.379-5.115.9-.048 3.363 3.316-.237-3.505.663-.048.379 5.116-.9.047-3.363-3.315zm10.941-.758-3.694.284-.332-5.163 3.695-.284.047.663-2.273.142.094 1.563 1.753-.142.047.663-1.752.142.095 1.563 2.273-.142.047.71zm4.69-5.495-1.469 3.08.142 2.13-1.421.095-.142-2.084-1.894-2.936 1.421-.095 1.279 2.51.994-2.652zm4.594 4.832-3.694.284-.379-5.116 3.694-.284.048.663-2.274.142.095 1.563 1.752-.142.048.663-1.753.143.095 1.563 2.273-.142zm4.973-1.942c0 .236 0 .426-.047.568-.047.19-.095.332-.19.474a1.098 1.098 0 0 1 -.331.331c-.142.095-.284.19-.426.237-.142.048-.332.095-.521.142-.19.048-.379.048-.569.095h-.71c-.19 0-.427-.047-.616-.142a1.598 1.598 0 0 1 -.568-.284 1.474 1.474 0 0 1 -.521-.427l.663-.805.284.426a2.6 2.6 0 0 0 .426.332c.142.095.284.142.426.19.143.047.285.047.427.047s.284-.048.426-.048c.142-.047.237-.094.332-.142a.57.57 0 0 0 .236-.236c.048-.095.095-.19.048-.332a.364.364 0 0 0 -.095-.237c-.047-.047-.095-.142-.189-.19-.095-.047-.143-.094-.237-.094-.095-.047-.19-.047-.284-.047-.095 0-.19-.048-.285-.048-.094 0-.189-.047-.236-.047-.143-.047-.285-.047-.427-.095-.142-.047-.331-.095-.473-.142s-.285-.095-.427-.19c-.142-.047-.236-.142-.379-.236-.094-.095-.189-.237-.284-.332-.047-.142-.095-.284-.142-.474 0-.236 0-.426.047-.568.048-.19.095-.331.19-.474a1.11 1.11 0 0 1 .331-.331c.143-.095.285-.19.427-.237s.331-.095.521-.142c.189-.047.379-.047.568-.095h.711c.237.048.426.095.615.142.19.095.379.19.521.285.143.094.285.236.427.378l-.663.806a.69.69 0 0 0 -.285-.427c-.094-.142-.236-.236-.378-.331-.143-.095-.285-.142-.427-.19-.142-.047-.284-.047-.379-.047-.142 0-.331.047-.426.047a2.335 2.335 0 0 0 -.332.142.571.571 0 0 0 -.236.237c-.048.095-.048.19-.048.332 0 .095.048.19.095.237s.095.142.189.19c.095.047.143.094.237.094.095.047.19.047.284.047.095 0 .19.048.285.048.094 0 .189.047.236.047.143.047.285.047.474.095.142.047.332.094.474.142.142.047.284.095.426.19.142.047.284.141.379.236s.189.237.284.379a.911.911 0 0 1 .142.474z" fill="#ffca64"></path></g></svg>